<svg xmlns="http://www.w3.org/2000/svg" xmlns:vectornator="http://vectornator.io" xml:space="preserve" stroke-miterlimit="10" style="fill-rule:nonzero;clip-rule:evenodd;stroke-linecap:round;stroke-linejoin:round" viewBox="0 0 1024 768"><defs><linearGradient id="i" x1="0" x2="1" y1="0" y2="0" gradientTransform="scale(33.06777) rotate(-13.533 57.458 -39.828)" gradientUnits="userSpaceOnUse"><stop offset="0" stop-color="#0b0b0b"/><stop offset=".233" stop-color="#595959"/><stop offset="1" stop-color="#101010"/></linearGradient><linearGradient id="j" x1="0" x2="1" y1="0" y2="0" gradientTransform="scale(35.1036) rotate(-15.181 62.788 -77.095)" gradientUnits="userSpaceOnUse"><stop offset="0" stop-color="#0b0b0b"/><stop offset=".233" stop-color="#595959"/><stop offset="1" stop-color="#101010"/></linearGradient><linearGradient id="k" x1="0" x2="1" y1="0" y2="0" gradientTransform="rotate(87.778 116.217 406.02) scale(27.13821)" gradientUnits="userSpaceOnUse"><stop offset="0" stop-color="#0b0b0b"/><stop offset=".233" stop-color="#595959"/><stop offset="1" stop-color="#101010"/></linearGradient><linearGradient id="l" x1="0" x2="1" y1="0" y2="0" gradientTransform="rotate(59.231 -102.456 706.695) scale(46.1124)" gradientUnits="userSpaceOnUse"><stop offset="0" stop-color="#0b0b0b"/><stop offset=".233" stop-color="#595959"/><stop offset="1" stop-color="#101010"/></linearGradient><linearGradient id="m" x1="0" x2="1" y1="0" y2="0" gradientTransform="scale(30.2892) rotate(81.24 -5.157 14.955)" gradientUnits="userSpaceOnUse"><stop offset="0" stop-color="#0b0b0b"/><stop offset=".233" stop-color="#595959"/><stop offset="1" stop-color="#101010"/></linearGradient><linearGradient id="n" x1="0" x2="1" y1="0" y2="0" gradientTransform="scale(105.1693) rotate(61.756 -1.895 6.088)" gradientUnits="userSpaceOnUse"><stop offset=".181" stop-color="#ddb4b4"/><stop offset=".375" stop-color="#ffe1e1"/><stop offset=".688" stop-color="#f3d0d0"/><stop offset="1" stop-color="#c68a8a"/></linearGradient><linearGradient id="o" x1="0" x2="1" y1="0" y2="0" gradientTransform="rotate(-15.501 1465.27 -2529.44) scale(52.8465)" gradientUnits="userSpaceOnUse"><stop offset="0" stop-color="#0b0b0b"/><stop offset=".233" stop-color="#595959"/><stop offset="1" stop-color="#101010"/></linearGradient><linearGradient id="p" x1="0" x2="1" y1="0" y2="0" gradientTransform="rotate(27.607 -777.98 728.58) scale(17.86753)" gradientUnits="userSpaceOnUse"><stop offset="0" stop-color="#0b0b0b"/><stop offset=".233" stop-color="#595959"/><stop offset="1" stop-color="#101010"/></linearGradient><linearGradient id="q" x1="0" x2="1" y1="0" y2="0" gradientTransform="rotate(87.062 194.22 587.638) scale(34.3882)" gradientUnits="userSpaceOnUse"><stop offset="0" stop-color="#232323" stop-opacity=".763"/><stop offset="1" stop-opacity="0"/></linearGradient><linearGradient id="r" x1="0" x2="1" y1="0" y2="0" gradientTransform="scale(29.44607) rotate(82.948 1.527 10.37)" gradientUnits="userSpaceOnUse"><stop offset="0" stop-color="#373737"/><stop offset="1"/></linearGradient><linearGradient id="s" x1="0" x2="1" y1="0" y2="0" gradientTransform="rotate(-104.91 283.08 8.062) scale(41.3799)" gradientUnits="userSpaceOnUse"><stop offset="0" stop-color="#373737"/><stop offset="1"/></linearGradient><radialGradient id="b" cx="0" cy="0" r="1" gradientTransform="matrix(140.073 24.4571 -137.812 34.3178 859.683 701.156)" gradientUnits="userSpaceOnUse"><stop offset="0" stop-opacity=".604"/><stop offset="1" stop-color="#fff" stop-opacity="0"/></radialGradient><radialGradient id="c" cx="0" cy="0" r="1" gradientTransform="matrix(140.073 24.4571 -137.812 34.3178 307.405 700.537)" gradientUnits="userSpaceOnUse"><stop offset="0" stop-opacity=".604"/><stop offset="1" stop-color="#fff" stop-opacity="0"/></radialGradient><radialGradient id="d" cx="0" cy="0" r="1" gradientTransform="matrix(4.11935 -48.8607 266.18 2.84722 641.913 680.823)" gradientUnits="userSpaceOnUse"><stop offset="0" stop-opacity=".234"/><stop offset="1" stop-color="#fff" stop-opacity=".002"/></radialGradient><radialGradient id="e" cx="0" cy="0" r="1" gradientTransform="matrix(180 0 0 180 820 560)" gradientUnits="userSpaceOnUse"><stop offset=".852" stop-opacity="0"/><stop offset=".871" stop-opacity=".707"/><stop offset="1"/></radialGradient><radialGradient id="f" cx="0" cy="0" r="1" gradientTransform="matrix(160 0 0 160 820 560)" gradientUnits="userSpaceOnUse"><stop offset=".846" stop-color="#d0d0d0" stop-opacity="0"/><stop offset=".865" stop-color="#797979"/><stop offset=".954" stop-color="#a3a3a3"/><stop offset="1" stop-color="#717070"/></radialGradient><radialGradient id="g" cx="0" cy="0" r="1" gradientTransform="matrix(180 0 0 180 200 560)" gradientUnits="userSpaceOnUse"><stop offset=".852" stop-opacity="0"/><stop offset=".871" stop-opacity=".707"/><stop offset="1"/></radialGradient><radialGradient id="h" cx="0" cy="0" r="1" gradientTransform="matrix(160 0 0 160 200 560)" gradientUnits="userSpaceOnUse"><stop offset=".846" stop-color="#d0d0d0" stop-opacity="0"/><stop offset=".865" stop-color="#797979"/><stop offset=".954" stop-color="#a3a3a3"/><stop offset="1" stop-color="#717070"/></radialGradient></defs><clipPath id="a"><path d="M0 0h1024v768H0z"/></clipPath><g vectornator:layerName="Layer 5" clip-path="url(#a)"><path vectornator:layerName="Curve 2" fill="url(#b)" d="M729.648 486.589s-86.836 60.863-59.524 264.775c27.311 203.913 459.166 95.874 431.856-108.039-27.31-203.912-372.332-156.736-372.332-156.736Z"/><path vectornator:layerName="Curve 3" fill="url(#c)" d="M177.371 485.97s-86.837 60.863-59.525 264.775c27.311 203.913 459.165 95.874 431.854-108.039C522.388 438.794 177.371 485.97 177.371 485.97Z"/><path vectornator:layerName="Oval 1" fill="url(#d)" d="M641.32 753.859c-292.353-2.377-529.085-37.002-528.757-77.339.328-40.336 237.592-71.109 529.944-68.733 292.352 2.376 529.083 37.002 528.753 77.338-.32 40.337-237.588 71.11-529.94 68.734Z"/></g><g vectornator:layerName="Layer 1"><g vectornator:layerName="Group 1" fill="none" stroke="#757575" stroke-linecap="butt" stroke-width="2"><path vectornator:layerName="Curve 1" d="M820 700V420"/><path vectornator:layerName="Curve 2" d="m720 460 200 200"/><path vectornator:layerName="Curve 3" d="M680 560h280"/><path vectornator:layerName="Curve 4" d="m720 660 200-200"/><path vectornator:layerName="Curve 5" d="m800 420 40 280"/><path vectornator:layerName="Curve 6" d="M940 480 700 640"/><path vectornator:layerName="Curve 7" d="m960 580-280-40"/><path vectornator:layerName="Curve 8" d="M900 680 740 440"/></g><path vectornator:layerName="Oval 1" fill="url(#e)" d="M640 560c0-99.411 80.589-180 180-180s180 80.589 180 180-80.589 180-180 180-180-80.589-180-180Z"/><path vectornator:layerName="Oval 3" fill="url(#f)" d="M660 560c0-88.366 71.634-160 160-160s160 71.634 160 160-71.634 160-160 160-160-71.634-160-160Z"/></g><g vectornator:layerName="Layer 2"><g vectornator:layerName="Group 1" fill="none" stroke="#757575" stroke-linecap="butt" stroke-width="2"><path vectornator:layerName="Curve 1" d="M200 700V420"/><path vectornator:layerName="Curve 2" d="m100 460 200 200"/><path vectornator:layerName="Curve 3" d="M60 560h280"/><path vectornator:layerName="Curve 4" d="m100 660 200-200"/><path vectornator:layerName="Curve 5" d="m180 420 40 280"/><path vectornator:layerName="Curve 6" d="M320 480 80 640"/><path vectornator:layerName="Curve 7" d="M340 580 60 540"/><path vectornator:layerName="Curve 8" d="M280 680 120 440"/></g><path vectornator:layerName="Oval 1" fill="url(#g)" d="M20 560c0-99.411 80.589-180 180-180s180 80.589 180 180-80.589 180-180 180S20 659.411 20 560Z"/><path vectornator:layerName="Oval 2" fill="url(#h)" d="M40 560c0-88.366 71.634-160 160-160s160 71.634 160 160-71.634 160-160 160S40 648.366 40 560Z"/></g><g vectornator:layerName="Layer 3"><path vectornator:layerName="Curve 6" fill="url(#i)" d="m422.47 519.231-28.277 11.009-56.075-227.058 22.01-.613 62.342 216.662"/><path vectornator:layerName="Curve 1" fill="url(#j)" d="M759.021 366.763s-4.462 1.306-3.471 4.787c9.002 31.611 53.233 183.08 58.233 196.083 5.195 13.509 14.59 10.978 17.638-3.222 1.81-8.431-26.54-142.885-36.551-193.978-2.097-10.701-6.707-9.741-6.707-9.741l-29.142 6.071Z"/><path vectornator:layerName="Curve 3" fill="url(#k)" d="M728.307 267.557 333.281 284.47l4.837 18.712 396.215-11.047-6.026-24.578Z"/><path vectornator:layerName="Curve 8" fill="url(#l)" d="m408.141 524.81 9.066 35.575 334.851-192.171-8.882-45.584L422.47 519.231l-14.329 5.579Z"/><path vectornator:layerName="Curve 7" fill="url(#m)" d="M211.501 574.284c-15.103-3.516-19.458-12.981-19.458-12.981l217.275-36.951 7.889 36.033s-193.803 16.671-205.706 13.899Z"/><path vectornator:layerName="Curve 5" fill="url(#n)" d="m509.472 504.776-33.355 18.772"/><path vectornator:layerName="Curve 4" fill="url(#o)" d="M720.07 241.652c-1.271-4.046 3.192-5.131 3.192-5.131l39.568-4.981s3.661-.546 4.121 1.532c3.488 15.789 19.472 94.315 25.086 122.965.887 4.527-3.142 4.503-3.142 4.503l-34.437 7.174s-2.4.5-3.098-3.083c-2.745-14.089-27.624-111.318-31.29-122.979Z"/><path vectornator:layerName="Curve 2" fill="url(#p)" d="M333.281 284.47 192.043 561.303l12.855-1.976 133.22-256.145-4.837-18.712Z"/></g><g vectornator:layerName="Layer 7"><path vectornator:layerName="Curve 1" fill="url(#q)" d="m801.581 404.684-35.854 2.6-11.269-39.57 38.315-7.982 8.808 44.952Z"/></g><g vectornator:layerName="Layer 6"><path vectornator:layerName="Curve 1" d="M412.698 543.133c5.328 5.272 78.493 56.941 78.493 56.941l5.741-11.481s-51.766-41.604-72.825-52.969c-21.059-11.365-17.581 1.401-11.409 7.509Z"/><path vectornator:layerName="Curve 2" d="m501.522 579.758-14.43 29.548 7.961 8.581 19.877-36.154-13.408-1.975Z"/></g><g vectornator:layerName="Layer 4"><path vectornator:layerName="Curve 1" d="M717.144 207.777c-.001 1.454 2.043 12.244 2.043 12.244s.66 3.053 2.452 2.809c2.866-.391 4.923.774 4.923.774l2.675 12.165 33.593-4.229-3.742-14.755 78.38-23.617s57.598 25.307 41.537 56.396c-20.926 40.505-55.839 21.695-76.145 30.181-7.989 3.338-4.297 19.139 3.365 18.952 23.574-.574 71.112-1.153 88.932-38.402 18.794-39.288-11.308-64.607-27.547-74.817-5.419-3.407-9.294-5.132-9.294-5.132s10.227-5.987 14.945-16.282c4.718-10.296 4.518-8.344 5.522-18.042.687-6.639-12.075-12.313-19.66-4.604-7.586 7.71 3.476 23.388-12.279 28.583-7.382 2.434-92.678 28.247-92.678 28.247l-1.003-3.635-31.925 6.742s-4.091.648-4.094 6.422Z"/><path vectornator:layerName="Curve 3" fill="url(#r)" d="m321.487 243.355-52.311 4.546s9.679-25.78 21.875-29.032c12.195-3.252 119.064-1.408 123.029 3.862 10.504 13.961-71.796 19.054-71.796 19.054l-20.797 1.57Z"/><path vectornator:layerName="Curve 2" fill="url(#s)" d="m332.537 285.873 21.134-2.276-13.137-41.702-19.047 1.46 11.05 42.518Z"/></g><g vectornator:layerName="Layer 8"><g vectornator:layerName="Group 1" fill="none" stroke="#ecd46d" stroke-linecap="butt"><path vectornator:layerName="Curve 1" d="m573.604 426.582 31.581 25.922"/><path vectornator:layerName="Curve 2" d="m591.686 415.43 31.977 26.319"/><path vectornator:layerName="Curve 5" d="m582.637 421.044 31.724 26.03"/><path vectornator:layerName="Curve 3" d="m555.577 437.706 30.85 25.323"/><path vectornator:layerName="Curve 4" d="m537.633 448.9 30.506 25.04"/><path vectornator:layerName="Curve 6" d="m564.441 432.021 31.581 25.923"/><path vectornator:layerName="Curve 7" d="m546.53 443.242 30.768 25.255"/><path vectornator:layerName="Curve 8" d="m600.586 410.042 32.07 26.128"/></g></g></svg>