<svg xmlns="http://www.w3.org/2000/svg" xmlns:vectornator="http://vectornator.io" xml:space="preserve" stroke-miterlimit="10" style="fill-rule:nonzero;clip-rule:evenodd;stroke-linecap:round;stroke-linejoin:round" viewBox="0 0 400 300"><defs><linearGradient id="a" x1="0" x2="1" y1="0" y2="0" gradientTransform="rotate(49 8 88) scale(21)" gradientUnits="userSpaceOnUse"><stop offset="0" stop-color="#fcf8f5"/><stop offset=".1" stop-color="#d4d4d4"/><stop offset=".2" stop-color="#f3eee9"/><stop offset=".2" stop-color="#d4d4d4"/><stop offset=".3" stop-color="#f3eee9"/><stop offset=".4" stop-color="#d4d4d4"/><stop offset=".5" stop-color="#f3eee9"/><stop offset=".6" stop-color="#d4d4d4"/><stop offset=".7" stop-color="#f3eee9"/><stop offset=".7" stop-color="#d4d4d4"/><stop offset=".8" stop-color="#f3eee9"/><stop offset=".9" stop-color="#d4d4d4"/><stop offset="1" stop-color="#f3eee9"/></linearGradient><linearGradient id="b" x1="0" x2="1" y1="0" y2="0" gradientTransform="matrix(40 0 0 40 41 166)" gradientUnits="userSpaceOnUse"><stop offset="0" stop-color="#658b78"/><stop offset=".1" stop-color="#94bca8"/><stop offset=".8" stop-color="#8eb5a1"/><stop offset="1" stop-color="#658b78"/></linearGradient><linearGradient id="c" x1="0" x2="1" y1="0" y2="0" gradientTransform="matrix(18 15 -18 15 107 65)" gradientUnits="userSpaceOnUse"><stop offset="0" stop-color="#fcf8f5"/><stop offset=".1" stop-color="#d4d4d4"/><stop offset=".2" stop-color="#f3eee9"/><stop offset=".2" stop-color="#d4d4d4"/><stop offset=".3" stop-color="#f3eee9"/><stop offset=".4" stop-color="#d4d4d4"/><stop offset=".5" stop-color="#f3eee9"/><stop offset=".6" stop-color="#d4d4d4"/><stop offset=".7" stop-color="#f3eee9"/><stop offset=".7" stop-color="#d4d4d4"/><stop offset=".8" stop-color="#f3eee9"/><stop offset=".9" stop-color="#d4d4d4"/><stop offset="1" stop-color="#f3eee9"/></linearGradient><linearGradient id="d" x1="0" x2="1" y1="0" y2="0" gradientTransform="matrix(40 0 0 40 83 185)" gradientUnits="userSpaceOnUse"><stop offset="0" stop-color="#6d97a3"/><stop offset=".2" stop-color="#9ec0ca"/><stop offset=".7" stop-color="#95b8c3"/><stop offset="1" stop-color="#6d97a3"/></linearGradient><linearGradient id="e" x1="0" x2="1" y1="0" y2="0" gradientTransform="matrix(18 16 -18 17 156 47)" gradientUnits="userSpaceOnUse"><stop offset="0" stop-color="#fcf8f5"/><stop offset=".1" stop-color="#d4d4d4"/><stop offset=".2" stop-color="#f3eee9"/><stop offset=".2" stop-color="#d4d4d4"/><stop offset=".3" stop-color="#f3eee9"/><stop offset=".4" stop-color="#d4d4d4"/><stop offset=".5" stop-color="#f3eee9"/><stop offset=".6" stop-color="#d4d4d4"/><stop offset=".7" stop-color="#f3eee9"/><stop offset=".7" stop-color="#d4d4d4"/><stop offset=".8" stop-color="#f3eee9"/><stop offset=".9" stop-color="#d4d4d4"/><stop offset="1" stop-color="#f3eee9"/></linearGradient><linearGradient id="f" x1="0" x2="1" y1="0" y2="0" gradientTransform="matrix(40 0 0 40 132 177)" gradientUnits="userSpaceOnUse"><stop offset="0" stop-color="#cf8383"/><stop offset=".1" stop-color="#d9a9a9"/><stop offset=".8" stop-color="#d99999"/><stop offset="1" stop-color="#be7373"/></linearGradient><linearGradient id="g" x1="0" x2="1" y1="0" y2="0" gradientTransform="matrix(15 14 -14 14 199 40)" gradientUnits="userSpaceOnUse"><stop offset="0" stop-color="#fcf8f5"/><stop offset=".1" stop-color="#d4d4d4"/><stop offset=".2" stop-color="#f3eee9"/><stop offset=".2" stop-color="#d4d4d4"/><stop offset=".3" stop-color="#f3eee9"/><stop offset=".4" stop-color="#d4d4d4"/><stop offset=".5" stop-color="#f3eee9"/><stop offset=".6" stop-color="#d4d4d4"/><stop offset=".7" stop-color="#f3eee9"/><stop offset=".7" stop-color="#d4d4d4"/><stop offset=".8" stop-color="#f3eee9"/><stop offset=".9" stop-color="#d4d4d4"/><stop offset="1" stop-color="#f3eee9"/></linearGradient><linearGradient id="h" x1="0" x2="1" y1="0" y2="0" gradientTransform="matrix(31 0 0 31 176 174)" gradientUnits="userSpaceOnUse"><stop offset="0" stop-color="#b79d69"/><stop offset=".1" stop-color="#e0c286"/><stop offset=".8" stop-color="#ddbf83"/><stop offset="1" stop-color="#b79d69"/></linearGradient><linearGradient id="i" x1="0" x2="1" y1="0" y2="0" gradientTransform="matrix(15 11 -12 13 236 55)" gradientUnits="userSpaceOnUse"><stop offset="0" stop-color="#fcf8f5"/><stop offset=".1" stop-color="#d4d4d4"/><stop offset=".2" stop-color="#f3eee9"/><stop offset=".2" stop-color="#d4d4d4"/><stop offset=".3" stop-color="#f3eee9"/><stop offset=".4" stop-color="#d4d4d4"/><stop offset=".5" stop-color="#f3eee9"/><stop offset=".6" stop-color="#d4d4d4"/><stop offset=".7" stop-color="#f3eee9"/><stop offset=".7" stop-color="#d4d4d4"/><stop offset=".8" stop-color="#f3eee9"/><stop offset=".9" stop-color="#d4d4d4"/><stop offset="1" stop-color="#f3eee9"/></linearGradient><linearGradient id="j" x1="0" x2="1" y1="0" y2="0" gradientTransform="matrix(29 0 0 28 215 180)" gradientUnits="userSpaceOnUse"><stop offset="0" stop-color="#597dac"/><stop offset=".1" stop-color="#7897bf"/><stop offset=".8" stop-color="#809cc2"/><stop offset="1" stop-color="#597dac"/></linearGradient><linearGradient id="k" x1="0" x2="1" y1="0" y2="0" gradientTransform="matrix(19 12 -13 18 269 16)" gradientUnits="userSpaceOnUse"><stop offset="0" stop-color="#fcf8f5"/><stop offset=".1" stop-color="#d4d4d4"/><stop offset=".2" stop-color="#f3eee9"/><stop offset=".3" stop-color="#d4d4d4"/><stop offset=".3" stop-color="#f3eee9"/><stop offset=".4" stop-color="#d4d4d4"/><stop offset=".5" stop-color="#f3eee9"/><stop offset=".6" stop-color="#d4d4d4"/><stop offset=".7" stop-color="#f3eee9"/><stop offset=".8" stop-color="#d4d4d4"/><stop offset=".8" stop-color="#f3eee9"/><stop offset=".9" stop-color="#d4d4d4"/><stop offset="1" stop-color="#f3eee9"/></linearGradient><linearGradient id="l" x1="0" x2="1" y1="0" y2="0" gradientTransform="matrix(37 0 0 40 250 159)" gradientUnits="userSpaceOnUse"><stop offset="0" stop-color="#886b64"/><stop offset=".1" stop-color="#a99590"/><stop offset=".8" stop-color="#b1918a"/><stop offset="1" stop-color="#886b64"/></linearGradient><linearGradient id="m" x1="0" x2="1" y1="0" y2="0" gradientTransform="matrix(14 13 -9 17 304 47)" gradientUnits="userSpaceOnUse"><stop offset="0" stop-color="#fcf8f5"/><stop offset=".1" stop-color="#d4d4d4"/><stop offset=".2" stop-color="#f3eee9"/><stop offset=".3" stop-color="#d4d4d4"/><stop offset=".3" stop-color="#f3eee9"/><stop offset=".4" stop-color="#d4d4d4"/><stop offset=".5" stop-color="#f3eee9"/><stop offset=".6" stop-color="#d4d4d4"/><stop offset=".7" stop-color="#f3eee9"/><stop offset=".8" stop-color="#d4d4d4"/><stop offset=".8" stop-color="#f3eee9"/><stop offset=".9" stop-color="#d4d4d4"/><stop offset="1" stop-color="#f3eee9"/></linearGradient><linearGradient id="n" x1="0" x2="1" y1="0" y2="0" gradientTransform="matrix(31 -6 4 31 299 167)" gradientUnits="userSpaceOnUse"><stop offset="0" stop-color="#b480a3"/><stop offset=".1" stop-color="#cea3c0"/><stop offset=".7" stop-color="#ca9dbc"/><stop offset="1" stop-color="#a86793"/></linearGradient></defs><g vectornator:layerName="Layer 1"><g vectornator:layerName="Group 2"><path vectornator:layerName="Curve 3" fill="#507160" d="m41 41 22-17-1 236-21 21V41Z"/><path vectornator:layerName="Curve 4" fill="url(#a)" d="m44 45 9 3c9 3 21-3 21-3l11-5 14-12-36 1-19 16Z"/><path vectornator:layerName="Curve 37" fill="#707070" fill-opacity=".5" d="m41 43 37-1c4-1 19-14 19-14h2L81 44H41v-1Z"/><path vectornator:layerName="Curve 5" fill="#658b78" d="m81 41 22-16-1 235-21 21V41Z"/><path vectornator:layerName="Curve 6" fill="url(#b)" d="M41 41v240s1 3 5 4c7 3 23 2 29 1s6-5 6-5V41s-1 2-4 2H44c-3 0-3-2-3-2Z"/></g><path vectornator:layerName="Curve 7" fill="#464342" fill-opacity=".3" d="m112 72-29 9-5 199 3 2 4 2 28-25-1-187Z"/><g vectornator:layerName="Group 1"><path vectornator:layerName="Curve 8" fill="#547781" d="m83 81 20-15-1 200-18 16-1-201Z"/><path vectornator:layerName="Curve 9" fill="url(#c)" d="M85 83s2 2 10 4c9 2 20-1 22-2 4-1 6-4 6-4l15-11h-36L85 83Z"/><path vectornator:layerName="Curve 38" fill="#707070" fill-opacity=".5" d="M83 84v-3s0 2 2 2h33c4-1 17-13 17-13h3l-18 16-37-2Z"/><path vectornator:layerName="Curve 10" fill="#6d97a3" d="m123 81 19-15v200l-18 16-1-201Z"/><path vectornator:layerName="Curve 11" fill="url(#d)" d="m83 81 1 201s-1 1 1 2c5 2 25 4 33 2 5-1 6-4 6-4l-1-201-5 3c-2 1-29 0-33-1-2 0-2-2-2-2Z"/></g><path vectornator:layerName="Curve 12" fill="#464342" fill-opacity=".3" d="m157 70-25-5-8 212 10 7 22-24 1-190Z"/><g vectornator:layerName="Group 3"><path vectornator:layerName="Curve 13" fill="#925454" d="m132 65 19-17-1 217-18 17V65Z"/><path vectornator:layerName="Curve 14" fill="url(#e)" d="m134 67 7 2c10 2 24 0 26 0l5-4 14-13-35 1-17 14Z"/><path vectornator:layerName="Curve 39" fill="#707070" fill-opacity=".5" d="M133 66s30 1 34-1l16-13h3l-18 16-34 1-1-3Z"/><path vectornator:layerName="Curve 15" fill="#be7373" d="m172 65 19-17-1 217-18 17V65Z"/><path vectornator:layerName="Curve 16" fill="url(#f)" d="M132 65v217l4 3c9 3 22 3 31 1 5-1 5-4 5-4V65l-5 2h-33l-2-2Z"/></g><path vectornator:layerName="Curve 17" fill="#464342" fill-opacity=".3" d="m206 60-30-3-9 225 11 4 27-11 1-215Z"/><g vectornator:layerName="Group 4"><path vectornator:layerName="Curve 18" fill="#988153" d="m176 57 18-17v228l-18 15V57Z"/><path vectornator:layerName="Curve 19" fill="url(#g)" d="m178 60 8 3h10c4 0 10-4 10-4l15-14h-27l-16 15Z"/><path vectornator:layerName="Curve 40" fill="#707070" fill-opacity=".5" d="M177 59s20 2 26-1c3-1 15-13 15-13h4l-16 17-29-2v-1Z"/><path vectornator:layerName="Curve 20" fill="url(#h)" d="M176 57v226l1 2c4 3 20 3 27 1l3-2V58s-1 2-4 2c-6 1-19 1-25-1-2 0-2-2-2-2Z"/><path vectornator:layerName="Curve 21" fill="#b79d69" d="m207 58 18-17v227l-18 16V58Z"/></g><path vectornator:layerName="Curve 22" fill="#464342" fill-opacity=".3" d="m222 67-8 4-7 209 10 5 5-6V67Z"/><g vectornator:layerName="Group 5"><path vectornator:layerName="Curve 23" fill="#3c5b84" d="m215 71 15-16v209l-15 17V71Z"/><path vectornator:layerName="Curve 24" fill="url(#i)" d="m216 74 9 3h9c6 0 10-4 10-4l12-13h-26l-14 14Z"/><path vectornator:layerName="Curve 41" fill="#707070" fill-opacity=".5" d="m215 73 4 1h21c5-1 13-14 13-14h7l-15 18-29-3-1-2Z"/><path vectornator:layerName="Curve 25" fill="#597dac" d="m244 73 15-18-1 211-14 17V73Z"/><path vectornator:layerName="Curve 26" fill="url(#j)" d="M215 71v211s0 2 2 3c6 2 20 2 24 1l3-3V73s-1 2-3 2c-6 1-18 1-24-1-2 0-2-3-2-3Z"/></g><path vectornator:layerName="Curve 27" fill="#464342" fill-opacity=".3" d="m270 49-19-1-8 228 9 8 28-16-10-219Z"/><g vectornator:layerName="Group 6"><path vectornator:layerName="Curve 28" fill="#6f5650" d="m251 31 15-21v250l-16 22 1-251Z"/><path vectornator:layerName="Curve 30" fill="url(#k)" d="M254 36s0 2 9 2c7 0 10 1 17-2 6-3 7-6 7-6l11-13-32 1-12 18Z"/><path vectornator:layerName="Curve 42" fill="#707070" fill-opacity=".5" d="M252 34s24 1 29-1c5-3 14-16 14-16h8l-15 17-34 3-2-3Z"/><path vectornator:layerName="Curve 29" fill="#886b64" d="m287 30 16-20v250l-16 20V30Z"/><path vectornator:layerName="Curve 31" fill="url(#l)" d="m251 31-1 251 4 2c7 3 21 2 27 1 5-1 6-5 6-5V30s-1 3-4 4c-8 1-21 2-29 0-4-1-3-3-3-3Z"/></g><path vectornator:layerName="Curve 32" fill="#464342" fill-opacity=".3" d="m298 59-11 10 11 200 18 18 7-22-25-206Z"/><g vectornator:layerName="Group 7"><path vectornator:layerName="Curve 33" fill="#8f547c" d="m287 69 13-26 26 211-13 30-26-215Z"/><path vectornator:layerName="Curve 34" fill="url(#m)" d="M291 71s-3 2 7 1c18-1 20-10 20-10l9-18-26 7-10 20Z"/><path vectornator:layerName="Curve 43" fill="#707070" fill-opacity=".5" d="M288 71s16-2 24-6c5-4 11-20 11-20l7-2-14 26-25 6-3-4Z"/><path vectornator:layerName="Curve 35" fill="#a86793" d="m317 63 8-16 6-10 28 220-15 24-27-218Z"/><path vectornator:layerName="Curve 36" fill="url(#n)" d="m287 69 26 215s-1 1 2 3c6 2 20 1 26-3l3-3-26-218s-2 3-5 4c-5 2-16 4-22 4-4 0-4-2-4-2Z"/></g></g></svg>