<?xml version="1.0" encoding="UTF-8" standalone="no"?>
<!DOCTYPE svg PUBLIC "-//W3C//DTD SVG 1.1//EN" "http://www.w3.org/Graphics/SVG/1.1/DTD/svg11.dtd">
<!-- Created with Vectornator (http://vectornator.io/) -->
<svg height="100%" stroke-miterlimit="10" style="fill-rule:nonzero;clip-rule:evenodd;stroke-linecap:round;stroke-linejoin:round;" version="1.1" viewBox="0 0 400 300" width="100%" xml:space="preserve" xmlns="http://www.w3.org/2000/svg" xmlns:vectornator="http://vectornator.io" xmlns:xlink="http://www.w3.org/1999/xlink">
<defs>
<linearGradient gradientTransform="matrix(13.8963 16.0742 -16.0742 13.8963 69.867 24.1776)" gradientUnits="userSpaceOnUse" id="LinearGradient" x1="0" x2="1" y1="0" y2="0">
<stop offset="0" stop-color="#fcf8f5"/>
<stop offset="0.0850112" stop-color="#d4d4d4"/>
<stop offset="0.161074" stop-color="#f3eee9"/>
<stop offset="0.223714" stop-color="#d4d4d4"/>
<stop offset="0.322148" stop-color="#f3eee9"/>
<stop offset="0.407159" stop-color="#d4d4d4"/>
<stop offset="0.497571" stop-color="#f3eee9"/>
<stop offset="0.574944" stop-color="#d4d4d4"/>
<stop offset="0.658505" stop-color="#f3eee9"/>
<stop offset="0.737259" stop-color="#d4d4d4"/>
<stop offset="0.81832" stop-color="#f3eee9"/>
<stop offset="0.898962" stop-color="#d4d4d4"/>
<stop offset="0.97623" stop-color="#f3eee9"/>
</linearGradient>
<linearGradient gradientTransform="matrix(40 0 0 40 41.493 165.993)" gradientUnits="userSpaceOnUse" id="LinearGradient_2" x1="0" x2="1" y1="0" y2="0">
<stop offset="0" stop-color="#658b78"/>
<stop offset="0.31875" stop-color="#94bca8"/>
<stop offset="1" stop-color="#658b78"/>
</linearGradient>
<linearGradient gradientTransform="matrix(18.278 14.8231 -17.7266 15.2842 107.345 65.2054)" gradientUnits="userSpaceOnUse" id="LinearGradient_3" x1="0" x2="1" y1="0" y2="0">
<stop offset="0" stop-color="#fcf8f5"/>
<stop offset="0.0850112" stop-color="#d4d4d4"/>
<stop offset="0.161074" stop-color="#f3eee9"/>
<stop offset="0.223714" stop-color="#d4d4d4"/>
<stop offset="0.322148" stop-color="#f3eee9"/>
<stop offset="0.407159" stop-color="#d4d4d4"/>
<stop offset="0.497571" stop-color="#f3eee9"/>
<stop offset="0.574944" stop-color="#d4d4d4"/>
<stop offset="0.658505" stop-color="#f3eee9"/>
<stop offset="0.737259" stop-color="#d4d4d4"/>
<stop offset="0.81832" stop-color="#f3eee9"/>
<stop offset="0.898962" stop-color="#d4d4d4"/>
<stop offset="0.97623" stop-color="#f3eee9"/>
</linearGradient>
<linearGradient gradientTransform="matrix(40.1174 -2.84217e-14 0 40.1174 83.411 185.046)" gradientUnits="userSpaceOnUse" id="LinearGradient_4" x1="0" x2="1" y1="0" y2="0">
<stop offset="0" stop-color="#6d97a3"/>
<stop offset="0.317673" stop-color="#9ec0ca"/>
<stop offset="1" stop-color="#6d97a3"/>
</linearGradient>
<linearGradient gradientTransform="matrix(18.278 16.0715 -17.7266 16.5714 155.57 47.3942)" gradientUnits="userSpaceOnUse" id="LinearGradient_5" x1="0" x2="1" y1="0" y2="0">
<stop offset="0" stop-color="#fcf8f5"/>
<stop offset="0.0850112" stop-color="#d4d4d4"/>
<stop offset="0.161074" stop-color="#f3eee9"/>
<stop offset="0.223714" stop-color="#d4d4d4"/>
<stop offset="0.322148" stop-color="#f3eee9"/>
<stop offset="0.407159" stop-color="#d4d4d4"/>
<stop offset="0.497571" stop-color="#f3eee9"/>
<stop offset="0.574944" stop-color="#d4d4d4"/>
<stop offset="0.658505" stop-color="#f3eee9"/>
<stop offset="0.737259" stop-color="#d4d4d4"/>
<stop offset="0.81832" stop-color="#f3eee9"/>
<stop offset="0.898962" stop-color="#d4d4d4"/>
<stop offset="0.97623" stop-color="#f3eee9"/>
</linearGradient>
<linearGradient gradientTransform="matrix(40.1174 8.52651e-14 0 40.1174 131.636 177.327)" gradientUnits="userSpaceOnUse" id="LinearGradient_6" x1="0" x2="1" y1="0" y2="0">
<stop offset="0" stop-color="#be7373"/>
<stop offset="0.317673" stop-color="#dc9d9d"/>
<stop offset="1" stop-color="#be7373"/>
</linearGradient>
<linearGradient gradientTransform="matrix(14.8944 13.609 -14.4756 14.0027 199.03 39.6992)" gradientUnits="userSpaceOnUse" id="LinearGradient_7" x1="0" x2="1" y1="0" y2="0">
<stop offset="0" stop-color="#fcf8f5"/>
<stop offset="0.0850112" stop-color="#d4d4d4"/>
<stop offset="0.161074" stop-color="#f3eee9"/>
<stop offset="0.223714" stop-color="#d4d4d4"/>
<stop offset="0.322148" stop-color="#f3eee9"/>
<stop offset="0.407159" stop-color="#d4d4d4"/>
<stop offset="0.497571" stop-color="#f3eee9"/>
<stop offset="0.574944" stop-color="#d4d4d4"/>
<stop offset="0.658505" stop-color="#f3eee9"/>
<stop offset="0.737259" stop-color="#d4d4d4"/>
<stop offset="0.81832" stop-color="#f3eee9"/>
<stop offset="0.898962" stop-color="#d4d4d4"/>
<stop offset="0.97623" stop-color="#f3eee9"/>
</linearGradient>
<linearGradient gradientTransform="matrix(30.6616 -0.265772 0.300697 30.6616 175.836 173.847)" gradientUnits="userSpaceOnUse" id="LinearGradient_8" x1="0" x2="1" y1="0" y2="0">
<stop offset="0" stop-color="#b79d69"/>
<stop offset="0.317673" stop-color="#eed6a6"/>
<stop offset="1" stop-color="#b79d69"/>
</linearGradient>
<linearGradient gradientTransform="matrix(14.827 10.7452 -12.2086 13.0498 234.567 54.9344)" gradientUnits="userSpaceOnUse" id="LinearGradient_9" x1="0" x2="1" y1="0" y2="0">
<stop offset="0" stop-color="#fcf8f5"/>
<stop offset="0.0850112" stop-color="#d4d4d4"/>
<stop offset="0.161074" stop-color="#f3eee9"/>
<stop offset="0.223714" stop-color="#d4d4d4"/>
<stop offset="0.322148" stop-color="#f3eee9"/>
<stop offset="0.407159" stop-color="#d4d4d4"/>
<stop offset="0.497571" stop-color="#f3eee9"/>
<stop offset="0.574944" stop-color="#d4d4d4"/>
<stop offset="0.658505" stop-color="#f3eee9"/>
<stop offset="0.737259" stop-color="#d4d4d4"/>
<stop offset="0.81832" stop-color="#f3eee9"/>
<stop offset="0.898962" stop-color="#d4d4d4"/>
<stop offset="0.97623" stop-color="#f3eee9"/>
</linearGradient>
<linearGradient gradientTransform="matrix(29.4259 -5.68434e-14 2.84217e-14 27.548 213.797 180.242)" gradientUnits="userSpaceOnUse" id="LinearGradient_10" x1="0" x2="1" y1="0" y2="0">
<stop offset="0" stop-color="#597dac"/>
<stop offset="0.317673" stop-color="#a5c3ea"/>
<stop offset="1" stop-color="#597dac"/>
</linearGradient>
<linearGradient gradientTransform="matrix(18.8495 11.9906 -12.7203 17.7682 269.275 15.8866)" gradientUnits="userSpaceOnUse" id="LinearGradient_11" x1="0" x2="1" y1="0" y2="0">
<stop offset="0" stop-color="#fcf8f5"/>
<stop offset="0.0833333" stop-color="#d4d4d4"/>
<stop offset="0.166667" stop-color="#f3eee9"/>
<stop offset="0.25" stop-color="#d4d4d4"/>
<stop offset="0.333333" stop-color="#f3eee9"/>
<stop offset="0.416667" stop-color="#d4d4d4"/>
<stop offset="0.5" stop-color="#f3eee9"/>
<stop offset="0.583333" stop-color="#d4d4d4"/>
<stop offset="0.666667" stop-color="#f3eee9"/>
<stop offset="0.75" stop-color="#d4d4d4"/>
<stop offset="0.833333" stop-color="#f3eee9"/>
<stop offset="0.916667" stop-color="#d4d4d4"/>
<stop offset="1" stop-color="#f3eee9"/>
</linearGradient>
<linearGradient gradientTransform="matrix(37.281 -1.13687e-13 0 39.9283 250.038 159.512)" gradientUnits="userSpaceOnUse" id="LinearGradient_12" x1="0" x2="1" y1="0" y2="0">
<stop offset="0" stop-color="#886b64"/>
<stop offset="0.317673" stop-color="#bfaaa5"/>
<stop offset="1" stop-color="#886b64"/>
</linearGradient>
<linearGradient gradientTransform="matrix(13.6754 13.4637 -9.44079 17.0654 304.028 47.1522)" gradientUnits="userSpaceOnUse" id="LinearGradient_13" x1="0" x2="1" y1="0" y2="0">
<stop offset="0" stop-color="#fcf8f5"/>
<stop offset="0.0833333" stop-color="#d4d4d4"/>
<stop offset="0.166667" stop-color="#f3eee9"/>
<stop offset="0.25" stop-color="#d4d4d4"/>
<stop offset="0.333333" stop-color="#f3eee9"/>
<stop offset="0.416667" stop-color="#d4d4d4"/>
<stop offset="0.5" stop-color="#f3eee9"/>
<stop offset="0.583333" stop-color="#d4d4d4"/>
<stop offset="0.666667" stop-color="#f3eee9"/>
<stop offset="0.75" stop-color="#d4d4d4"/>
<stop offset="0.833333" stop-color="#f3eee9"/>
<stop offset="0.916667" stop-color="#d4d4d4"/>
<stop offset="1" stop-color="#f3eee9"/>
</linearGradient>
<linearGradient gradientTransform="matrix(36.7274 -7.61342 4.44956 37.4689 293.413 168.063)" gradientUnits="userSpaceOnUse" id="LinearGradient_14" x1="0" x2="1" y1="0" y2="0">
<stop offset="0" stop-color="#a86793"/>
<stop offset="0.289583" stop-color="#cea3c0"/>
<stop offset="1" stop-color="#a86793"/>
</linearGradient>
</defs>
<g id="Layer-1" vectornator:layerName="Layer 1">
<path d="M41.493 40.275L63.086 23.37L61.604 258.771L41.493 281.165L41.493 40.275Z" fill="#658b78" fill-rule="nonzero" opacity="1" stroke="none" vectornator:layerName="Curve 3"/>
<path d="M44.3662 44.9105C44.3662 44.9105 44.9786 46.0965 52.7193 48.5305C62.27 51.5337 73.687 45.7095 73.687 45.7095L84.997 39.9962L99.129 27.9607L63.051 28.998L44.3662 44.9105Z" fill="url(#LinearGradient)" fill-rule="nonzero" opacity="1" stroke="none" vectornator:layerName="Curve 4"/>
<path d="M81.493 41.5823L103.086 24.8624L101.604 260.263L81.493 281.583L81.493 41.5823Z" fill="#658b78" fill-rule="nonzero" opacity="1" stroke="none" vectornator:layerName="Curve 5"/>
<path d="M41.493 41.5823L41.493 281.583C41.493 281.583 42.786 286.357 52.2453 289.601C63.79 293.56 81.493 281.583 81.493 281.583L81.493 41.5823C81.493 41.5823 66.234 51.9379 52.7193 48.5305C43.0227 46.0856 41.493 41.5823 41.493 41.5823Z" fill="url(#LinearGradient_2)" fill-rule="nonzero" opacity="1" stroke="none" vectornator:layerName="Curve 6"/>
<path d="M112.049 71.771L83.411 81.0239L77.99 280.338L94.285 288.415L113.081 258.879L112.049 71.771Z" fill="#464342" fill-opacity="0.298126" fill-rule="nonzero" opacity="1" stroke="none" vectornator:layerName="Curve 7"/>
<path d="M83.466 80.8155L102.534 65.9113L102.213 265.547L83.583 281.506L83.466 80.8155Z" fill="#6d97a3" fill-rule="nonzero" opacity="1" stroke="none" vectornator:layerName="Curve 8"/>
<path d="M85.397 83.1673C85.397 83.1673 86.899 84.7974 94.641 86.8295C104.194 89.3369 111.753 85.6992 113.656 85.127C117.864 83.8617 123.411 81.0076 123.411 81.0076L137.836 69.7329L102.325 70.3558L85.397 83.1673Z" fill="url(#LinearGradient_3)" fill-rule="nonzero" opacity="1" stroke="none" vectornator:layerName="Curve 9"/>
<path d="M123.411 81.0076L142.48 66.1034L142.159 265.739L123.529 281.698L123.411 81.0076Z" fill="#6d97a3" fill-rule="nonzero" opacity="1" stroke="none" vectornator:layerName="Curve 10"/>
<path d="M83.411 81.0239L83.529 281.714C83.529 281.714 84.824 285.707 94.285 288.415C105.832 291.721 123.529 281.698 123.529 281.698L123.411 81.0076C123.411 81.0076 108.157 89.6733 94.641 86.8295C84.943 84.7891 83.411 81.0239 83.411 81.0239Z" fill="url(#LinearGradient_4)" fill-rule="nonzero" opacity="1" stroke="none" vectornator:layerName="Curve 11"/>
<path d="M156.66 70.4997L131.636 64.5449L123.529 281.698L142.509 289.401L156.363 260.329L156.66 70.4997Z" fill="#464342" fill-opacity="0.298126" fill-rule="nonzero" opacity="1" stroke="none" vectornator:layerName="Curve 12"/>
<path d="M131.69 64.4408L150.759 48.2815L150.437 264.729L131.807 282.032L131.69 64.4408Z" fill="#be7373" fill-rule="nonzero" opacity="1" stroke="none" vectornator:layerName="Curve 13"/>
<path d="M133.622 66.8687C133.622 66.8687 135.124 68.6361 142.865 70.8393C152.418 73.5579 159.978 69.6139 161.881 68.9934C166.088 67.6216 171.636 64.5271 171.636 64.5271L186.061 52.3029L150.728 52.9749L133.622 66.8687Z" fill="url(#LinearGradient_5)" fill-rule="nonzero" opacity="1" stroke="none" vectornator:layerName="Curve 14"/>
<path d="M171.636 64.5271L190.704 48.3678L190.383 264.816L171.753 282.119L171.636 64.5271Z" fill="#be7373" fill-rule="nonzero" opacity="1" stroke="none" vectornator:layerName="Curve 15"/>
<path d="M131.636 64.5449L131.753 282.136C131.753 282.136 133.048 286.465 142.509 289.401C154.056 292.985 171.753 282.119 171.753 282.119L171.636 64.5271C171.636 64.5271 156.382 73.9226 142.865 70.8393C133.168 68.6271 131.636 64.5449 131.636 64.5449Z" fill="url(#LinearGradient_6)" fill-rule="nonzero" opacity="1" stroke="none" vectornator:layerName="Curve 16"/>
<path d="M206.081 59.5103L175.836 56.8973L166.602 281.793L186.71 290.064L205.026 275.032L206.081 59.5103Z" fill="#464342" fill-opacity="0.298126" fill-rule="nonzero" opacity="1" stroke="none" vectornator:layerName="Curve 17"/>
<path d="M175.89 57.1568L193.803 39.7447L193.881 267.518L176.008 282.79L175.89 57.1568Z" fill="#b79d69" fill-rule="nonzero" opacity="1" stroke="none" vectornator:layerName="Curve 18"/>
<path d="M178.386 59.8195C178.386 59.8195 178.061 61.1901 185.897 63.1278C189.926 64.1241 192.162 63.6222 195.899 63.2624C200.32 62.8367 205.939 59.2705 205.939 59.2705L220.697 44.8317L193.846 44.7882L178.386 59.8195Z" fill="url(#LinearGradient_7)" fill-rule="nonzero" opacity="1" stroke="none" vectornator:layerName="Curve 19"/>
<path d="M175.836 56.8973L175.954 282.53C175.954 282.53 177 287.941 186.71 290.064C196.142 292.125 207.324 283.578 207.324 283.578L207.207 57.9455C207.207 57.9455 197.374 65.7075 187.066 63.4244C177.336 61.2695 175.836 56.8973 175.836 56.8973Z" fill="url(#LinearGradient_8)" fill-rule="nonzero" opacity="1" stroke="none" vectornator:layerName="Curve 20"/>
<path d="M207.207 57.9455L225.119 40.5333L225.197 268.307L207.324 283.578L207.207 57.9455Z" fill="#b79d69" fill-rule="nonzero" opacity="1" stroke="none" vectornator:layerName="Curve 21"/>
<path d="M222.223 66.8071L213.797 71.0962L207.322 279.913L220.138 288.261L221.971 279.414L222.223 66.8071Z" fill="#464342" fill-opacity="0.298126" fill-rule="nonzero" opacity="1" stroke="none" vectornator:layerName="Curve 22"/>
<path d="M213.851 71.053L228.987 55.4641L228.752 264.294L213.965 280.986L213.851 71.053Z" fill="#597dac" fill-rule="nonzero" opacity="1" stroke="none" vectornator:layerName="Curve 23"/>
<path d="M215.783 73.3521C215.783 73.3521 216.022 75.1149 223.858 76.929C227.887 77.8617 228.994 77.7103 232.722 77.2971C239.405 76.5566 243.223 72.5531 243.223 72.5531L255.123 60.1527L228.984 59.9358L215.783 73.3521Z" fill="url(#LinearGradient_9)" fill-rule="nonzero" opacity="1" stroke="none" vectornator:layerName="Curve 24"/>
<path d="M242.58 73.0716L257.632 55.5026L257.481 266.312L242.694 283.005L242.58 73.0716Z" fill="#597dac" fill-rule="nonzero" opacity="1" stroke="none" vectornator:layerName="Curve 25"/>
<path d="M213.797 71.0962L213.915 282.329C213.915 282.329 217.687 289.226 224.671 289.382C235.16 289.615 242.694 283.005 242.694 283.005L243.223 72.5531C243.223 72.5531 235.335 79.3441 225.027 77.2067C215.297 75.1893 213.797 71.0962 213.797 71.0962Z" fill="url(#LinearGradient_10)" fill-rule="nonzero" opacity="1" stroke="none" vectornator:layerName="Curve 26"/>
<path d="M270.38 49.2294L250.987 47.7569L242.711 276.286L255.023 285.8L279.732 268.152L270.38 49.2294Z" fill="#464342" fill-opacity="0.298126" fill-rule="nonzero" opacity="1" stroke="none" vectornator:layerName="Curve 27"/>
<path d="M250.987 30.6486L266.404 9.90722L266.357 259.823L250.089 280.183L250.987 30.6486Z" fill="#886b64" fill-rule="nonzero" opacity="1" stroke="none" vectornator:layerName="Curve 28"/>
<path d="M285.75 31.8083L302.736 9.59692L302.69 259.513L286.443 280.038L285.75 31.8083Z" fill="#886b64" fill-rule="nonzero" opacity="1" stroke="none" vectornator:layerName="Curve 29"/>
<path d="M253.987 35.5627C253.987 35.5627 254.343 39.2673 262.179 41.2102C266.208 42.2091 266.637 43.1298 272.922 40.4118C279.207 37.6939 287.319 30.3383 287.319 30.3383L297.524 16.6094L266.402 17.542L253.987 35.5627Z" fill="url(#LinearGradient_11)" fill-rule="nonzero" opacity="1" stroke="none" vectornator:layerName="Curve 30"/>
<path d="M250.987 30.6486L250.038 281.621C250.038 281.621 253.782 287.904 263.329 287.243C272.876 286.582 286.443 280.038 286.443 280.038L287.319 30.3383C287.319 30.3383 275.864 37.0031 266.399 37.286C256.934 37.5689 250.987 30.6486 250.987 30.6486Z" fill="url(#LinearGradient_12)" fill-rule="nonzero" opacity="1" stroke="none" vectornator:layerName="Curve 31"/>
<path d="M298.178 59.0459L286.845 68.7722L297.937 268.791L315.583 286.697L323.112 265.091L298.178 59.0459Z" fill="#464342" fill-opacity="0.298126" fill-rule="nonzero" opacity="1" stroke="none" vectornator:layerName="Curve 32"/>
<path d="M286.845 68.7722L299.75 43.4232L326.342 253.724L312.708 284.159L286.845 68.7722Z" fill="#a86793" fill-rule="nonzero" opacity="1" stroke="none" vectornator:layerName="Curve 33"/>
<path d="M291.248 70.9647C291.248 70.9647 288.187 73.1842 298.299 72.4032C315.667 71.0616 317.728 62.0401 317.728 62.0401L326.703 44.4103L300.732 51.191L291.248 70.9647Z" fill="url(#LinearGradient_13)" fill-rule="nonzero" opacity="1" stroke="none" vectornator:layerName="Curve 34"/>
<path d="M315.87 65.1194L330.632 36.6912L358.507 257.134L344.075 280.578L315.87 65.1194Z" fill="#a86793" fill-rule="nonzero" opacity="1" stroke="none" vectornator:layerName="Curve 35"/>
<path d="M286.845 68.7722L312.708 284.159C312.708 284.159 316.449 289.196 324.341 289.265C335.519 289.362 344.075 280.578 344.075 280.578L317.728 62.0401C317.728 62.0401 315.45 70.5976 298.299 72.4032C290.989 73.1728 286.845 68.7722 286.845 68.7722Z" fill="url(#LinearGradient_14)" fill-rule="nonzero" opacity="1" stroke="none" vectornator:layerName="Curve 36"/>
</g>
</svg>
