<?xml version="1.0" encoding="UTF-8" standalone="no"?>
<!DOCTYPE svg PUBLIC "-//W3C//DTD SVG 1.1//EN" "http://www.w3.org/Graphics/SVG/1.1/DTD/svg11.dtd">
<!-- Created with Vectornator (http://vectornator.io/) -->
<svg height="100%" stroke-miterlimit="10" style="fill-rule:nonzero;clip-rule:evenodd;stroke-linecap:round;stroke-linejoin:round;" version="1.1" viewBox="0 0 330 300" width="100%" xml:space="preserve" xmlns="http://www.w3.org/2000/svg" xmlns:vectornator="http://vectornator.io" xmlns:xlink="http://www.w3.org/1999/xlink">
<defs>
<linearGradient gradientTransform="matrix(13.8963 16.0742 -16.0742 13.8963 34.8109 31.0486)" gradientUnits="userSpaceOnUse" id="LinearGradient" x1="0" x2="1" y1="0" y2="0">
<stop offset="0" stop-color="#fcf8f5"/>
<stop offset="0.0850112" stop-color="#d4d4d4"/>
<stop offset="0.161074" stop-color="#f3eee9"/>
<stop offset="0.223714" stop-color="#d4d4d4"/>
<stop offset="0.322148" stop-color="#f3eee9"/>
<stop offset="0.407159" stop-color="#d4d4d4"/>
<stop offset="0.497571" stop-color="#f3eee9"/>
<stop offset="0.574944" stop-color="#d4d4d4"/>
<stop offset="0.658505" stop-color="#f3eee9"/>
<stop offset="0.737259" stop-color="#d4d4d4"/>
<stop offset="0.81832" stop-color="#f3eee9"/>
<stop offset="0.898962" stop-color="#d4d4d4"/>
<stop offset="0.97623" stop-color="#f3eee9"/>
</linearGradient>
<linearGradient gradientTransform="matrix(40 0 0 40 6.4369 172.927)" gradientUnits="userSpaceOnUse" id="LinearGradient_2" x1="0" x2="1" y1="0" y2="0">
<stop offset="0" stop-color="#658b78"/>
<stop offset="0.14447" stop-color="#94bca8"/>
<stop offset="0.823126" stop-color="#8eb5a1"/>
<stop offset="1" stop-color="#658b78"/>
</linearGradient>
<linearGradient gradientTransform="matrix(18.278 14.8231 -17.7266 15.2842 72.2889 72.3352)" gradientUnits="userSpaceOnUse" id="LinearGradient_3" x1="0" x2="1" y1="0" y2="0">
<stop offset="0" stop-color="#fcf8f5"/>
<stop offset="0.0850112" stop-color="#d4d4d4"/>
<stop offset="0.161074" stop-color="#f3eee9"/>
<stop offset="0.223714" stop-color="#d4d4d4"/>
<stop offset="0.322148" stop-color="#f3eee9"/>
<stop offset="0.407159" stop-color="#d4d4d4"/>
<stop offset="0.497571" stop-color="#f3eee9"/>
<stop offset="0.574944" stop-color="#d4d4d4"/>
<stop offset="0.658505" stop-color="#f3eee9"/>
<stop offset="0.737259" stop-color="#d4d4d4"/>
<stop offset="0.81832" stop-color="#f3eee9"/>
<stop offset="0.898962" stop-color="#d4d4d4"/>
<stop offset="0.97623" stop-color="#f3eee9"/>
</linearGradient>
<linearGradient gradientTransform="matrix(40.1174 -2.84217e-14 0 40.1174 48.3549 192.175)" gradientUnits="userSpaceOnUse" id="LinearGradient_4" x1="0" x2="1" y1="0" y2="0">
<stop offset="0" stop-color="#6d97a3"/>
<stop offset="0.162035" stop-color="#9ec0ca"/>
<stop offset="0.721721" stop-color="#95b8c3"/>
<stop offset="1" stop-color="#6d97a3"/>
</linearGradient>
<linearGradient gradientTransform="matrix(18.278 16.0715 -17.7266 16.5714 120.514 54.5241)" gradientUnits="userSpaceOnUse" id="LinearGradient_5" x1="0" x2="1" y1="0" y2="0">
<stop offset="0" stop-color="#fcf8f5"/>
<stop offset="0.0850112" stop-color="#d4d4d4"/>
<stop offset="0.161074" stop-color="#f3eee9"/>
<stop offset="0.223714" stop-color="#d4d4d4"/>
<stop offset="0.322148" stop-color="#f3eee9"/>
<stop offset="0.407159" stop-color="#d4d4d4"/>
<stop offset="0.497571" stop-color="#f3eee9"/>
<stop offset="0.574944" stop-color="#d4d4d4"/>
<stop offset="0.658505" stop-color="#f3eee9"/>
<stop offset="0.737259" stop-color="#d4d4d4"/>
<stop offset="0.81832" stop-color="#f3eee9"/>
<stop offset="0.898962" stop-color="#d4d4d4"/>
<stop offset="0.97623" stop-color="#f3eee9"/>
</linearGradient>
<linearGradient gradientTransform="matrix(40.1174 8.52651e-14 0 40.1174 96.5799 184.456)" gradientUnits="userSpaceOnUse" id="LinearGradient_6" x1="0" x2="1" y1="0" y2="0">
<stop offset="0" stop-color="#cf8383"/>
<stop offset="0.12528" stop-color="#d9a9a9"/>
<stop offset="0.778523" stop-color="#d99999"/>
<stop offset="1" stop-color="#be7373"/>
</linearGradient>
<linearGradient gradientTransform="matrix(14.8944 13.609 -14.4756 14.0027 163.974 46.8291)" gradientUnits="userSpaceOnUse" id="LinearGradient_7" x1="0" x2="1" y1="0" y2="0">
<stop offset="0" stop-color="#fcf8f5"/>
<stop offset="0.0850112" stop-color="#d4d4d4"/>
<stop offset="0.161074" stop-color="#f3eee9"/>
<stop offset="0.223714" stop-color="#d4d4d4"/>
<stop offset="0.322148" stop-color="#f3eee9"/>
<stop offset="0.407159" stop-color="#d4d4d4"/>
<stop offset="0.497571" stop-color="#f3eee9"/>
<stop offset="0.574944" stop-color="#d4d4d4"/>
<stop offset="0.658505" stop-color="#f3eee9"/>
<stop offset="0.737259" stop-color="#d4d4d4"/>
<stop offset="0.81832" stop-color="#f3eee9"/>
<stop offset="0.898962" stop-color="#d4d4d4"/>
<stop offset="0.97623" stop-color="#f3eee9"/>
</linearGradient>
<linearGradient gradientTransform="matrix(30.6616 -0.265772 0.300697 30.6616 140.78 180.976)" gradientUnits="userSpaceOnUse" id="LinearGradient_8" x1="0" x2="1" y1="0" y2="0">
<stop offset="0" stop-color="#b79d69"/>
<stop offset="0.12528" stop-color="#e0c286"/>
<stop offset="0.778523" stop-color="#ddbf83"/>
<stop offset="1" stop-color="#b79d69"/>
</linearGradient>
<linearGradient gradientTransform="matrix(14.827 10.7452 -12.2086 13.0498 200.486 62.035)" gradientUnits="userSpaceOnUse" id="LinearGradient_9" x1="0" x2="1" y1="0" y2="0">
<stop offset="0" stop-color="#fcf8f5"/>
<stop offset="0.0850112" stop-color="#d4d4d4"/>
<stop offset="0.161074" stop-color="#f3eee9"/>
<stop offset="0.223714" stop-color="#d4d4d4"/>
<stop offset="0.322148" stop-color="#f3eee9"/>
<stop offset="0.407159" stop-color="#d4d4d4"/>
<stop offset="0.497571" stop-color="#f3eee9"/>
<stop offset="0.574944" stop-color="#d4d4d4"/>
<stop offset="0.658505" stop-color="#f3eee9"/>
<stop offset="0.737259" stop-color="#d4d4d4"/>
<stop offset="0.81832" stop-color="#f3eee9"/>
<stop offset="0.898962" stop-color="#d4d4d4"/>
<stop offset="0.97623" stop-color="#f3eee9"/>
</linearGradient>
<linearGradient gradientTransform="matrix(29.4259 -5.68434e-14 2.84217e-14 27.548 179.716 187.342)" gradientUnits="userSpaceOnUse" id="LinearGradient_10" x1="0" x2="1" y1="0" y2="0">
<stop offset="0" stop-color="#597dac"/>
<stop offset="0.143177" stop-color="#7897bf"/>
<stop offset="0.794883" stop-color="#809cc2"/>
<stop offset="1" stop-color="#597dac"/>
</linearGradient>
<linearGradient gradientTransform="matrix(18.8495 11.9906 -12.7203 17.7682 234.219 23.0165)" gradientUnits="userSpaceOnUse" id="LinearGradient_11" x1="0" x2="1" y1="0" y2="0">
<stop offset="0" stop-color="#fcf8f5"/>
<stop offset="0.0833333" stop-color="#d4d4d4"/>
<stop offset="0.166667" stop-color="#f3eee9"/>
<stop offset="0.25" stop-color="#d4d4d4"/>
<stop offset="0.333333" stop-color="#f3eee9"/>
<stop offset="0.416667" stop-color="#d4d4d4"/>
<stop offset="0.5" stop-color="#f3eee9"/>
<stop offset="0.583333" stop-color="#d4d4d4"/>
<stop offset="0.666667" stop-color="#f3eee9"/>
<stop offset="0.75" stop-color="#d4d4d4"/>
<stop offset="0.833333" stop-color="#f3eee9"/>
<stop offset="0.916667" stop-color="#d4d4d4"/>
<stop offset="1" stop-color="#f3eee9"/>
</linearGradient>
<linearGradient gradientTransform="matrix(37.281 -1.13687e-13 0 39.9283 215.256 166.621)" gradientUnits="userSpaceOnUse" id="LinearGradient_12" x1="0" x2="1" y1="0" y2="0">
<stop offset="0" stop-color="#886b64"/>
<stop offset="0.111857" stop-color="#a99590"/>
<stop offset="0.796421" stop-color="#b1918a"/>
<stop offset="1" stop-color="#886b64"/>
</linearGradient>
<linearGradient gradientTransform="matrix(13.6754 13.4637 -9.44079 17.0654 268.972 54.282)" gradientUnits="userSpaceOnUse" id="LinearGradient_13" x1="0" x2="1" y1="0" y2="0">
<stop offset="0" stop-color="#fcf8f5"/>
<stop offset="0.0833333" stop-color="#d4d4d4"/>
<stop offset="0.166667" stop-color="#f3eee9"/>
<stop offset="0.25" stop-color="#d4d4d4"/>
<stop offset="0.333333" stop-color="#f3eee9"/>
<stop offset="0.416667" stop-color="#d4d4d4"/>
<stop offset="0.5" stop-color="#f3eee9"/>
<stop offset="0.583333" stop-color="#d4d4d4"/>
<stop offset="0.666667" stop-color="#f3eee9"/>
<stop offset="0.75" stop-color="#d4d4d4"/>
<stop offset="0.833333" stop-color="#f3eee9"/>
<stop offset="0.916667" stop-color="#d4d4d4"/>
<stop offset="1" stop-color="#f3eee9"/>
</linearGradient>
<linearGradient gradientTransform="matrix(30.8486 -6.32414 3.66655 31.4653 264.236 173.903)" gradientUnits="userSpaceOnUse" id="LinearGradient_14" x1="0" x2="1" y1="0" y2="0">
<stop offset="0" stop-color="#b480a3"/>
<stop offset="0.147703" stop-color="#cea3c0"/>
<stop offset="0.693023" stop-color="#ca9dbc"/>
<stop offset="1" stop-color="#a86793"/>
</linearGradient>
</defs>
<g id="Layer-1" vectornator:layerName="Layer 1">
<g opacity="1" vectornator:layerName="Group 2">
<path d="M6.43226 48.4533L28.0299 31.241L26.5479 266.642L6.43226 288.454L6.43226 48.4533Z" fill="#507160" fill-rule="nonzero" opacity="1" stroke="none" vectornator:layerName="Curve 3"/>
<path d="M9.3101 51.7815C9.3101 51.7815 9.9225 52.9675 17.6632 55.4015C27.2139 58.4047 38.6309 52.5805 38.6309 52.5805L49.9409 46.8672L64.0729 34.8317L27.9949 35.869L9.3101 51.7815Z" fill="url(#LinearGradient)" fill-rule="nonzero" opacity="1" stroke="none" vectornator:layerName="Curve 4"/>
<path d="M6.43226 50.0762C6.43226 50.0762 38.8602 50.2942 42.9339 49.0762C46.6528 47.9643 61.4794 34.8317 61.4794 34.8317L64.0729 34.8317L46.2138 50.9195L6.43226 51.2813L6.43226 50.0762Z" fill="#707070" fill-opacity="0.507916" fill-rule="nonzero" opacity="1" stroke="none" vectornator:layerName="Curve 37"/>
<path d="M46.4369 48.4533L68.0299 31.7334L66.5479 267.134L46.4369 288.454L46.4369 48.4533Z" fill="#658b78" fill-rule="nonzero" opacity="1" stroke="none" vectornator:layerName="Curve 5"/>
<path d="M6.4369 48.5172L6.4369 288.517C6.4369 288.517 7.26847 290.667 10.4766 291.849C18.4133 294.771 34.1675 294.176 39.7504 293.038C45.9181 291.781 46.4369 288.44 46.4369 288.44L46.4369 48.5172C46.4369 48.5172 44.624 49.8203 41.9339 50.3452C37.0836 51.2916 12.0209 50.3581 9.3101 50.3581C6.1894 50.3581 6.4369 48.5172 6.4369 48.5172Z" fill="url(#LinearGradient_2)" fill-rule="nonzero" opacity="1" stroke="none" vectornator:layerName="Curve 6"/>
</g>
<path d="M76.9929 78.9009L48.3549 88.1538L42.9339 287.467L45.8327 288.951L50.0554 291.111L78.0249 266.008L76.9929 78.9009Z" fill="#464342" fill-opacity="0.298126" fill-rule="nonzero" opacity="1" stroke="none" vectornator:layerName="Curve 7"/>
<g opacity="1" vectornator:layerName="Group 3">
<path d="M48.4099 87.9454L67.4779 73.0412L67.1569 272.676L48.5269 288.635L48.4099 87.9454Z" fill="#547781" fill-rule="nonzero" opacity="1" stroke="none" vectornator:layerName="Curve 8"/>
<path d="M50.3409 90.2972C50.3409 90.2972 51.8429 91.9273 59.5849 93.9594C69.1379 96.4668 79.6145 93.029 81.5175 92.4568C85.7255 91.1915 88.3549 88.1375 88.3549 88.1375L102.78 76.8628L67.2689 77.4857L50.3409 90.2972Z" fill="url(#LinearGradient_3)" fill-rule="nonzero" opacity="1" stroke="none" vectornator:layerName="Curve 9"/>
<path d="M48.4099 91.0227L48.4099 88.1375C48.4099 88.1375 47.9786 89.9405 50.3822 90.0955C59.2831 90.6697 78.9103 91.225 82.5816 90.2299C86.6816 89.1186 99.4449 76.8628 99.4449 76.8628L103.038 76.8628L85.1793 92.9506L48.4099 91.0227Z" fill="#707070" fill-opacity="0.507916" fill-rule="nonzero" opacity="1" stroke="none" vectornator:layerName="Curve 38"/>
<path d="M88.3549 88.1375L107.424 73.2333L107.103 272.868L88.4729 288.827L88.3549 88.1375Z" fill="#6d97a3" fill-rule="nonzero" opacity="1" stroke="none" vectornator:layerName="Curve 10"/>
<path d="M48.3549 88.1538L48.4729 288.843C48.4729 288.843 48.1944 290.19 50.3822 291.288C55.0226 293.619 74.6161 294.771 83.3278 292.929C87.5264 292.042 88.4729 288.827 88.4729 288.827L88.3549 88.1375C88.3549 88.1375 85.8341 90.3313 83.0649 91.2363C81.0594 91.8918 53.7789 91.5066 50.3822 90.4685C48.4099 89.8657 48.3549 88.1538 48.3549 88.1538Z" fill="url(#LinearGradient_4)" fill-rule="nonzero" opacity="1" stroke="none" vectornator:layerName="Curve 11"/>
</g>
<path d="M121.604 77.6296L96.5799 71.6748L89.3417 283.718L98.5659 290.707L121.307 267.458L121.604 77.6296Z" fill="#464342" fill-opacity="0.298126" fill-rule="nonzero" opacity="1" stroke="none" vectornator:layerName="Curve 8"/>
<g opacity="1" vectornator:layerName="Group 4">
<path d="M96.5799 71.657L115.703 55.4114L115.381 271.858L96.7509 289.161L96.5799 71.657Z" fill="#925454" fill-rule="nonzero" opacity="1" stroke="none" vectornator:layerName="Curve 13"/>
<path d="M98.5659 73.9986C98.5659 73.9986 98.4004 73.7051 106.141 75.9083C115.694 78.6269 129.643 76.4783 131.546 75.8578C135.753 74.486 136.58 71.657 136.58 71.657L151.005 59.4328L115.672 60.1048L98.5659 73.9986Z" fill="url(#LinearGradient_5)" fill-rule="nonzero" opacity="1" stroke="none" vectornator:layerName="Curve 14"/>
<path d="M97.4651 73.6066C97.4651 73.6066 128.116 74.5687 131.546 72.3479C136.172 69.3522 147.573 59.1047 147.573 59.1047L151.167 59.1047L133.308 75.1925L98.5659 75.9083L97.4651 73.6066Z" fill="#707070" fill-opacity="0.507916" fill-rule="nonzero" opacity="1" stroke="none" vectornator:layerName="Curve 39"/>
<path d="M136.58 71.657L155.648 55.4977L155.327 271.945L136.697 289.248L136.58 71.657Z" fill="#be7373" fill-rule="nonzero" opacity="1" stroke="none" vectornator:layerName="Curve 15"/>
<path d="M96.5799 71.6748L96.6969 289.265C96.6969 289.265 97.9432 291.391 101.038 292.288C109.896 294.857 122.612 295.416 131.546 293.333C136.58 292.16 136.697 289.248 136.697 289.248L136.58 71.657C136.58 71.657 133.871 73.3971 131.546 73.937C124.767 75.511 99.8727 74.4963 98.5659 73.9083C96.6388 73.0412 96.5799 71.6748 96.5799 71.6748Z" fill="url(#LinearGradient_6)" fill-rule="nonzero" opacity="1" stroke="none" vectornator:layerName="Curve 16"/>
</g>
<path d="M171.025 66.6402L140.78 64.0272L131.546 288.922L143.328 292.929L169.97 282.161L171.025 66.6402Z" fill="#464342" fill-opacity="0.298126" fill-rule="nonzero" opacity="1" stroke="none" vectornator:layerName="Curve 9"/>
<g opacity="1" vectornator:layerName="Group 5">
<path d="M140.78 64.0272L158.747 46.8746L158.825 274.647L140.952 289.919L140.78 64.0272Z" fill="#988153" fill-rule="nonzero" opacity="1" stroke="none" vectornator:layerName="Curve 18"/>
<path d="M143.33 66.9494C143.33 66.9494 143.005 68.32 150.841 70.2577C154.87 71.254 157.106 70.7521 160.843 70.3923C165.264 69.9666 170.883 66.4004 170.883 66.4004L185.641 51.9616L158.79 51.9181L143.33 66.9494Z" fill="url(#LinearGradient_7)" fill-rule="nonzero" opacity="1" stroke="none" vectornator:layerName="Curve 19"/>
<path d="M141.938 66.1758C141.938 66.1758 161.577 68.6141 167.546 65.6199C171.426 63.6731 183.002 51.993 183.002 51.993L187.167 51.8608L171.025 69.1738L142.011 67.5065L141.938 66.1758Z" fill="#707070" fill-opacity="0.507916" fill-rule="nonzero" opacity="1" stroke="none" vectornator:layerName="Curve 40"/>
<path d="M140.78 64.0272L140.898 289.659C140.898 289.659 140.469 291.023 141.938 292.16C146.114 295.39 162.078 295.431 169.373 293.333C172.052 292.563 172.268 290.707 172.268 290.707L172.151 65.0754C172.151 65.0754 170.765 67.1004 168.343 67.5065C161.837 68.5975 148.916 67.7205 143.328 66.5065C140.834 65.9647 140.78 64.0272 140.78 64.0272Z" fill="url(#LinearGradient_8)" fill-rule="nonzero" opacity="1" stroke="none" vectornator:layerName="Curve 20"/>
<path d="M172.151 65.0754L190.063 47.6632L190.141 275.436L172.268 290.707L172.151 65.0754Z" fill="#b79d69" fill-rule="nonzero" opacity="1" stroke="none" vectornator:layerName="Curve 21"/>
</g>
<path d="M187.167 73.937L178.741 78.2261L172.266 287.042L181.498 291.849L186.915 286.543L187.167 73.937Z" fill="#464342" fill-opacity="0.298126" fill-rule="nonzero" opacity="1" stroke="none" vectornator:layerName="Curve 10"/>
<g opacity="1" vectornator:layerName="Group 6">
<path d="M179.77 78.1536L194.906 62.5647L194.671 271.394L179.884 288.086L179.77 78.1536Z" fill="#3c5b84" fill-rule="nonzero" opacity="1" stroke="none" vectornator:layerName="Curve 23"/>
<path d="M180.692 80.8289C180.692 80.8289 181.941 82.2155 189.777 84.0296C193.806 84.9623 194.913 84.8109 198.641 84.3977C205.324 83.6572 209.142 79.6537 209.142 79.6537L221.042 67.2533L194.903 67.0364L180.692 80.8289Z" fill="url(#LinearGradient_9)" fill-rule="nonzero" opacity="1" stroke="none" vectornator:layerName="Curve 24"/>
<path d="M179.77 80.5673C179.77 80.5673 181.213 80.8651 183.446 81.0657C189.753 81.6321 200.802 82.4116 205.024 81.1753C209.513 79.861 217.868 67.0364 217.868 67.0364L224.551 66.9354L210.142 84.7217L180.692 81.8456L179.77 80.5673Z" fill="#707070" fill-opacity="0.507916" fill-rule="nonzero" opacity="1" stroke="none" vectornator:layerName="Curve 41"/>
<path d="M209.142 79.6703L223.551 62.6032L223.4 273.412L208.613 290.105L209.142 79.6703Z" fill="#597dac" fill-rule="nonzero" opacity="1" stroke="none" vectornator:layerName="Curve 25"/>
<path d="M179.716 78.1968L179.834 289.429C179.834 289.429 179.77 291.259 182.121 292.13C188.396 294.455 202.127 294.308 205.613 293.11C207.854 292.34 208.613 290.105 208.613 290.105L209.142 79.6537C209.142 79.6537 207.957 81.8022 206.412 82.1341C199.812 83.5522 187.728 82.6788 182.121 81.3938C179.77 80.8549 179.716 78.1968 179.716 78.1968Z" fill="url(#LinearGradient_10)" fill-rule="nonzero" opacity="1" stroke="none" vectornator:layerName="Curve 26"/>
</g>
<path d="M235.307 56.3593L215.914 54.8868L207.638 283.415L217.285 290.642L244.659 275.281L235.307 56.3593Z" fill="#464342" fill-opacity="0.298126" fill-rule="nonzero" opacity="1" stroke="none" vectornator:layerName="Curve 11"/>
<g opacity="1" vectornator:layerName="Group 7">
<path d="M215.945 37.8813L231.348 17.0371L231.301 266.952L215.254 288.712L215.945 37.8813Z" fill="#6f5650" fill-rule="nonzero" opacity="1" stroke="none" vectornator:layerName="Curve 28"/>
<path d="M218.931 42.6926C218.931 42.6926 219.43 45.0654 227.501 44.8705C235.082 44.6875 238.374 46.0334 244.659 43.3154C250.944 40.5975 252.263 37.4682 252.263 37.4682L262.468 23.7393L231.346 24.6719L218.931 42.6926Z" fill="url(#LinearGradient_11)" fill-rule="nonzero" opacity="1" stroke="none" vectornator:layerName="Curve 30"/>
<path d="M216.688 40.8029C216.688 40.8029 240.73 42.2449 246.43 39.6602C251.263 37.4682 260.32 23.8403 260.32 23.8403L267.846 23.7393L253.437 41.5255L218.931 43.8211L216.688 40.8029Z" fill="#707070" fill-opacity="0.507916" fill-rule="nonzero" opacity="1" stroke="none" vectornator:layerName="Curve 42"/>
<path d="M252.434 37.2105L267.846 17.0371L267.8 266.953L251.955 287.586L252.434 37.2105Z" fill="#886b64" fill-rule="nonzero" opacity="1" stroke="none" vectornator:layerName="Curve 29"/>
<path d="M215.904 37.8171L215.256 288.73C215.256 288.73 215.396 289.909 218.696 291.111C226.148 293.826 240.167 293.258 245.998 291.929C251.363 290.707 252.116 287.376 252.116 287.376L252.434 37.1944C252.434 37.1944 250.899 40.3103 248.129 40.8968C240.363 42.5413 227.442 43.3299 219.205 41.3318C215.254 40.3733 215.904 37.8171 215.904 37.8171Z" fill="url(#LinearGradient_12)" fill-rule="nonzero" opacity="1" stroke="none" vectornator:layerName="Curve 31"/>
</g>
<path d="M263.122 66.1758L251.789 75.9021L262.881 275.92L280.527 293.826L288.056 272.22L263.122 66.1758Z" fill="#464342" fill-opacity="0.298126" fill-rule="nonzero" opacity="1" stroke="none" vectornator:layerName="Curve 12"/>
<g opacity="1" vectornator:layerName="Group 8">
<path d="M251.789 75.9021L264.694 50.5531L291.286 260.853L277.652 291.288L251.789 75.9021Z" fill="#8f547c" fill-rule="nonzero" opacity="1" stroke="none" vectornator:layerName="Curve 33"/>
<path d="M256.192 78.0946C256.192 78.0946 253.131 80.3141 263.243 79.5331C280.611 78.1915 282.672 69.17 282.672 69.17L291.647 51.5402L265.676 58.3209L256.192 78.0946Z" fill="url(#LinearGradient_13)" fill-rule="nonzero" opacity="1" stroke="none" vectornator:layerName="Curve 34"/>
<path d="M253.208 77.8129C253.208 77.8129 269.169 76.5329 276.602 71.6748C282.31 67.944 288.278 52.4661 288.278 52.4661L294.876 50.5531L281.178 75.9083L255.757 82.2216L253.208 77.8129Z" fill="#707070" fill-opacity="0.507916" fill-rule="nonzero" opacity="1" stroke="none" vectornator:layerName="Curve 43"/>
<path d="M282.436 70.2132L290.363 54.2906L295.576 43.8211L323.451 264.263L309.019 287.707L282.436 70.2132Z" fill="#a86793" fill-rule="nonzero" opacity="1" stroke="none" vectornator:layerName="Curve 35"/>
<path d="M251.789 75.9021L277.652 291.288C277.652 291.288 277.144 292.467 280.378 293.861C285.572 296.1 299.768 294.771 305.792 291.288C308.003 290.01 309.019 287.707 309.019 287.707L282.453 70.1557C282.453 70.1557 280.786 72.7563 278.283 73.937C273.396 76.2418 262.076 78.0904 255.958 78.3156C251.965 78.4627 251.789 75.9021 251.789 75.9021Z" fill="url(#LinearGradient_14)" fill-rule="nonzero" opacity="1" stroke="none" vectornator:layerName="Curve 36"/>
</g>
</g>
</svg>
