<svg xmlns="http://www.w3.org/2000/svg" xmlns:vectornator="http://vectornator.io" xml:space="preserve" stroke-miterlimit="10" style="fill-rule:nonzero;clip-rule:evenodd;stroke-linecap:round;stroke-linejoin:round" viewBox="0 0 400 300"><defs><linearGradient id="a" x1="0" x2="1" y1="0" y2="0" gradientTransform="rotate(49.156 8.503 88.467) scale(21.2482)" gradientUnits="userSpaceOnUse"><stop offset="0" stop-color="#fcf8f5"/><stop offset=".085" stop-color="#d4d4d4"/><stop offset=".161" stop-color="#f3eee9"/><stop offset=".224" stop-color="#d4d4d4"/><stop offset=".322" stop-color="#f3eee9"/><stop offset=".407" stop-color="#d4d4d4"/><stop offset=".498" stop-color="#f3eee9"/><stop offset=".575" stop-color="#d4d4d4"/><stop offset=".659" stop-color="#f3eee9"/><stop offset=".737" stop-color="#d4d4d4"/><stop offset=".818" stop-color="#f3eee9"/><stop offset=".899" stop-color="#d4d4d4"/><stop offset=".976" stop-color="#f3eee9"/></linearGradient><linearGradient id="b" x1="0" x2="1" y1="0" y2="0" gradientTransform="matrix(40 0 0 40 41.493 165.993)" gradientUnits="userSpaceOnUse"><stop offset="0" stop-color="#658b78"/><stop offset=".319" stop-color="#94bca8"/><stop offset="1" stop-color="#658b78"/></linearGradient><linearGradient id="c" x1="0" x2="1" y1="0" y2="0" gradientTransform="matrix(18.278 14.8231 -17.7266 15.2842 107.345 65.205)" gradientUnits="userSpaceOnUse"><stop offset="0" stop-color="#fcf8f5"/><stop offset=".085" stop-color="#d4d4d4"/><stop offset=".161" stop-color="#f3eee9"/><stop offset=".224" stop-color="#d4d4d4"/><stop offset=".322" stop-color="#f3eee9"/><stop offset=".407" stop-color="#d4d4d4"/><stop offset=".498" stop-color="#f3eee9"/><stop offset=".575" stop-color="#d4d4d4"/><stop offset=".659" stop-color="#f3eee9"/><stop offset=".737" stop-color="#d4d4d4"/><stop offset=".818" stop-color="#f3eee9"/><stop offset=".899" stop-color="#d4d4d4"/><stop offset=".976" stop-color="#f3eee9"/></linearGradient><linearGradient id="d" x1="0" x2="1" y1="0" y2="0" gradientTransform="matrix(40.1174 0 0 40.1174 83.411 185.046)" gradientUnits="userSpaceOnUse"><stop offset="0" stop-color="#6d97a3"/><stop offset=".318" stop-color="#9ec0ca"/><stop offset="1" stop-color="#6d97a3"/></linearGradient><linearGradient id="e" x1="0" x2="1" y1="0" y2="0" gradientTransform="matrix(18.278 16.0715 -17.7266 16.5714 155.57 47.394)" gradientUnits="userSpaceOnUse"><stop offset="0" stop-color="#fcf8f5"/><stop offset=".085" stop-color="#d4d4d4"/><stop offset=".161" stop-color="#f3eee9"/><stop offset=".224" stop-color="#d4d4d4"/><stop offset=".322" stop-color="#f3eee9"/><stop offset=".407" stop-color="#d4d4d4"/><stop offset=".498" stop-color="#f3eee9"/><stop offset=".575" stop-color="#d4d4d4"/><stop offset=".659" stop-color="#f3eee9"/><stop offset=".737" stop-color="#d4d4d4"/><stop offset=".818" stop-color="#f3eee9"/><stop offset=".899" stop-color="#d4d4d4"/><stop offset=".976" stop-color="#f3eee9"/></linearGradient><linearGradient id="f" x1="0" x2="1" y1="0" y2="0" gradientTransform="matrix(40.1174 0 0 40.1174 131.636 177.327)" gradientUnits="userSpaceOnUse"><stop offset="0" stop-color="#be7373"/><stop offset=".318" stop-color="#dc9d9d"/><stop offset="1" stop-color="#be7373"/></linearGradient><linearGradient id="g" x1="0" x2="1" y1="0" y2="0" gradientTransform="matrix(14.8944 13.609 -14.4756 14.0027 199.03 39.7)" gradientUnits="userSpaceOnUse"><stop offset="0" stop-color="#fcf8f5"/><stop offset=".085" stop-color="#d4d4d4"/><stop offset=".161" stop-color="#f3eee9"/><stop offset=".224" stop-color="#d4d4d4"/><stop offset=".322" stop-color="#f3eee9"/><stop offset=".407" stop-color="#d4d4d4"/><stop offset=".498" stop-color="#f3eee9"/><stop offset=".575" stop-color="#d4d4d4"/><stop offset=".659" stop-color="#f3eee9"/><stop offset=".737" stop-color="#d4d4d4"/><stop offset=".818" stop-color="#f3eee9"/><stop offset=".899" stop-color="#d4d4d4"/><stop offset=".976" stop-color="#f3eee9"/></linearGradient><linearGradient id="h" x1="0" x2="1" y1="0" y2="0" gradientTransform="matrix(30.6616 -.26577 .3007 30.6616 175.836 173.847)" gradientUnits="userSpaceOnUse"><stop offset="0" stop-color="#b79d69"/><stop offset=".318" stop-color="#eed6a6"/><stop offset="1" stop-color="#b79d69"/></linearGradient><linearGradient id="i" x1="0" x2="1" y1="0" y2="0" gradientTransform="matrix(14.827 10.7452 -12.2086 13.0498 234.567 54.934)" gradientUnits="userSpaceOnUse"><stop offset="0" stop-color="#fcf8f5"/><stop offset=".085" stop-color="#d4d4d4"/><stop offset=".161" stop-color="#f3eee9"/><stop offset=".224" stop-color="#d4d4d4"/><stop offset=".322" stop-color="#f3eee9"/><stop offset=".407" stop-color="#d4d4d4"/><stop offset=".498" stop-color="#f3eee9"/><stop offset=".575" stop-color="#d4d4d4"/><stop offset=".659" stop-color="#f3eee9"/><stop offset=".737" stop-color="#d4d4d4"/><stop offset=".818" stop-color="#f3eee9"/><stop offset=".899" stop-color="#d4d4d4"/><stop offset=".976" stop-color="#f3eee9"/></linearGradient><linearGradient id="j" x1="0" x2="1" y1="0" y2="0" gradientTransform="matrix(29.4259 0 0 27.548 213.797 180.242)" gradientUnits="userSpaceOnUse"><stop offset="0" stop-color="#597dac"/><stop offset=".318" stop-color="#a5c3ea"/><stop offset="1" stop-color="#597dac"/></linearGradient><linearGradient id="k" x1="0" x2="1" y1="0" y2="0" gradientTransform="matrix(18.8495 11.9906 -12.7203 17.7682 269.275 15.887)" gradientUnits="userSpaceOnUse"><stop offset="0" stop-color="#fcf8f5"/><stop offset=".083" stop-color="#d4d4d4"/><stop offset=".167" stop-color="#f3eee9"/><stop offset=".25" stop-color="#d4d4d4"/><stop offset=".333" stop-color="#f3eee9"/><stop offset=".417" stop-color="#d4d4d4"/><stop offset=".5" stop-color="#f3eee9"/><stop offset=".583" stop-color="#d4d4d4"/><stop offset=".667" stop-color="#f3eee9"/><stop offset=".75" stop-color="#d4d4d4"/><stop offset=".833" stop-color="#f3eee9"/><stop offset=".917" stop-color="#d4d4d4"/><stop offset="1" stop-color="#f3eee9"/></linearGradient><linearGradient id="l" x1="0" x2="1" y1="0" y2="0" gradientTransform="matrix(37.281 0 0 39.9283 250.038 159.512)" gradientUnits="userSpaceOnUse"><stop offset="0" stop-color="#886b64"/><stop offset=".318" stop-color="#bfaaa5"/><stop offset="1" stop-color="#886b64"/></linearGradient><linearGradient id="m" x1="0" x2="1" y1="0" y2="0" gradientTransform="matrix(13.6754 13.4637 -9.44079 17.0654 304.028 47.152)" gradientUnits="userSpaceOnUse"><stop offset="0" stop-color="#fcf8f5"/><stop offset=".083" stop-color="#d4d4d4"/><stop offset=".167" stop-color="#f3eee9"/><stop offset=".25" stop-color="#d4d4d4"/><stop offset=".333" stop-color="#f3eee9"/><stop offset=".417" stop-color="#d4d4d4"/><stop offset=".5" stop-color="#f3eee9"/><stop offset=".583" stop-color="#d4d4d4"/><stop offset=".667" stop-color="#f3eee9"/><stop offset=".75" stop-color="#d4d4d4"/><stop offset=".833" stop-color="#f3eee9"/><stop offset=".917" stop-color="#d4d4d4"/><stop offset="1" stop-color="#f3eee9"/></linearGradient><linearGradient id="n" x1="0" x2="1" y1="0" y2="0" gradientTransform="matrix(36.7274 -7.61342 4.44956 37.4689 293.413 168.063)" gradientUnits="userSpaceOnUse"><stop offset="0" stop-color="#a86793"/><stop offset=".29" stop-color="#cea3c0"/><stop offset="1" stop-color="#a86793"/></linearGradient></defs><g vectornator:layerName="Layer 1"><path vectornator:layerName="Curve 3" fill="#658b78" d="M41.493 40.275 63.086 23.37l-1.482 235.401-20.111 22.394V40.275Z"/><path vectornator:layerName="Curve 4" fill="url(#a)" d="M44.366 44.91s.613 1.187 8.353 3.62c9.551 3.004 20.968-2.82 20.968-2.82l11.31-5.714 14.132-12.035-36.078 1.037L44.366 44.91Z"/><path vectornator:layerName="Curve 5" fill="#658b78" d="m81.493 41.582 21.593-16.72-1.482 235.401-20.111 21.32v-240Z"/><path vectornator:layerName="Curve 6" fill="url(#b)" d="M41.493 41.582v240.001s1.293 4.774 10.752 8.018c11.545 3.959 29.248-8.018 29.248-8.018v-240S66.234 51.937 52.719 48.53c-9.696-2.445-11.226-6.949-11.226-6.949Z"/><path vectornator:layerName="Curve 7" fill="#464342" fill-opacity=".298" d="m112.049 71.771-28.638 9.253-5.421 199.314 16.295 8.077 18.796-29.536-1.032-187.108Z"/><path vectornator:layerName="Curve 8" fill="#6d97a3" d="m83.466 80.816 19.068-14.905-.321 199.636-18.63 15.959-.117-200.69Z"/><path vectornator:layerName="Curve 9" fill="url(#c)" d="M85.397 83.167s1.502 1.63 9.244 3.662c9.553 2.508 17.112-1.13 19.015-1.702 4.208-1.265 9.755-4.12 9.755-4.12l14.425-11.274-35.511.623-16.928 12.811Z"/><path vectornator:layerName="Curve 10" fill="#6d97a3" d="m123.411 81.008 19.069-14.905-.321 199.636-18.63 15.959-.118-200.69Z"/><path vectornator:layerName="Curve 11" fill="url(#d)" d="m83.411 81.024.118 200.69s1.295 3.993 10.756 6.701c11.547 3.306 29.244-6.717 29.244-6.717l-.118-200.69s-15.254 8.665-28.77 5.822c-9.698-2.04-11.23-5.806-11.23-5.806Z"/><path vectornator:layerName="Curve 12" fill="#464342" fill-opacity=".298" d="m156.66 70.5-25.024-5.955-8.107 217.153 18.98 7.703 13.854-29.072.297-189.83Z"/><path vectornator:layerName="Curve 13" fill="#be7373" d="m131.69 64.44 19.069-16.158-.322 216.447-18.63 17.303-.117-217.591Z"/><path vectornator:layerName="Curve 14" fill="url(#e)" d="M133.622 66.869s1.502 1.767 9.243 3.97c9.553 2.719 17.113-1.225 19.016-1.846 4.207-1.371 9.755-4.466 9.755-4.466l14.425-12.224-35.333.672-17.106 13.894Z"/><path vectornator:layerName="Curve 15" fill="#be7373" d="m171.636 64.527 19.068-16.16-.321 216.449-18.63 17.303-.117-217.592Z"/><path vectornator:layerName="Curve 16" fill="url(#f)" d="m131.636 64.545.117 217.591s1.295 4.329 10.756 7.265c11.547 3.584 29.244-7.282 29.244-7.282l-.117-217.592s-15.254 9.396-28.771 6.312c-9.697-2.212-11.229-6.294-11.229-6.294Z"/><path vectornator:layerName="Curve 17" fill="#464342" fill-opacity=".298" d="m206.081 59.51-30.245-2.613-9.234 224.896 20.108 8.271 18.316-15.032 1.055-215.522Z"/><path vectornator:layerName="Curve 18" fill="#b79d69" d="m175.89 57.157 17.913-17.412.078 227.773-17.873 15.272-.118-225.633Z"/><path vectornator:layerName="Curve 19" fill="url(#g)" d="M178.386 59.82s-.325 1.37 7.511 3.308c4.029.996 6.265.494 10.002.134 4.421-.425 10.04-3.992 10.04-3.992l14.758-14.438-26.851-.044-15.46 15.032Z"/><path vectornator:layerName="Curve 20" fill="url(#h)" d="m175.836 56.897.118 225.633s1.046 5.411 10.756 7.534c9.432 2.061 20.614-6.486 20.614-6.486l-.117-225.632s-9.833 7.761-20.141 5.478c-9.73-2.154-11.23-6.527-11.23-6.527Z"/><path vectornator:layerName="Curve 21" fill="#b79d69" d="m207.207 57.946 17.912-17.413.078 227.774-17.873 15.271-.117-225.632Z"/><path vectornator:layerName="Curve 22" fill="#464342" fill-opacity=".298" d="m222.223 66.807-8.426 4.29-6.475 208.816 12.816 8.348 1.833-8.847.252-212.607Z"/><path vectornator:layerName="Curve 23" fill="#597dac" d="m213.851 71.053 15.136-15.589-.235 208.83-14.787 16.692-.114-209.933Z"/><path vectornator:layerName="Curve 24" fill="url(#i)" d="M215.783 73.352s.239 1.763 8.075 3.577c4.029.933 5.136.781 8.864.368 6.683-.74 10.501-4.744 10.501-4.744l11.9-12.4-26.139-.217-13.201 13.416Z"/><path vectornator:layerName="Curve 25" fill="#597dac" d="m242.58 73.072 15.052-17.57-.151 210.81-14.787 16.693-.114-209.933Z"/><path vectornator:layerName="Curve 26" fill="url(#j)" d="m213.797 71.096.118 211.233s3.772 6.897 10.756 7.053c10.489.233 18.023-6.377 18.023-6.377l.529-210.452s-7.888 6.791-18.196 4.654c-9.73-2.018-11.23-6.11-11.23-6.11Z"/><path vectornator:layerName="Curve 27" fill="#464342" fill-opacity=".298" d="m270.38 49.23-19.393-1.473-8.276 228.529 12.312 9.514 24.709-17.648-9.352-218.923Z"/><path vectornator:layerName="Curve 28" fill="#886b64" d="m250.987 30.649 15.417-20.742-.047 249.916-16.268 20.36.898-249.534Z"/><path vectornator:layerName="Curve 29" fill="#886b64" d="m285.75 31.808 16.986-22.211-.046 249.916-16.247 20.525-.693-248.23Z"/><path vectornator:layerName="Curve 30" fill="url(#k)" d="M253.987 35.563s.356 3.704 8.192 5.647c4.029 1 4.458 1.92 10.743-.798s14.397-10.074 14.397-10.074l10.205-13.729-31.122.933-12.415 18.02Z"/><path vectornator:layerName="Curve 31" fill="url(#l)" d="m250.987 30.649-.949 250.972s3.744 6.283 13.291 5.622c9.547-.661 23.114-7.205 23.114-7.205l.876-249.7s-11.455 6.665-20.92 6.948c-9.465.283-15.412-6.637-15.412-6.637Z"/><path vectornator:layerName="Curve 32" fill="#464342" fill-opacity=".298" d="m298.178 59.046-11.333 9.726 11.092 200.019 17.646 17.906 7.529-21.606-24.934-206.045Z"/><path vectornator:layerName="Curve 33" fill="#a86793" d="m286.845 68.772 12.905-25.349 26.592 210.301-13.634 30.435-25.863-215.387Z"/><path vectornator:layerName="Curve 34" fill="url(#m)" d="M291.248 70.965s-3.061 2.22 7.051 1.438c17.368-1.341 19.429-10.363 19.429-10.363l8.975-17.63-25.971 6.781-9.484 19.774Z"/><path vectornator:layerName="Curve 35" fill="#a86793" d="m315.87 65.12 14.762-28.429 27.875 220.443-14.432 23.444L315.87 65.119Z"/><path vectornator:layerName="Curve 36" fill="url(#n)" d="m286.845 68.772 25.863 215.387s3.741 5.037 11.633 5.106c11.178.097 19.734-8.687 19.734-8.687L317.728 62.04s-2.278 8.558-19.429 10.363c-7.31.77-11.454-3.63-11.454-3.63Z"/></g></svg>