<svg xmlns="http://www.w3.org/2000/svg" class="img-fluid" style="transform:none;transform-origin:50% 50%;cursor:move" viewBox="155 720 4730 3483"><path fill="#D8DED2" d="M1636 2674c-9-8-16-24-16-34 0-16-3-17-30-7-38 14-64 1-68-37-2-14-9-26-17-26-43 0-59-66-24-101l21-21-21-14c-26-19-27-46-2-68 15-14 18-26 14-53-7-40 5-53 53-53 27 0 32-4 40-37 5-20 16-41 25-46 19-12 62-3 82 17 12 13 16 12 25-9 8-16 23-26 48-31 32-6 40-3 56 16 11 13 22 35 24 50 5 23 10 25 42 22 46-5 75 22 70 65-2 22 3 32 26 46 24 16 27 22 22 50-4 18-15 39-26 47-14 11-17 19-10 30 5 8 10 29 10 47 0 34-21 53-59 53-18 0-21 6-21 38 0 21-5 43-12 50-28 28-99 6-118-37l-12-26-13 33c-20 47-79 67-109 36zm152-242c6-41-69-56-92-19-9 15-6 23 18 43 25 22 30 24 50 11 11-8 22-24 24-35zm364 231c-13-22-25-28-56-29-25-1-44-8-53-20-18-24-17-79 2-94 9-7 15-29 15-55 0-56 25-80 74-71 20 4 37 2 41-4 9-14 68-13 83 2 7 7 12 29 12 49 0 28 5 38 20 42 46 12 47 107 0 107-15 0-20 7-20 24 0 14-4 36-10 50-8 22-16 26-50 26-33 0-43-5-58-27zm51-127c7-19-18-40-38-32-15 6-20 28-8 39 12 12 41 7 46-7zm96-315c-10-15-16-17-41-7-26 10-32 8-49-13-10-13-19-30-19-38s-12-24-26-36c-22-17-25-25-20-58l12-79c3-22 10-37 15-34 15 9 49-6 49-23 0-12 6-14 28-8 15 4 50 9 77 12 28 3 55 8 60 13 6 4 23 7 38 6 25-2 28 1 28 34 0 19 2 59 5 88 5 48 4 54-15 59-17 4-21 13-21 44 0 44-18 59-74 59-24 0-40-6-47-19zm35-130c28-31 1-63-46-53-23 4-23 30-1 54 20 23 26 23 47-1zm874-101c-14-11-28-34-32-52l-7-33-20 33c-18 28-26 32-64 32-44 0-55-10-55-51 0-14-7-19-25-19-14 0-29-8-35-21-15-26-3-77 20-91 17-11 17-13-11-30-36-22-39-59-6-91 17-18 21-32 19-68-4-61 13-76 63-58 27 10 40 11 54 2 12-8 22-8 28-2 7 7 12-3 17-30 7-49 17-55 59-42 17 6 44 12 60 13 20 2 27 8 27 23 0 36 14 47 36 30s67-19 95-5c23 13 25 59 4 100-15 30-15 30 14 30 51 0 61 9 61 52 0 32-5 42-28 55l-28 16 15 44c15 42 15 45-3 59-11 8-29 14-41 14-18 0-21 5-17 31l5 32-47-5c-40-5-48-3-58 16-22 42-60 48-100 16zm67-230c7-23-10-60-28-60-17 0-57 37-57 53 1 49 70 55 85 7zm-2101 176c-13-10-25-11-35-5-20 13-73 11-87-3-7-7-12-26-12-43 0-21-9-40-25-55-17-16-25-33-23-50 2-14 5-23 8-21 11 9 51-21 46-35-3-8 1-14 8-14 9 0 12-9 8-27-4-22-2-25 12-20 9 4 33 0 53-8 19-8 39-12 44-9s9 0 9-5c0-17 86-13 100 4 8 9 11 30 7 53-4 31-1 41 14 50 14 9 19 24 19 57 0 41-2 45-25 45-22 0-25 4-25 34 0 58-49 85-96 52zm16-131c10-12 9-20-4-40-19-30-24-30-48-8s-23 42 5 53c31 12 33 12 47-5z" style="transform:none"/><path fill="#D9D6BE" d="M3646 2118c-9-12-16-28-16-35s-8-13-18-13-28-7-40-16c-29-20-31-86-3-106 14-10 17-18 10-28-14-23-11-63 7-88 20-28 70-29 99-2 20 19 24 19 51 5 36-19 68-19 83-2 17 21 24 72 13 94-8 15-7 22 9 31 47 29 6 122-53 122-16 0-38 12-56 30-36 36-65 38-86 8z" style="transform:none"/><path fill="#E4B32D" d="M734 2861c-12-6-24-22-27-41-6-26-10-30-34-28-21 2-28-2-30-17-8-51-28-95-44-100-22-7-33-37-24-65 5-14 2-20-9-20-19 0-20-13-6-41 7-13 7-19 0-19-5 0-10-11-10-24s-4-26-10-28-4-14 5-30c7-16 10-28 4-28-21 0-7-50 23-81 22-24 31-42 29-61-3-38 8-68 25-68 8 0 20-11 26-25 7-15 18-24 27-23 10 2 22-10 33-35 16-36 19-38 52-32 26 5 36 3 44-11 6-11 17-15 30-12 14 4 24-1 33-18 13-26 34-32 42-11 4 10 6 9 6 0 1-20 31-15 32 5 0 13 3 12 11-5 13-28 68-33 68-7 0 13 7 15 35 10 23-5 35-3 35 4s8 9 19 5c28-8 51 4 51 29-1 59-72 196-102 196-10 0-18-4-18-9 0-4-11-6-25-3-17 3-25 0-25-9 0-8-14-27-30-43-17-16-30-33-30-38s-11 3-26 19c-21 22-28 25-43 16-24-15-41 1-41 38 0 32-14 39-69 32-33-5-41-3-41 11 0 9-4 16-10 16-5 0-10 18-10 40 0 29 5 42 20 50 25 14 26 40 1 40-15 0-20 9-23 45-2 31 1 45 9 45 7 0 13 7 13 15s9 20 20 27c13 9 20 24 20 45v33l35-17c19-9 38-13 42-9s7 31 6 61c-1 40 3 57 14 64 20 11 10 71-15 94-22 19-81 29-108 18zm1756-291c-8-5-28-7-43-4-57 12-79-44-26-66l30-13-26-27c-34-35-29-62 13-74 17-5 32-13 32-17 0-13 19-11 62 8 45 20 49 40 11 45-21 3-15 6 25 13 67 10 85 27 76 69-9 41-12 46-34 46-10 0-20 4-22 9-5 14-81 22-98 11zm1107-27c-11-10-8-58 3-69 8-8 6-15-5-24-24-20-18-46 15-62 27-13 29-17 15-28-21-18-19-40 5-40 16 0 20-7 20-35 0-19 5-35 10-35 6 0 10-13 10-30 0-27 3-30 30-30 25 0 30-4 30-25s5-25 30-25 30-4 30-25 4-24 35-23c25 1 41-6 58-24 18-19 34-26 65-26 23 0 44 4 47 9 4 5 13 3 21-6 17-17 40-20 48-6 3 5 16 7 27 4 20-6 21-3 15 23-4 16-10 52-12 79-11 149-19 190-36 193-15 3-18-4-18-43 0-41-2-45-15-31-8 8-15 19-15 25 0 14-43 24-85 19-25-3-35 0-35 10 0 11-8 13-35 8-32-6-35-5-35 18 0 13-6 26-12 28-18 6-16 80 1 94 25 20 5 39-66 62-68 22-133 29-146 15zm-1125-263c-12-16-22-39-22-51 0-19 5-21 40-17 38 3 40 2 40-24 0-21 5-28 20-28 11 0 20-5 20-11 0-7 12-10 30-7l29 4-6-43c-6-42-5-43 23-43 55 1 77 36 53 82-8 14-7 28 2 51 10 24 10 32 1 35-7 2-12 9-12 17 0 14-39 25-110 32-25 2-48 10-53 18-12 23-31 18-55-15zm473-87c-9-21-21-40-27-44-18-11-13-69 10-129 28-69 46-89 70-74 21 13 37 145 23 184-5 14-12 42-16 63-8 51-39 51-60 0zm-1530-318-39-10c-26-5-28-9-23-40 8-52 36-103 68-126 35-25 35-29 5-77-15-23-26-58-29-96-5-52-4-59 14-63 10-3 19-9 19-14s13-9 29-9c27 0 29-3 35-51l7-52 29 28c35 33 56 28 63-17 13-74 20-99 29-104 5-3 27 4 50 16 22 11 47 19 54 16 8-3 14-1 14 4s9 14 20 20c16 8 26 6 50-11 22-17 41-22 81-20 32 1 61-4 75-14 23-15 23-14 39 37 20 69 20 158 0 158-8 0-15-5-15-11s-16 3-35 20c-41 35-62 38-96 13-13-10-36-24-51-31-15-8-32-27-38-44l-10-30-25 23a74 74 0 0 0-25 58c0 31-2 34-24 28-21-5-25-2-31 24-7 34-29 39-56 14-17-15-19-14-25 12-4 16-13 37-21 46s-18 31-23 50c-4 18-11 41-15 50-7 17 19 51 46 60 20 7-8 115-35 134-18 12-84 18-111 9zm2244-104c-13-10-30-16-37-14-20 7-41-16-52-58-7-24-18-40-31-44-44-14-50-83-14-147 22-39 24-49 14-77-15-44-6-121 17-138 16-12 20-10 31 12 8 14 20 25 28 25s15 7 15 15-4 15-10 15c-5 0-10 13-10 29 0 17-4 33-10 36-5 3-10 44-10 91v84h29c23 0 33 7 45 32 9 17 14 40 10 50-3 11 3 29 15 44 41 52 19 84-30 45zm316-244c-15-11-17-22-11-55 8-55-30-122-69-122-30 0-43-25-27-51 13-20 7-44-16-71-8-10-12-24-9-33 10-24 43-18 82 16 19 17 35 27 36 23 2-19 17 43 18 74 1 29 4 32 31 32 32 0 61 26 85 74 20 39 20 40-21 86-38 42-67 50-99 27z" style="transform:none"/><g fill="#DE9D19" style="transform:none"><path d="M2930 3071c0-5-12-11-27-13-17-2-35-15-49-35-21-32-22-32-39-13-24 27-65 26-72-1-4-14-11-18-22-13-37 16-56 10-59-18-3-25-7-27-40-25-37 2-37 2-40-40s-4-43-39-43c-34 0-35-1-29-30 5-26 3-30-16-30-18 0-20-4-15-35s3-36-19-41c-26-7-31-23-11-43 10-10 7-16-13-31a97 97 0 0 0-37-20c-19 0-16-27 5-42 10-7 21-21 25-32 6-15 13-17 40-12 46 10 100 7 107-5 7-10 70 19 70 34 0 4 10 7 21 7 16 0 20 5 16 20-3 11-2 20 2 20 12 0 38 54 44 94 5 28 1 49-14 78-11 22-19 42-16 44 9 10 72-43 77-66 9-38 92-70 102-38 2 6 30 13 61 16 32 2 60 8 63 13s12 3 20-6c8-8 31-17 51-21 43-8 63-26 86-76 10-20 22-38 28-40 17-6 27-94 16-137-9-31-7-41 9-59 10-12 26-22 35-22s19-7 23-15c3-10-1-15-13-15-28 0-45-83-18-93 6-2-5-8-25-12-21-4-38-12-38-17 0-7-4-7-12 0-7 5-27 13-45 16-29 7-32 5-38-24-5-23-10-29-18-21-24 24-40 12-33-24 5-26 3-35-7-35-11 0-14-20-15-91 0-105 11-128 59-121 25 4 28 8 24 31-5 25-5 25 6 4 8-16 21-23 41-23 26 0 28 3 28 40s2 40 19 30c33-17 51-12 51 14 0 21 6 24 63 32 62 9 62 9 60 40-2 24 2 33 17 37 11 3 20 11 20 19 0 14-44 38-71 38-9 0-19 6-22 14-4 11 12 15 74 18 43 3 82 8 86 12s0 21-9 37c-17 29-17 30 7 39 31 12 32 34 3 54-18 13-19 16-5 16 22 0 22 23 0 41-14 13-13 14 13 19 24 4 30 11 32 36 2 24-3 35-23 48-25 16-25 19-11 35 22 24 20 58-3 71-11 5-38 10-60 10-23 0-51 6-64 13l-25 13c-6 3 22 54 30 54 4 0 8 9 8 20 0 24-20 26-62 4l-30-16 16 24c9 12 21 41 27 63s18 48 26 57c9 10 13 24 10 33-7 18-58 20-75 3-12-12-17-4-24 37-4 24-42 32-64 15-12-10-14-7-14 19s-4 31-24 31c-14 0-28-6-32-12-6-9-10-5-14 12-9 36-31 34-61-5l-26-34-24 37c-23 35-59 55-59 33zM777 2913c-12-11-8-50 6-62 8-6 17-8 20-4 11 10 44-26 52-54 4-17 1-29-11-37-12-9-15-23-12-49 2-20 1-37-3-37s-5-9-2-21c6-21 5-21-26-4-42 21-61 14-55-21 3-19-1-31-16-41-11-8-20-20-20-27 0-8-11-17-25-20-26-7-35-26-11-26 16 0 17-51 1-62-5-4 5-10 24-14 33-7 33-7 13-23-24-18-35-102-14-109 7-2 12-10 12-17 0-15 49-26 70-15 24 12 40 1 40-28 0-15 7-36 15-46 14-19 15-19 35-1s20 18 20-6c0-18 3-20 9-10 7 11 11 9 21-9l13-24 21 29c11 16 29 36 38 44 10 9 18 21 18 28 0 9 8 11 25 7 15-4 25-2 25 5 0 24 17 9 48-42 18-29 32-60 32-69 0-30 34-59 70-61 32-2 35 0 33 24-1 21 2 26 17 22 23-6 44 29 37 63-3 18 1 24 17 26s22 11 24 36c2 23 8 32 21 32 28 0 44 26 38 59-4 19-1 33 7 40s14 32 14 61c0 40-4 51-19 55-11 4-19 12-19 20 0 7-11 16-25 19-34 9-31 28 8 46 42 20 49 57 13 66-19 4-26 13-26 30 0 15-6 24-15 24s-15 9-15 25-6 25-15 25-15 9-15 25c0 14-7 28-15 31-8 4-15 15-15 26 0 18-4 20-39 14-25-4-42-2-47 5-3 6-15 9-25 6-13-3-19 1-21 17-3 22-48 37-48 17 0-8-7-7-20 1-16 10-24 10-39 1-15-10-20-9-25 2-7 20-53 19-64-1-8-14-10-14-21 0-16 19-48 21-54 4-4-10-7-10-18 0-14 13-51 16-62 5zm302-269c15-11 34-14 57-11 35 6 39 1 35-45-2-15 6-18 43-18 25 0 46-4 46-10 0-5-14-10-30-10-23 0-33-6-42-26-10-21-9-27 3-35 11-7 11-9 1-9-14 0-42-24-42-35 0-13-29-35-45-35-10 0-30-11-45-24-33-27-105-41-142-27-33 12-62 50-84 108-17 43-17 46-1 58 9 7 17 21 17 32 0 32 69 94 96 87 12-3 25-1 28 5 11 17 79 13 105-5zm2914 256c-18-11-33-16-33-11s-25 10-56 10c-46 0-57-4-61-19-5-19-31-30-70-30-18 0-23-6-23-25 0-18-5-25-20-25-13 0-20-7-20-19 0-11-9-21-21-24-17-5-20-11-15-31s2-25-16-28c-18-2-24-11-26-35-2-17-10-37-18-43-8-7-14-20-14-30 0-20 30-50 51-50 20 0 142-40 153-51 5-4-3-13-18-20-25-12-25-13-10-30 13-15 14-22 5-33-10-12-8-19 8-35 12-12 21-31 21-42 0-19 4-21 36-16 31 5 35 4 29-11l-13-32c-5-12-1-11 18 3 38 27 53 32 58 18 3-8 8-9 17-1 16 13 45 3 45-16 0-8 4-14 9-14s13-9 16-20c11-35 25-11 25 41 0 30 4 48 10 44 5-3 9-30 9-60-1-29 3-60 7-67 5-7 9-35 11-63 5-108 6-110 59-70 18 14 37 25 43 25 5 0 14 7 19 16 8 14 10 14 21 0 24-28 39-18 47 30 5 36 10 44 23 38 55-22 70-10 51 42-6 16-8 25-4 22 11-11 65 25 60 39-3 7 2 13 11 13 13 0 15 8 10 40-3 22-1 40 4 40s9 9 9 20-3 20-8 20c-4 0-6 25-5 55 2 30-1 55-6 55s-3 14 6 31c14 27 13 32-1 48-9 10-16 22-16 28s-9 13-19 16c-14 3-18 11-14 26 4 17 1 21-16 21-28 0-37 25-21 55 16 29 8 42-33 50-39 9-67 32-67 57 0 11-7 18-18 18s-24 11-30 25c-13 28-40 33-49 9-3-9-9-11-12-6s-28 12-56 15c-39 5-57 2-82-13zm102-309c16-10 40-31 51-49 30-44 18-92-34-145-33-33-47-40-80-40-96 0-165 119-112 193 48 67 104 80 175 41zm-2389-122c-56-44-9-112 58-85 41 16 49 66 14 90-30 21-40 20-72-5z"/><path d="M2533 2443c-33-6-29-33 5-33 26-1 25-2-12-20-45-23-50-24-41-10 11 18-21 11-38-8-26-28-21-61 10-73 14-5 32-8 39-5 8 3 17-1 21-9 5-8 29-16 53-19 76-8 110-18 110-32 0-8 4-14 10-14s5-10-2-25c-9-20-9-34 2-63 9-26 10-37 1-40-21-7-10-82 12-82 6 0 19 7 29 17 17 15 18 15 18-10 0-31 29-37 50-12 17 21 30 19 30-5 0-12 13-25 35-36 34-16 35-16 55 7 23 29 25 60 5 99-15 28-11 59 8 72 6 3-2 25-19 52-28 44-30 45-66 39-25-4-38-2-38 6 0 16-21 14-41-5-16-15-17-13-8 23l9 46c0 13-45 7-70-10-24-15-24-15 3 13 30 33 35 62 12 70-8 4-15 12-15 20s-4 14-10 14c-5 0-10 6-10 14 0 21-80 32-147 19zm-646-368c-35-24-51-65-26-65 8 0 7-5-1-15-9-11-16-13-24-5-5 5-18 10-28 10-17 0-19-7-16-62l3-63 76-38c64-32 80-45 100-81 22-42 22-44 6-94-10-28-17-60-17-72 0-17-4-19-25-14-15 4-25 2-25-5 0-6-10-11-22-11-13 0-32-7-42-15-11-8-37-15-59-15-21 0-48-5-59-11-14-8-23-8-31 0-6 6-23 11-38 11-26 0-27-1-16-36 9-30 15-35 34-31 20 4 23 0 23-26 0-29 41-87 61-87 4 0 12 15 18 33 7 20 23 40 39 48 15 7 39 22 53 32 31 22 52 15 92-33 30-35 37-37 37-9 0 11 5 17 10 14 6-3 10-1 10 4 0 6 16 11 36 11 31 0 123 18 133 26 1 1-4 25-13 52-14 40-15 63-7 133 5 47 15 98 23 114 11 25 11 29-6 39-11 6-28 19-38 29-10 9-38 20-62 23-44 6-44 6-48 53-3 26-17 72-31 103-15 31-27 62-27 67 0 20-55 11-93-14zm-320-47c-15-36-27-81-27-106 0-29-5-44-15-49-14-5-14-8-2-22 22-26 42-104 27-109-27-9-52-44-47-65 20-81 27-100 41-116 9-10 16-23 16-30s5-21 11-32c10-19 12-20 29-4 16 15 18 31 14 169l-4 153 38 7c47 7 82 35 82 66 0 12-13 50-29 84-16 33-33 73-36 89-6 22-13 27-39 27-29 0-34-5-59-62zm1643-225c-55-21-25-113 37-113 42 0 58 65 23 100-20 20-33 23-60 13zm486-26c3-10-4-26-20-42-21-21-24-30-16-50 6-16 6-27-1-31-14-8 19-44 42-44 9 0 19 4 21 9 2 4 13 12 26 16 19 5 25 3 29-14 8-30 26-26 46 9 22 36 40 38 72 6 13-14 34-27 45-31 29-9 25-24-10-36-38-14-38-34-2-53 26-13 33-13 63 2l34 17 3 83c3 79 2 84-26 112-41 40-96 49-143 23l-37-20-24 23c-29 29-112 46-102 21zm-49-153c-4-4-19-9-33-10-14-2-28-5-30-7-11-10-7-176 4-190 7-8 10-21 7-29-4-9 1-23 10-32 14-14 15-16 1-16s-36-28-36-47c0-14 54-32 85-29 24 3 42-7 94-51 54-46 68-54 99-51 41 3 53 23 20 31-20 6-20 8-7 24 34 42 38 59 22 82-12 17-12 25-3 36 10 12 9 15-8 15-11 0-23-8-27-18-3-11-17-24-31-30-32-15-34-15-34 3 0 8-4 15-9 15s-7 10-4 21c6 20 3 21-30 15-25-5-37-3-37 4s-13 10-32 8l-33-3 1 50c1 30 10 66 23 90 11 22 21 45 21 51 0 21-26 74-33 68z"/></g><path fill="#D48818" d="M3323 2880c-13-5-23-18-23-28s-13-39-30-65c-33-52-25-57 38-23 31 16 61 14 35-2-11-7-43-72-43-88 0-3 9-4 20-1s23 1 26-4 24-9 47-9c77 1 117 59 50 73-27 5-28 8-25 52 4 40 1 47-17 52-14 3-21 13-21 29 0 26-17 30-57 14zm-633-30c0-12 9-39 20-60 11-22 16-40 10-40-5 0-7-13-3-30 3-20 1-30-6-30s-10-3-7-8c2-4-2-16-10-27-8-10-14-15-14-11 0 5-7 3-15-4-13-11-13-14 2-27 16-13 14-14-22-9-33 4-37 3-23-7 14-11 13-15-15-31l-32-19 24-6c27-7 41-31 19-31-8-1-7-4 4-11 24-14 11-38-26-47-30-8-29-9 24-16 39-5 50-10 40-17-12-7-11-10 8-15 12-4 22-11 22-17 0-5 8-16 18-23 16-12 15-14-10-41-43-45-30-73 16-38 35 27 45 19 35-26-12-53-3-66 27-38 28 26 29 25 9-31-22-62-18-72 8-21 25 52 54 70 43 27-9-35 0-33 20 5l16 32 31-48 31-48 19 41c22 52 34 53 42 5 4-21 10-47 15-58 8-18 9-17 9 8 1 18 6 27 17 27 14 0 15 7 11 37-5 27-3 33 5 25 20-20 36-13 43 17 5 24 10 28 28 24 12-3 30-13 40-21 9-8 17-11 17-7 0 5 11-2 25-15 31-29 33-15 3 18l-23 24 23-6c13-5 22-3 22 3 0 21 28 11 53-19 14-16 33-30 41-30 9 0 25-5 36-12 27-17 37-2 19 30-10 19-24 28-47 30-18 2-32 8-32 13 0 6-13 15-30 20-31 11-34 18-23 57 4 16 11 22 22 19 9-2 22 1 28 8 8 9 6 16-8 29-11 9-25 16-32 16s-20 9-30 20c-9 11-20 20-25 20-12 0-52-39-52-50 0-5-14-25-31-44-34-39-119-76-175-76-74 0-150 53-191 133-37 74-30 147 20 220 21 30 49 59 62 65 33 15 31 25-7 43-17 8-33 22-34 32-3 26-23 46-66 68l-38 19v-20zM969 2694l-4-19-3-17c-1-4-12-4-23 1-18 6-30-1-65-37-26-28-41-52-39-63s-1-19-6-19-13-10-18-22c-9-25 34-121 67-152 24-21 112-35 112-17 0 6-7 11-15 11-50 0-115 70-115 124 0 63 63 126 125 126 41 0 90-32 111-71 16-31 15-81-1-121-6-15-2-18 25-18 18 0 29 4 25 10-3 6 1 10 10 10s13 5 10 10c-7 11 18 41 32 39 4-1 22-1 38 1l30 1-38 17c-33 15-36 19-25 33 20 25 95 31 151 11 42-15 49-15 57-2 17 26 11 41-22 54-33 14-75 7-71-12 1-5-9-9-22-9-14 0-22 3-19 8s-17 9-45 9c-38 0-49 3-45 13 3 8 0 25-5 40-9 23-12 25-39 15-23-9-33-8-55 7-15 9-27 24-27 33 0 13-2 13-13-3-11-14-16-15-22-5s-9 9-16-1c-8-11-12-10-24 5-8 11-16 16-16 10zm1181-144c-16-16-18-25-10-40 18-33 80-20 80 16 0 15-27 44-41 44-5 0-18-9-29-20zm127-448c-25-28-22-69 6-76 58-14 98 34 62 74-23 25-47 25-68 2zm-622-49c3-16 20-56 36-89 16-34 29-67 29-74 0-21-42-50-82-56-36-6-38-9-39-43a2986 2986 0 0 0 6-161l3-111c1-3 14-4 28-1 14 2 36-1 49-8 19-10 30-10 54 0 31 13 41 30 19 30-18 1-73 50-88 79-35 67 2 153 83 188 15 7 27 17 27 23s12 15 26 21c25 9 26 11 10 28-10 11-16 35-16 64 0 48 7 56 28 35 10-10 17-10 33 0 11 7 24 10 29 7 21-13 9 13-16 34-23 20-30 21-54 11s-34-8-82 19c-71 40-93 41-83 4zm-495-212c0-6-11-16-25-21-30-12-34-49-7-73 25-23 48-21 66 5 22 31 20 51-9 78-14 13-25 18-25 11z" style="transform:none"/><path fill="#D94F48" d="M495 2015c-88-48-130-112-200-308-16-43-43-103-61-132-18-31-27-56-21-58 15-5 125 11 188 27 30 8 57 12 60 10 4-2 10-20 13-39 5-25 12-35 25-35 15 0 19 12 25 72 4 40 12 81 20 93 7 11 21 45 30 75 10 30 21 64 26 75 23 56 60 190 55 204-3 9-13 17-22 18-10 0-38 4-63 7-33 5-53 3-75-9zm3748-65c-9-16-22-26-28-24-7 3-15-5-19-18-9-34-7-78 3-78 5 0 12-15 15-32 8-43 63-133 135-222 79-98 96-124 113-176l15-45 16 26c9 14 26 59 36 100l19 74 41-3c31-2 41 1 41 13 0 9-11 20-25 25s-29 18-32 27c-25 65-87 142-153 188-68 49-70 51-64 85 5 35 3 37-46 62l-50 26-17-28zm-1688-168c-61-20-103-53-125-98-17-35-20-62-21-205 0-90-4-186-8-212-4-27-4-50 1-53s38 13 74 35c36 23 71 41 78 41 8 0 20-10 29-23 8-12 18-19 21-16 12 11 13 439 2 493l-11 51-40-13z" style="transform:none"/><path fill="#937852" d="M630 4200v-582c0-5 25-8 55-8s55-4 55-10c0-7 587-10 1740-10s1740 3 1740 10c0 6 22 10 49 10h48l6 93c3 50 5 183 4 294l-2 202-1848 3c-1016 2-1847 1-1847-2zm228-242c19-19 14-42-12-67l-24-23-21 21c-25 25-26 30-5 59 17 24 43 29 62 10zm3292-2c28-35-11-93-47-70-27 17-28 50-1 68 28 20 32 20 48 2zM745 3461c-5-5-35-11-65-13l-55-3 2-80 2-296 1-217 48-4c60-6 107 10 107 37 0 13 9 21 30 25 46 10 71 26 111 75 20 25 43 45 50 45 8 0 14 5 14 10 0 14 27 12 33-2 3-10 9-10 26 0 28 16 46 15 62-4 8-9 21-13 35-10 13 4 26 1 29-4 4-6 21-8 41-4 19 3 34 2 34-3s25-23 56-39c34-17 76-51 105-84l48-56 108 2c59 2 298 3 531 3 292 1 422 5 422 12 0 6 16 9 37 7l38-3v45c0 47 5 51 52 36 20-7 23-4 23 23 0 39 10 44 48 21l31-19 3 27c2 20 8 27 25 26 15 0 26 8 33 27 7 16 22 30 37 34 13 3 34 15 46 25 11 11 29 20 38 20 10 0 39 11 65 25 50 27 79 31 89 15 3-5 23-10 44-10 58 0 145-19 156-33 6-8 27-14 48-15 47-2 57-8 57-33 0-12 7-19 20-19 24 0 70-21 70-32 0-4 6-8 13-8 6 0 22-11 34-24s43-38 67-57c28-21 46-43 48-59 3-22 8-25 51-28 39-3 47-6 47-23 0-10 5-19 10-19 6 0 10 10 10 21 0 19 4 21 30 16 17-4 30-2 30 3 0 6 7 10 15 10s15 7 15 15c0 28 31 30 51 4 17-22 19-23 19-4 0 11 9 25 19 30l77 46c88 52 135 68 229 75l85 7-2 211-3 211-60 8c-95 12-3508 20-3520 8zm118-305c8-21-16-61-41-64-15-2-25 4-34 22-10 23-9 28 8 41 24 18 60 19 67 1zm3301 8c20-8 20-33 0-62-32-45-89-8-66 42 11 26 34 32 66 20zM470 1521c0-5 7-36 17-68 18-64 21-112 7-122a650 650 0 0 1-100-111c4 0 34 25 66 56s63 53 69 50c6-4 17 7 26 24 12 24 13 30 2 30-20 0-48 67-41 96 5 19 3 23-10 18-10-4-16-1-16 9 0 9-4 19-10 22-5 3-10 2-10-4z" style="transform:none"/><path fill="#57906C" d="M543 2604c-17-27-54-76-82-108-28-33-49-61-47-63s27 5 55 17c28 11 61 20 71 20 15 0 20 7 20 26s4 25 15 20c19-7 19-2-1 36-15 28-15 30 0 25 17-7 21 22 7 57-6 16-12 12-38-30zm-79-223a497 497 0 0 0-251-145l-58-13 40-13c22-7 72-14 110-14 81-1 150 27 222 89 23 19 48 35 57 35 16 0-7-44-85-162-21-32-36-58-34-58 4 0 81 58 148 111 13 11 16 18 8 23-14 9-15 53-1 61 15 9 12 25-4 25s-66 59-66 78c0 6 10 12 23 14l24 3-26 21-27 22-80-77zm1681 33c-10-8-29-14-42-14-19 0-23-5-23-29 0-19 8-35 21-45 20-14 21-20 15-83-4-37-9-114-12-170-4-82-2-103 9-103 20 0 45 60 40 96-4 25 1 35 21 51 14 12 26 27 26 35 0 7 8 25 17 38 20 28 19 24 28 126l7 74h-30c-19 0-36 7-44 19-12 17-16 17-33 5zM642 2208c-7-7-12-16-12-20s-13-30-30-56c-42-69-38-74 18-21 26 26 55 49 66 53 16 5 17 3 11-21-3-16-17-52-31-82-13-29-24-58-24-63s19-8 42-6c38 3 43 7 65 48 12 25 26 50 31 55 4 6 5 21 1 35s-7 20-8 14c-1-5-7-19-15-29-13-18-14-17-30 14-10 19-14 41-10 54 7 22 7 22-15 2-19-16-24-17-32-5-5 8-7 21-4 28 6 15-7 16-23 0zm794 4c-3-6-6-61-7-123-1-124 17-212 43-217 20-4 33 34 49 138 12 74 11 81-7 101-10 11-24 39-29 62-10 40-36 60-49 39zm1122-39a81 81 0 0 1-18-48c0-16-7-55-16-87-15-53-15-60 0-92 9-19 16-42 16-53 0-29 13-41 43-41 25 0 27 3 27 43 0 23 3 90 7 148 6 104 5 107-15 107-13 0-22 7-24 21-3 21-3 21-20 2zm-112-95c-4-24-7-54-7-68 0-64 4-170 6-170s13 16 26 36c17 28 22 50 20 93-2 61-21 151-32 151-4 0-10-19-13-42zm-1601 19c-4-9-12-17-19-17-10 0-22-26-37-79-2-8 7-20 20-27 14-7 32-31 41-54 14-37 18-40 29-26 9 11 17 13 25 7 27-22-69-516-139-715-18-53-31-96-29-96s16 19 31 42c56 90 122 239 174 392 48 146 51 160 36 171-22 16-22 93-2 154 18 49 11 173-11 226l-12 30-10-35c-9-30-10-31-11-10l-2 25-18-22-18-21-21 36c-17 30-22 34-27 19zm1375-204c0-79 30-542 40-633 20-177 60-411 78-459 4-11 9 178 10 420 4 419 1 468-24 428-11-18-24 11-24 53 0 20-5 49-10 64-7 19-7 36 2 60 10 28 9 38-7 69-14 24-26 35-42 35-20 0-23-5-23-37zm-910-91c0-34-16-52-47-52h-23l20-20c22-22 26-60 8-78-7-7-26-12-44-12-24 0-33 5-38 23l-6 22-15-22c-9-12-24-66-34-120-42-225-108-424-176-533l-28-45 28 25c70 64 180 245 250 413 27 64 53 117 57 117 3 0 9-30 13-67 11-130 26-257 29-260 4-4 11 50 30 235 13 120 18 141 51 207l38 73-22 30c-11 17-21 34-21 39 0 13-44 53-58 53-7 0-12-13-12-28zm-256-79c-18-3-24-21-48-141-15-75-36-170-47-210-27-103-23-107 21-21 56 109 99 251 98 322 0 31-1 56-2 56 0-1-10-4-22-6zm3146-93c0-60 32-123 128-250a873 873 0 0 1 167-183l40-32-23 30c-63 83-150 222-215 346-40 76-78 139-84 139-9 0-13-17-13-50zm-907-72a1376 1376 0 0 1 263-746c2 2-10 39-26 82-61 164-74 249-72 479 2 117-2 207-7 207s-11-9-14-20c-7-25-52-36-83-20-13 8-32 26-42 42l-18 28-1-52zm-387 7c-4-20-5-39-2-44 3-4 10-41 16-82 23-150 92-361 168-514 38-76 118-205 128-205 2 0-10 25-27 56-64 123-129 416-146 664-5 69-11 98-22 107-27 21-34 15-28-24l6-37-29 33c-17 18-30 43-30 57 0 38-27 29-34-11zm230-2c-24-32-17-84 24-190 30-79 88-188 95-181 3 2-2 42-10 89l-20 130c-5 36-11 49-30 57-23 11-28 24-37 99-3 21-3 21-22-4zm-1128-139c3-35-2-79-13-121-15-55-17-90-12-217 5-123 36-348 49-361 2-2 3 76 3 173 1 176 10 262 54 472l17 85-40 5c-23 3-46 9-52 12-7 5-9-10-6-48zm-582-56a23925 23925 0 0 1-30-433c-4-106-4-108 10-66 7 25 25 92 38 150l46 202c18 76 21 110 16 162l-8 67h-66l-6-82zm2577-15c-26-3-33-9-33-26 0-12-3-38-6-57-5-33-2-39 53-92 63-62 172-151 205-169 14-8 7 8-25 52a966 966 0 0 0-128 252c-7 26-18 46-24 45l-42-5zm-2244-39c-28-14-39-51-39-135 0-65-27-242-51-328-11-40-18-76-16-78 10-9 59 94 136 284 44 111 81 207 81 213 0 5-6 10-14 10s-27 11-43 24c-26 22-31 23-54 10zm1853-51c5-7 7-16 4-21-6-10 18-77 58-162l26-55-5 40c-3 22-8 79-11 127l-6 87-38-2c-29-1-36-5-28-14zm-932-28c-13-14-30-25-38-25-10 0-12-4-5-12a1208 1208 0 0 1 180-474c3 3-6 38-21 79-28 82-66 285-66 352 0 52-10 105-20 105-3 0-17-11-30-25zm1107-63c15-41 167-232 184-232 4 0-10 39-30 88-21 48-42 102-45 119-7 29-11 32-32 27-13-3-37-1-53 4-26 9-29 8-24-6z" style="transform:none"/><path fill="#C5433B" d="m4390 2063-59-29c-2-2 8-31 23-64 14-34 21-58 15-54-15 9-29-14-28-46 0-19 15-36 70-75 65-46 127-124 152-188 3-9 18-22 32-27 15-6 23-14 20-20-4-6 15-10 49-10 62 0 60-2 71 93 4 32 12 60 18 62l69 19 56 16-81 83c-45 45-110 114-144 154-65 74-127 113-179 113-16-1-54-13-84-27zM701 1954c-6-15-31-50-54-78-63-75-67-82-72-106-7-38-27-94-41-115-7-11-17-64-23-118-10-91-10-100 9-138 25-47 30-45 91 29 98 120 133 171 166 242 32 69 35 81 31 150-4 75-31 146-50 133-5-3-17 2-27 11-16 15-19 14-30-10zm1971-152c-6-5-16-41-21-81-9-67-21-107-21-68 0 28-17 19-23-11-3-16-6-106-5-200 0-94-3-175-6-180-8-14 33-62 53-62 19 0 64 44 74 73 4 11 12 15 19 11l65-41c66-42 74-42 62-1-12 45-11 131 3 203 22 112 6 229-40 302-19 31-84 71-90 55-4-14-42-16-42-2 0 12-10 13-28 2zm955-324c-2-7-4-38-3-68l1-55 32 2c26 2 31 0 26-13-4-11 0-14 18-11 44 7 59 19 59 44 0 28-21 53-45 53-8 0-19 8-22 18-10 24-29 42-46 42-8 0-17-6-20-12z" style="transform:none"/><g fill="#BB661E" style="transform:none"><path d="M2995 2780c-4-6-18-9-33-8-37 2-92-12-92-23 0-6 23-7 58-3 48 5 68 2 109-16 56-24 80-45 114-105 19-32 23-55 23-118 0-46 4-76 10-74 11 4 49 67 40 67-2 0 0 9 6 19 7 14 7 22-1 26-6 4-8 13-5 21 7 19-12 71-30 78-7 3-11 12-8 19 3 8-2 17-10 20-9 4-12 13-9 28 4 14 2 20-5 15-6-3-17 0-25 9-8 8-27 16-41 19-44 8-66 17-66 27 0 12-27 12-35-1zm-1197-917c-9-2-24-15-32-29l-16-24h44a135 135 0 0 0 96-225c-27-24-25-35 5-35 14 0 25 5 25 12 0 6 11 2 23-10l24-22 1 35c1 20 8 56 17 81 20 60 19 79-7 125-16 29-37 47-83 69-62 30-66 31-97 23zm2038-190c-11-11-6-23 9-23 8 0 15-9 15-19 0-11 7-26 15-35 8-8 15-28 15-45 0-25 4-31 21-31s19 3 10 14-6 16 19 24c40 14 40 45 0 62-16 7-30 19-30 27s-4 12-9 9c-5-4-11-2-13 4-4 12-43 21-52 13zm-189-45c3-18 10-41 15-52 7-13 6-21-2-26-7-4-10-12-6-18 3-6 1-14-6-18-16-10 16-22 60-23 32-1 45 20 22 34-7 4-6 13 1 27 6 11 8 35 4 54-6 34-20 45-28 22-3-10-9-9-23 3-39 32-44 32-37-3z"/><path d="M3773 1518c-31-15-30-52 2-84 20-20 25-34 24-72l-1-47-10 43c-5 23-15 42-22 42-16 0-28-37-15-46 5-3 5-13-1-24-15-28-13-45 4-31 11 9 15 7 18-7 5-18 38-27 38-11 0 4 9 10 19 14 11 3 23 15 26 26 5 15 13 19 28 15 29-7 51 8 77 51 17 29 20 46 15 80-7 48-24 66-32 34-3-12-10-21-15-21s-7-13-3-29c5-24 2-32-14-41-14-7-21-7-21 0 0 5-12 10-26 10-24 0-24 1-10 22 24 34 20 63-9 76-31 14-43 14-72 0z"/></g><path fill="#427C59" d="M2003 2852c-40-2-73-7-73-11 0-5 27-11 60-15l60-7v-74c0-67 2-75 19-75 19 0 31 33 31 89 0 14 5 33 10 41 19 29 31-10 25-77-5-49-4-63 7-63 16 1 68 68 68 89 0 12 3 12 12 3 22-22 38-13 38 20 0 17 7 40 17 50 9 10 14 20 12 22-6 6-204 11-286 8zm-541-479c-10-18-32-135-32-168 0-14 3-15 14-6 17 14 22 8 31-41 4-20 17-46 29-57l22-21 18 80c10 44 22 82 27 86 18 11 8 24-18 24-48 0-60 14-46 51 7 18 12 33 10 33l-24 19c-21 18-22 18-31 0zm2033-35c-18-60-25-93-31-160-6-74-5-78 14-78 17 0 22-8 27-37 4-21 10-48 15-60 13-31 40-30 40 1 0 14 4 27 9 30 16 10 19 60 10 159-11 109-29 157-60 157-11 0-21-6-24-12zm-885-180c0-23-12-281-15-330-3-54-1-68 10-68 34 0 47 47 53 180 4 116 3 130-12 130-18 0-20 12-7 58 9 28 7 32-10 32-10 0-19-1-19-2zm-1380-32c10-27 1-40-22-31-15 6-30-26-48-106-15-67-8-86 23-64 29 20 43 19 67-7 25-27 32-20 47 50 6 31 17 76 24 100 15 54 3 69-59 78-42 6-42 6-32-20zm2705-46c-10-17-7-116 5-138 5-9 16-42 25-72s34-92 57-137c37-78 40-88 37-155-3-59 0-78 14-98 11-14 35-50 54-80 34-54 34-55 30-20-2 19-12 77-21 127-9 51-16 121-14 155l3 63 39-78c21-43 41-76 44-73s4 26 4 52c-2 32 1 43 9 38 13-8 13-5-20 90-23 64-29 113-11 86 8-12 10-9 10 12 0 15 4 37 9 50 6 17 2 40-19 88-16 36-31 74-35 85-3 11-9 15-13 10-4-6-15-17-25-25-17-13-21-12-38 10-18 25-19 25-19 3 0-39-29-38-44 1-6 19-7 19-22-2-19-28-32-28-43 0-6 16-10 18-16 8zM973 1966c4-45 1-82-8-110-7-22-16-64-18-93-4-45-2-56 19-78l23-25 11 41c6 22 9 53 5 68-4 21 0 32 20 51 27 25 32 74 19 172-6 43-7 44-41 44l-35-1 5-69zm1942 24c-13-19-23-26-29-20s-15 10-22 10c-13 0-34-73-34-119 0-21-5-31-15-31-27 0-29-46-3-82 31-42 58-114 59-158 2-83 28-98 47-30 9 32 10 33 11 8 1-15 14-41 31-60 18-19 33-49 37-70 10-63 27-45 18 20-17 137-17 172 0 178 13 5 10 10-14 25-55 33-51 74 10 100l31 12-26 14c-55 29-54 103 2 103 25 0 27 3 27 42-1 64-13 76-40 42l-23-29-22 38-23 37c-1 0-11-13-22-30zm-2145-19c-10-25-9-33 7-57 14-22 18-48 18-115 0-97 1-96 46 14 30 73 31 81 19 118-9 26-23 44-43 54l-32 15c-2 0-8-13-15-29zm1615 6c-8-18-19-22-55-24-46-1-134-32-95-33 13 0 27-13 38-33 15-28 16-38 6-60-9-21-10-36-1-66 7-21 12-53 12-70 0-18 5-41 11-53 11-20 11-20 35 3 19 17 24 33 24 69 0 26 8 80 19 121 26 105 32 142 23 156-5 8-11 5-17-10zm1177-145c-7-22-12-58-12-80 0-47-8-72-23-72-6 0-24-12-40-27-28-26-29-27-23-5 7 20 4 22-28 22-20 0-36-1-36-2l26-53c24-47 25-57 23-180-3-126-2-131 23-172 25-37 48-62 48-49a459 459 0 0 0-47 171c-5 71 10 155 27 155 6 0 10 11 10 24 0 39 17 74 39 81 13 4 24 20 31 44 10 40 32 66 43 54 4-3 7-1 7 6s-7 20-16 28c-8 9-14 24-11 33 2 9-3 27-12 39l-17 23-12-40z" style="transform:none"/><path fill="#874324" d="M3742 1651c-10-14-12-14-22-1-12 15-10 2 6-56 3-12-1-27-10-36-13-14-13-18 1-38l16-22-50 7c-41 5-50 4-50-9 0-9 4-16 9-16s16-6 23-14c10-10 11-16 2-25-8-8-7-11 7-11 9 0 14-5 11-10-4-7 3-8 21-4 19 5 25 4 20-5-4-6 0-11 10-11 11 0 15-6 11-20-3-11-1-20 4-20s9 8 10 18c1 27 17-17 18-50 1-20 5-26 16-22 11 5 15 21 15 60 0 43-5 58-25 78-14 14-25 31-25 39 0 23 46 38 75 25 30-14 32-31 5-58-17-17-18-23-8-40 9-14 15-16 25-8s17 7 26-6c12-16 15-15 40 8 23 21 26 29 17 46-8 16-8 20 3 20 9 0 15 10 15 26 0 20-7 26-29 31-26 5-29 10-29 45 0 24-4 37-10 33s-13 7-16 23c-9 44-38 48-63 8-12-17-21-24-21-16 0 9-8 23-18 31-17 15-20 15-30 0z" style="transform:none"/><path fill="#604C31" d="m748 3531 4-69 40-5c23-3 81-3 130 0 88 6 89 7 84 30-5 18-2 23 14 23 17 0 20 7 20 45v45H745l3-69zm3138-3 3-73 166-3 165-2v150h-337l3-72zm-846-352c-25-6-57-19-70-29-13-9-34-17-45-17-12 0-31-9-42-20-12-10-33-22-46-25-15-4-30-19-37-36-11-25-10-32 5-49 25-27 37-25 60 12 25 40 41 45 50 16 6-21 7-20 17 12l10 35 21-27 37-48c15-21 15-21 47 20 33 43 36 43 47-4 7-29 7-29 22-7 25 35 44 27 44-21v-41l24 23c33 30 52 21 60-29l6-41 22 20c23 21 53 26 62 11 3-5-1-14-9-21s-15-19-15-27c0-12 7-14 31-9 30 6 31 4 26-21l-5-26 146 7c80 3 146 7 148 9 1 1 0 16-3 32-3 21-18 40-49 64-25 19-55 44-67 57s-28 24-34 24c-7 0-13 4-13 8 0 12-46 32-72 32-13 0-18 5-15 14 8 21-15 36-62 39-22 1-41 5-41 10 0 14-55 30-120 34-76 4-94 9-85 23 8 12 2 12-55-4zM980 3050c0-5-6-10-14-10-7 0-31-21-51-46-21-26-56-54-77-64l-39-17 33-16c28-14 33-14 36-2 5 22 18 18 40-10l19-24 12 25c14 31 45 28 49-5l4-23 23 22c26 24 42 20 55-14 7-20 8-20 15 7 9 34 29 30 33-6 3-28 16-35 27-17s27-2 21-26c-4-15-2-24 5-24 6 0 13 9 16 19 5 21 52 38 62 23 6-10 206-11 215-1 11 10-101 119-149 144-27 15-52 31-55 35-9 14-48 21-55 10-5-8-13-6-26 6-14 13-22 14-32 5-11-9-17-8-27 4-15 18-61 20-78 3-9-9-12-9-12 0 0 7-11 12-25 12s-25-4-25-10zm3188-30c-50-9-153-57-205-96l-32-25 21-25c22-25 22-25 30-3 5 12 14 19 22 16s17 1 20 9c7 19 33 18 46-3 8-13 13-14 16-5 8 18 31 15 39-5 6-16 8-15 24 6l19 24 16-31c11-21 21-29 31-26 10 4 15 0 15-12s3-15 8-7c4 6 25 13 47 15l40 3 2 88 3 87-58-1c-31-1-78-5-104-9z" style="transform:none"/><g fill="#2D5F46" style="transform:none"><path d="M3582 2848c-82-7-90-11-72-33 9-11 10-37 5-100-6-72-4-90 10-112 15-22 16-40 11-107-7-85-17-106-48-106-12 0-18-6-16-16 2-11-7-20-27-27-41-13-42-15-17-33 12-8 20-20 17-25-4-5 0-9 7-10 25-2-37-17-74-18l-37-1 24-36c29-42 25-57-13-47-22 5-25 4-15-8 6-8 13-25 15-39 3-22-1-25-45-32-30-6-55-5-68 2-19 11-20 9-13-26 6-34 5-37-12-29-51 21-54 19-54-24 0-39-13-55-23-28-4 8-6 7-6-3-1-8-11 1-23 20l-22 35-6-35c-5-31-2-36 20-47 15-6 37-32 51-57l24-46 10 52c17 84 85 116 114 52 6-15 9-36 5-48-6-18-3-18 19 7 15 16 37 27 52 27 29 0 32-15 8-42-15-17-14-18 19-18 19 0 43-6 53-14 18-13 18-15-3-57-12-23-20-43-19-43l32-16c41-21 47-71 10-88-20-9-25-19-25-47 0-19 5-35 10-35 6 0 10 6 10 13s14 26 30 42c17 16 30 25 30 20s5-4 12 3 16 43 20 80c12 103 24 162 36 174 16 16 15 28-1 28-7 0-27 16-44 35-25 27-32 48-38 97-6 53-9 59-20 45-22-30-26-18-19 54 8 83 26 151 42 157 28 9 52-89 54-219v-75l32 10c19 6 37 21 46 40 21 41 35 43 71 7 19-20 41-31 58-31 32 0 71-37 71-68 0-11-10-28-21-36-20-13-21-18-10-45 19-43-4-87-43-84-16 1-37 10-47 19-18 17-21 16-49-11-23-22-35-27-59-22-17 4-33 2-36-3-7-11 15-60 27-60 4 0 8-9 8-21 0-19 3-19 36 11 32 27 42 31 73 25 20-4 50-20 67-37 20-19 34-26 39-19 3 6 20 18 37 27 40 21 97 6 127-33 23-29 28-100 10-135-9-17-6-25 17-49 36-37 44-25 44 66 0 62-5 80-38 147-21 41-46 102-56 134-9 33-21 67-27 76-5 10-9 35-9 57 0 31-4 41-21 46-11 4-27 21-34 38-8 18-14 26-15 20 0-19-20-15-20 4 0 15-1 15-18 0-27-24-35-21-30 12 4 28 3 29-29 24-30-5-33-4-33 21 0 22-4 26-31 26-28 0-31 2-25 25 5 18 2 27-9 31-18 7-20 45-3 62 9 9 5 12-22 12h-33l22 24 23 24-36 17c-42 20-44 28-14 49 20 15 21 16 5 34-24 27-21 51 9 62l26 10-23 19c-24 19-24 19-4 41 10 11 19 33 20 48 0 24 3 27 33 24l33-2-15 29c-17 31-13 41 16 41 15 0 18 5 13 21-6 19-4 21 15 16s21-2 16 16c-3 12-6 27-6 34 0 14-75 20-168 11zm-2164-84c-3-56-10-89-20-101-8-10-13-23-11-30 2-6-6-18-18-27-25-17-25-17 13-34 31-13 29-37-3-45-27-7-24-24 6-31 31-8 33-26 4-33-21-6-21-6 2-24l24-18-22-22c-18-18-19-26-11-45 14-29-4-54-37-54-20 0-23-5-21-32 1-29-2-33-26-36-30-4-35-11-16-30 9-9 9-18 0-37-15-33-15-35 2-35 29 0 37-26 22-71-8-24-18-64-22-89s-10-49-14-55c-4-5-10-25-13-42-6-30-4-33 19-33 14 0 37-11 52-25 35-33 45-32 37 4-8 37 11 45 110 46h70l3 45c1 25 15 73 30 108 32 76 42 77 147 22l76-40 68 45c65 44 101 56 101 34 0-5 12-36 27-67 14-31 28-78 31-104 3-36 9-48 21-48 9 0 32-3 52-6l35-6 17 58c26 95 28 121 10 128s-16 10-37-29c-15-29-16-27-11 65 3 52 8 130 12 173 5 72 4 79-16 93-29 20-28 54 2 55 14 0 17 2 7 6-36 13-51 37-49 75 2 25-3 43-15 57-26 29-36 18-36-43 0-64-24-115-60-129-25-9-26-13-17-38 19-49-33-86-84-59-16 9-19 7-19-12 0-26-35-88-49-88-28 0-61 22-67 45-7 27-22 33-30 11-3-8-19-20-35-27-26-10-33-10-47 4-9 9-16 32-16 52 0 33-1 34-20 21-24-15-48-102-65-237-12-96-29-155-41-142-33 36-41 281-14 408 8 39 16 80 17 93 2 27 32 52 61 52 16 0 13 4-12 17-38 19-56 46-47 73 7 21 14 24 53 20 21-1 22 0 10 19-10 16-10 26-2 39 17 26 41 26 69-2l25-25v34c0 42 24 68 54 59 33-10 45-24 58-66l12-40 22 44c13 23 26 63 29 88 8 50 50 123 67 118 11-4 12-133 2-150-2-3 0-9 6-13 5-3 10-15 10-26 0-40 18-17 38 49 38 122 45 152 38 160-4 4-128 8-276 8l-268 2-4-84z"/><path d="M2267 2832c-10-10-17-34-17-52 0-32 0-33-20-15-19 17-20 17-30-10-6-15-21-40-33-55l-23-27v73c1 78-2 88-28 78-17-7-21-19-31-97-5-39-10-47-22-42-21 7-33-11-33-52 0-38-2-38 39-17 23 12 39 14 54 7 18-8 23-5 37 21 11 24 23 32 48 34 27 3 34-1 43-24 5-16 8-39 4-51-4-19-1-23 20-23 48 0 51-75 4-87-14-4-19-14-19-42 0-20-5-42-11-48s-12-39-14-74c-3-35-7-75-10-89-4-21 1-28 30-41 34-16 35-16 50 7 18 27 60 32 89 11 14-10 17-23 14-50-3-30-1-37 13-37 9 0 21-6 26-12 17-23 33-94 33-147 0-85 22-61 54 59 20 76 26 140 14 140-6 0-8 12-4 30l6 30-45-4c-50-5-55 3-25 41 20 25 27 48 13 40s-53 12-53 27c0 8 11 23 25 34l25 20-35 6c-49 9-52 23-15 61l33 34-37 17c-20 10-36 21-36 26s14 17 31 27l30 19-31 22-32 23 45 21 45 22-19 26-19 26 29 7c27 6 29 9 20 31-15 41-12 47 26 41l35-6-22 30-22 29h-116c-101 0-119-3-133-18zm2154-265c-5-14-18-30-27-35-16-9-15-10 4-16 12-4 22-13 23-19 0-15 150-91 169-86 10 3-15 34-72 93-87 89-87 89-97 63zm-11-137c0-5 4-10 8-10 15 0 9-35-7-47-13-9-14-14-3-24 6-7 12-22 12-32 0-16-5-18-27-12-25 6-26 6-11-17 22-34 108-77 190-94 84-18 166-13 255 14l58 19-80 7a454 454 0 0 0-297 134c-77 70-98 83-98 62zm-69-222c6-22 4-30-7-35-19-7 61-63 89-63 14 0 8 12-28 55-26 30-44 58-41 63s-1 9-8 9c-10 0-12-8-5-29zm-147-90c-8-19-4-32 28-80 21-31 38-62 38-67 0-6 19-20 43-31 23-11 55-31 71-45s32-25 36-25c7 0-67 160-79 170l-36 48c-22 34-30 40-35 27-5-15-8-14-24 4-24 26-29 26-42-1zm-3034-27c0-23-23-34-39-18-10 9-15 8-24-3-14-19-47-15-66 8-11 15-12 8-5-43 9-68 11-97 13-157 1-47 14-44 15 4 1 17 8 35 17 41 23 15 69 0 78-26l8-22 7 23c4 12 5 26 1 31-6 10 12 95 26 123 13 26 11 45-7 52-23 9-24 8-24-13zm1507-16c-14-10-18-27-18-76 1-125-10-191-35-216-26-26-26-28 3-133 15-51 16-53 25-30 6 14 14 56 19 95 6 44 15 72 24 78 9 5 15 22 15 44 0 30 2 34 15 23 8-7 15-19 15-27 0-14 47-63 60-63 4 0 11 11 14 25 4 14 13 25 21 25 10 0 15 10 15 31 0 16 5 50 11 75 8 29 8 48 2 57-6 6-13 24-17 40l-6 27-28-25c-36-33-42-32-42 10 0 19-2 35-5 35s-17-12-30-27l-23-28-7 30-8 37c-1 4-10 1-20-7z"/></g><path fill="#1C4839" d="M1030 3560c0-31-4-40-17-40-10 0-25-5-33-10-13-9-13-12 3-21 9-6 15-14 12-20-4-5 298-9 795-9l1388-3c323-2 617-2 655 1l67 5v46c0 25-3 56-6 69l-6 22H1030v-40zm920-767c-6-27-19-66-27-88l-18-56c-2-8-10-32-19-53l-16-38 30 7c61 13 94-41 50-85-25-25-25-27 5-34 15-4 30-18 36-33 9-23 12-25 25-12 9 10 16 45 20 99 3 47 7 103 10 125l10 121 5 81-38 6c-59 10-60 10-73-40zm1406 31c-9-25-8-26 17-9 13 8 27 12 30 8 12-11 8-58-7-79-14-19-12-20 21-21 51-2 60-17 23-40l-32-20 31-6c17-4 34-14 37-22 8-19-22-55-45-55-9 0 4-12 28-26 32-20 40-29 30-35s-11-9-1-9c6 0 12-5 12-10 0-11-7-14-53-24l-28-7 28-24 28-24-27-1c-16 0-28-4-28-8 0-13 52-36 75-33 36 5 45 25 51 118 6 75 4 95-10 114-14 20-15 39-10 111 9 113 5 118-91 118-57 0-74-3-79-16zm-1530-31c-13-21-27-62-31-92-7-50-6-53 11-46 11 5 34 9 52 9l32-1 2 64 2 81c1 10-7 18-21 20-16 2-28-7-47-35z" style="transform:none"/><path fill="#1E3835" d="M784 3955c-21-32-11-72 21-87 22-10 29-8 50 12 27 25 33 68 13 88-21 21-66 14-84-13zm3309 10c-25-18-31-63-11-83 21-21 66-14 84 12 13 22 14 29 2 53-16 33-44 40-75 18zM788 3166c-45-34 5-110 55-84 22 11 39 54 32 79-8 23-60 26-87 5zm3302-5c-14-26-13-64 2-79 20-20 65-14 82 10 21 29 21 74 0 82-33 13-73 6-84-13zm-2841-332c-13-25-11-30 9-27 13 2 17-3 15-24-1-22 3-28 18-28 16 0 19-4 14-21-5-15-2-22 14-26 13-3 20-12 18-25-1-15 6-24 26-31 47-15 60 7 65 112l4 90-87-2c-71-1-88-4-96-18zm1646-76c-45-11-102-55-135-104-29-43-35-61-38-118s0-75 21-118c61-119 172-161 301-113 154 58 194 260 77 394-42 48-152 77-226 59zm1069-142c-54-33-77-75-72-130 8-82 63-135 140-135 44 0 53 4 89 40 98 98 56 215-86 238-30 5-48 2-71-13zm-3051-11c-62-38-82-123-42-187 25-40 63-61 118-67 36-3 46 1 82 33s42 43 46 87c9 89-47 154-132 154-22 0-54-9-72-20zm-268-610c3-5 2-18-3-27-15-28-51-163-44-163 8 1 76 85 104 128 10 15 18 37 18 50 0 19-5 22-41 22-24 0-38-4-34-10zm1105-172c-106-30-139-173-57-250 66-61 128-65 187-12 45 41 65 97 55 153-8 41-72 111-103 111-11 0-26 2-34 4-7 2-29 0-48-6z" style="transform:none"/></svg>