<?xml version="1.0" encoding="UTF-8" standalone="no"?>
<!DOCTYPE svg PUBLIC "-//W3C//DTD SVG 1.1//EN" "http://www.w3.org/Graphics/SVG/1.1/DTD/svg11.dtd">
<!-- Created with Vectornator (http://vectornator.io/) -->
<svg height="100%" stroke-miterlimit="10" style="fill-rule:nonzero;clip-rule:evenodd;stroke-linecap:round;stroke-linejoin:round;" version="1.1" viewBox="0 0 800 1000" width="100%" xml:space="preserve" xmlns="http://www.w3.org/2000/svg" xmlns:vectornator="http://vectornator.io" xmlns:xlink="http://www.w3.org/1999/xlink">
<defs>
<linearGradient gradientTransform="matrix(559.527 0 0 559.527 120 421.128)" gradientUnits="userSpaceOnUse" id="LinearGradient" x1="0" x2="1" y1="0" y2="0">
<stop offset="0" stop-color="#e7dcd7"/>
<stop offset="1" stop-color="#dbc5b8"/>
</linearGradient>
<linearGradient gradientTransform="matrix(559.527 0 0 559.527 120 448.253)" gradientUnits="userSpaceOnUse" id="LinearGradient_2" x1="0" x2="1" y1="0" y2="0">
<stop offset="0" stop-color="#e7dcd7"/>
<stop offset="1" stop-color="#dbc5b8"/>
</linearGradient>
<linearGradient gradientTransform="matrix(-169.031 -72.4421 72.4421 -169.031 510.7 701.053)" gradientUnits="userSpaceOnUse" id="LinearGradient_3" x1="0" x2="1" y1="0" y2="0">
<stop offset="0" stop-color="#c8b6af"/>
<stop offset="0.377083" stop-color="#ceb9b0"/>
<stop offset="1" stop-color="#ac9182"/>
</linearGradient>
<linearGradient gradientTransform="matrix(-80.8738 19.2348 -19.2348 -80.8738 497.61 849.673)" gradientUnits="userSpaceOnUse" id="LinearGradient_4" x1="0" x2="1" y1="0" y2="0">
<stop offset="0" stop-color="#ad9693"/>
<stop offset="1" stop-color="#c9b7af"/>
</linearGradient>
<linearGradient gradientTransform="matrix(31.7978 54.4145 -54.4145 31.7978 436.903 328.923)" gradientUnits="userSpaceOnUse" id="LinearGradient_5" x1="0" x2="1" y1="0" y2="0">
<stop offset="0" stop-color="#c2b9b6" stop-opacity="0.00221301"/>
<stop offset="0" stop-color="#ac9e9d" stop-opacity="0"/>
<stop offset="0.495833" stop-color="#ac9e9d" stop-opacity="0.745614"/>
<stop offset="1" stop-color="#ac9e9d" stop-opacity="0.0222756"/>
<stop offset="1" stop-color="#ac9e9d" stop-opacity="0.00429308"/>
</linearGradient>
<linearGradient gradientTransform="matrix(-57.5 -124.162 487.444 -57.5 426.629 354.144)" gradientUnits="userSpaceOnUse" id="LinearGradient_6" x1="0" x2="1" y1="0" y2="0">
<stop offset="0" stop-color="#ebaea9"/>
<stop offset="1" stop-color="#c8a1a1"/>
</linearGradient>
<linearGradient gradientTransform="matrix(-38.2888 -14.1572 0.71263 -38.2888 424.111 220.766)" gradientUnits="userSpaceOnUse" id="LinearGradient_7" x1="0" x2="1" y1="0" y2="0">
<stop offset="0" stop-color="#7c7572"/>
<stop offset="1" stop-color="#725d5d"/>
</linearGradient>
<linearGradient gradientTransform="matrix(-8.73103 -53.4339 53.4339 -8.73103 457.132 134.631)" gradientUnits="userSpaceOnUse" id="LinearGradient_8" x1="0" x2="1" y1="0" y2="0">
<stop offset="0" stop-color="#f9eee2"/>
<stop offset="0.385417" stop-color="#ffffff"/>
<stop offset="1" stop-color="#d5b8a3"/>
</linearGradient>
<linearGradient gradientTransform="matrix(34.1901 38.9523 -38.9523 34.1901 463.067 85.1704)" gradientUnits="userSpaceOnUse" id="LinearGradient_9" x1="0" x2="1" y1="0" y2="0">
<stop offset="0" stop-color="#f9eee2"/>
<stop offset="0.385417" stop-color="#ffffff"/>
<stop offset="1" stop-color="#d5b8a3"/>
</linearGradient>
<linearGradient gradientTransform="matrix(37.7312 4.15165 -4.15165 37.7312 461.407 68.1042)" gradientUnits="userSpaceOnUse" id="LinearGradient_10" x1="0" x2="1" y1="0" y2="0">
<stop offset="0" stop-color="#f9eee2"/>
<stop offset="0.385417" stop-color="#ffffff"/>
<stop offset="1" stop-color="#d5b8a3"/>
</linearGradient>
<linearGradient gradientTransform="matrix(-7.22144 45.8774 -45.8774 -7.22144 460.23 34.3405)" gradientUnits="userSpaceOnUse" id="LinearGradient_11" x1="0" x2="1" y1="0" y2="0">
<stop offset="0" stop-color="#f9eee2"/>
<stop offset="0.385417" stop-color="#ffffff"/>
<stop offset="1" stop-color="#d5b8a3"/>
</linearGradient>
<linearGradient gradientTransform="matrix(33.0911 19.6593 -19.6593 33.0911 410.122 49.9102)" gradientUnits="userSpaceOnUse" id="LinearGradient_12" x1="0" x2="1" y1="0" y2="0">
<stop offset="0" stop-color="#f9eee2"/>
<stop offset="0.385417" stop-color="#ffffff"/>
<stop offset="1" stop-color="#d5b8a3"/>
</linearGradient>
<linearGradient gradientTransform="matrix(28.3289 -42.6155 42.6155 28.3289 410.99 116.106)" gradientUnits="userSpaceOnUse" id="LinearGradient_13" x1="0" x2="1" y1="0" y2="0">
<stop offset="0" stop-color="#f9eee2"/>
<stop offset="0.385417" stop-color="#ffffff"/>
<stop offset="1" stop-color="#d5b8a3"/>
</linearGradient>
<radialGradient cx="0" cy="0" gradientTransform="matrix(2.00634 14.8469 -14.8469 2.00634 450.029 66.2274)" gradientUnits="userSpaceOnUse" id="RadialGradient" r="1">
<stop offset="0" stop-color="#e9d15d"/>
<stop offset="1" stop-color="#b08838"/>
</radialGradient>
<linearGradient gradientTransform="matrix(38.193 0 0 38.193 360.277 60.7267)" gradientUnits="userSpaceOnUse" id="LinearGradient_14" x1="0" x2="1" y1="0" y2="0">
<stop offset="0" stop-color="#f9eee2"/>
<stop offset="0.385417" stop-color="#ffffff"/>
<stop offset="1" stop-color="#d5b8a3"/>
</linearGradient>
<linearGradient gradientTransform="matrix(20.5572 -27.127 27.127 20.5572 355.473 50.7927)" gradientUnits="userSpaceOnUse" id="LinearGradient_15" x1="0" x2="1" y1="0" y2="0">
<stop offset="0" stop-color="#f9eee2"/>
<stop offset="0.385417" stop-color="#ffffff"/>
<stop offset="1" stop-color="#d5b8a3"/>
</linearGradient>
<linearGradient gradientTransform="matrix(24.3719 23.9481 -23.9481 24.3719 324.319 35.3218)" gradientUnits="userSpaceOnUse" id="LinearGradient_16" x1="0" x2="1" y1="0" y2="0">
<stop offset="0" stop-color="#f9eee2"/>
<stop offset="0.385417" stop-color="#ffffff"/>
<stop offset="1" stop-color="#d5b8a3"/>
</linearGradient>
<linearGradient gradientTransform="matrix(-1.41175 -38.3526 38.3526 -1.41175 346.342 108.04)" gradientUnits="userSpaceOnUse" id="LinearGradient_17" x1="0" x2="1" y1="0" y2="0">
<stop offset="0" stop-color="#f9eee2"/>
<stop offset="0.385417" stop-color="#ffffff"/>
<stop offset="1" stop-color="#d5b8a3"/>
</linearGradient>
<linearGradient gradientTransform="matrix(21.193 26.0674 -26.0674 21.193 358.864 77.072)" gradientUnits="userSpaceOnUse" id="LinearGradient_18" x1="0" x2="1" y1="0" y2="0">
<stop offset="0" stop-color="#f9eee2"/>
<stop offset="0.385417" stop-color="#ffffff"/>
<stop offset="1" stop-color="#d5b8a3"/>
</linearGradient>
<linearGradient gradientTransform="matrix(34.6402 0 0 34.6402 314.144 72.839)" gradientUnits="userSpaceOnUse" id="LinearGradient_19" x1="0" x2="1" y1="0" y2="0">
<stop offset="0" stop-color="#f9eee2"/>
<stop offset="0.385417" stop-color="#ffffff"/>
<stop offset="1" stop-color="#d5b8a3"/>
</linearGradient>
<radialGradient cx="0" cy="0" gradientTransform="matrix(12.731 8.28996 -7.173 12.9407 347.842 61.3189)" gradientUnits="userSpaceOnUse" id="RadialGradient_2" r="1">
<stop offset="0" stop-color="#e9d15d"/>
<stop offset="1" stop-color="#b08838"/>
</radialGradient>
<linearGradient gradientTransform="matrix(24.4203 64.5533 -64.5533 24.4203 395.044 352.12)" gradientUnits="userSpaceOnUse" id="LinearGradient_20" x1="0" x2="1" y1="0" y2="0">
<stop offset="0" stop-color="#ebaea9"/>
<stop offset="1" stop-color="#ae8c8c"/>
</linearGradient>
</defs>
<clipPath id="ArtboardFrame">
<rect height="1000" width="800" x="0" y="0"/>
</clipPath>
<g clip-path="url(#ArtboardFrame)" id="Layer-1" vectornator:layerName="Layer 1">
<path d="M120 422.923C120 374.639 203.363 356.256 402.031 356.256C600.698 356.256 679.527 374.639 679.527 422.923C679.527 471.207 598.667 480 400 480C201.333 480 120 471.207 120 422.923Z" fill="url(#LinearGradient)" fill-rule="nonzero" opacity="1" stroke="none" vectornator:layerName="Oval 2"/>
<path d="M120 387.953C120 339.669 201.333 320 400 320C598.667 320 679.527 339.669 679.527 387.953C679.527 436.237 598.667 440 400 440C201.333 440 120 436.237 120 387.953Z" fill="#fff5f1" fill-rule="nonzero" opacity="1" stroke="none" vectornator:layerName="Oval 3"/>
<path d="M120 387.953L120 422.923C120 422.923 120.237 480 400 480C679.763 480 679.527 422.923 679.527 422.923L679.527 387.953C679.527 387.953 679.763 440 400 440C120.237 440 120 387.953 120 387.953Z" fill="url(#LinearGradient_2)" fill-rule="nonzero" opacity="1" stroke="none" vectornator:layerName="Curve 1"/>
<path d="M359.567 479.575C359.567 479.575 382.278 639.693 364.793 753.347C350.239 847.949 297.461 957.993 297.461 957.993L298.67 965.615C298.67 965.615 347.308 998.14 399.763 998.14C452.219 998.14 499.466 966.538 499.466 966.538L501.862 957.015C501.862 957.015 449.822 851.417 434.734 753.347C417.249 639.693 440.896 479.565 440.896 479.565L359.567 479.575Z" fill="url(#LinearGradient_3)" fill-rule="nonzero" opacity="1" stroke="none" vectornator:layerName="Curve 2"/>
<path d="M298.67 965.615C298.67 965.615 348.764 999.195 399.932 999.988C451.101 1000.78 499.833 966.304 499.833 966.304L501.862 957.015C501.862 957.015 448.705 993.966 400.427 992.03C352.149 990.094 297.461 957.993 297.461 957.993L298.67 965.615Z" fill="#887775" fill-rule="nonzero" opacity="1" stroke="none" vectornator:layerName="Curve 3"/>
<path d="M428.935 698.373C428.935 698.373 424.931 691.381 440.266 777.542C456.943 871.242 501.862 957.015 501.862 957.015C501.862 957.015 494.552 961.869 486.419 966.418C478.286 970.967 475.92 972.021 475.92 972.021C475.92 972.021 459.11 916.01 449.503 875.895C439.724 835.06 428.935 698.373 428.935 698.373Z" fill="url(#LinearGradient_4)" fill-rule="nonzero" opacity="1" stroke="none" vectornator:layerName="Curve 5"/>
<path d="M440.896 479.565C440.896 479.565 405.081 678.716 417.991 804.169C431.023 930.811 447.689 983.982 447.689 983.982C447.689 983.982 462.377 978.762 475.92 972.021C489.463 965.279 501.862 957.015 501.862 957.015C501.862 957.015 446.47 851.911 431.833 727.563C418.017 610.187 440.896 479.565 440.896 479.565Z" fill="#8e7b78" fill-opacity="0.234912" fill-rule="nonzero" opacity="1" stroke="none" vectornator:layerName="Curve 6"/>
<path d="M427.877 634.485C427.877 634.485 415.732 724.682 432.5 837.902C448.573 946.432 461.747 978.468 461.747 978.468C461.747 978.468 469.635 974.964 483.179 968.222C496.722 961.48 501.862 957.015 501.862 957.015C501.862 957.015 444.948 852.081 431.833 727.563C426.337 675.387 427.877 634.485 427.877 634.485Z" fill="#8e7b78" fill-opacity="0.234912" fill-rule="nonzero" opacity="1" stroke="none" vectornator:layerName="Curve 8"/>
<path d="M440.896 479.565" fill="none" opacity="1" stroke="#007aff" stroke-linecap="butt" stroke-linejoin="round" stroke-width="10" vectornator:layerName="Curve 7"/>
</g>
<g id="Layer-3" vectornator:layerName="Layer 3">
<path d="M434.734 378.811C434.734 378.811 416.818 389.143 399.333 389.143C381.848 389.143 364.793 378.811 364.793 378.811C364.793 378.811 429.041 360.889 460.602 337.238C481.782 321.366 481.51 321.355 481.51 321.355L543.779 325.711C543.779 325.711 517.026 335.293 486.688 350.021C465.376 360.368 434.734 378.811 434.734 378.811Z" fill="url(#LinearGradient_5)" fill-rule="nonzero" opacity="1" stroke="none" vectornator:layerName="Curve 19"/>
<path d="M364.793 212.543C364.793 212.543 379.313 270.458 379.313 307.963C379.313 345.468 364.793 378.811 364.793 378.811C364.793 378.811 364.928 389.123 399.333 389.143C435.04 389.163 434.734 378.811 434.734 378.811C434.734 378.811 421.352 345.899 421.352 308.394C421.352 270.889 434.614 213.001 434.614 213.001C434.614 213.001 429.575 228.644 399.763 228.79C369.985 228.937 364.793 212.543 364.793 212.543Z" fill="url(#LinearGradient_6)" fill-rule="nonzero" opacity="1" stroke="none" vectornator:layerName="Curve 1"/>
<path d="M364.793 211.305C364.793 201.648 380.45 193.82 399.763 193.82C419.077 193.82 434.734 201.648 434.734 211.305C434.734 220.962 419.076 228.558 399.763 228.79C381.122 229.014 364.793 220.962 364.793 211.305Z" fill="#e8bfbc" fill-rule="nonzero" opacity="1" stroke="none" vectornator:layerName="Oval 1"/>
<path d="M373.693 211.457C373.693 205.558 385.188 200.776 399.367 200.776C413.546 200.776 425.041 205.558 425.041 211.457C425.041 217.355 413.546 222.137 399.367 222.137C385.188 222.137 373.693 217.355 373.693 211.457Z" fill="url(#LinearGradient_7)" fill-rule="nonzero" opacity="1" stroke="none" vectornator:layerName="Oval 2"/>
<path d="M389.912 227.375C389.912 227.375 389.651 181.858 381.569 143.843C373.488 105.827 357.036 72.5661 357.036 72.5661" fill="none" opacity="1" stroke="#4d7b54" stroke-linecap="butt" stroke-linejoin="round" stroke-width="2.34353" vectornator:layerName="Curve 2"/>
<path d="M407.373 226.925C407.373 226.925 406.662 194.244 417.036 151.933C427.41 109.622 444.688 80.6562 444.688 80.6562" fill="none" opacity="1" stroke="#4d7b54" stroke-linecap="butt" stroke-linejoin="round" stroke-width="2.34353" vectornator:layerName="Curve 4"/>
<path d="M364.793 211.305L373.827 211.051C373.827 211.051 373.306 214.662 378.234 217.358C383.52 220.251 394.447 222.242 399.725 222.242C405.327 222.242 415.742 220.095 420.923 217.133C425.313 214.624 424.965 211.224 424.965 211.224L434.734 211.305C434.734 211.305 434.474 217.483 429.414 221.253C422.999 226.034 410.56 228.661 399.763 228.79C391.764 228.887 379.085 226.84 373.045 223.148C365.01 218.236 364.793 211.305 364.793 211.305Z" fill="#e8bfbc" fill-rule="nonzero" opacity="1" stroke="none" vectornator:layerName="Oval 3"/>
<path d="M446.829 78.9267C446.829 78.9267 440.153 87.5067 443.035 102.306C445.916 117.105 457.276 127.358 457.276 127.358C457.276 127.358 461.245 116.697 460.59 102.159C459.936 87.6223 456.084 80.3237 456.084 80.3237L446.829 78.9267Z" fill="url(#LinearGradient_8)" fill-rule="nonzero" opacity="1" stroke="none" vectornator:layerName="Curve 6"/>
<path d="M455.858 81.404C455.858 81.404 465.146 91.2268 475.282 101.56C485.418 111.894 495.365 110.762 495.365 110.762C495.365 110.762 497.474 104.896 489.018 92.7564C480.562 80.6167 462.578 74.1787 462.578 74.1787L455.858 81.404Z" fill="url(#LinearGradient_9)" fill-rule="nonzero" opacity="1" stroke="none" vectornator:layerName="Curve 7"/>
<path d="M460.788 75.7528C460.788 75.7528 475.009 77.2217 486.335 71.6238C497.661 66.0259 501.847 58.0538 501.847 58.0538C501.847 58.0538 486.984 53.4887 474.096 56.9386C461.208 60.3884 454.54 67.1607 454.54 67.1607L460.788 75.7528Z" fill="url(#LinearGradient_10)" fill-rule="nonzero" opacity="1" stroke="none" vectornator:layerName="Curve 8"/>
<path d="M454.341 71.2004C454.341 71.2004 462.011 61.9627 465.266 49.3349C468.52 36.7071 462.289 27.468 462.289 27.468C462.289 27.468 450.26 31.6037 444.922 41.8232C439.585 52.0426 443.023 69.0334 443.023 69.0334L454.341 71.2004Z" fill="url(#LinearGradient_11)" fill-rule="nonzero" opacity="1" stroke="none" vectornator:layerName="Curve 9"/>
<path d="M444.559 67.6633C444.559 67.6633 440.681 62.0639 430.45 53.6769C420.218 45.2899 394.105 50.5356 394.105 50.5356C394.105 50.5356 405.863 54.3746 408.384 59.5523C414.142 71.3786 441.817 74.2421 441.817 74.2421L444.559 67.6633Z" fill="url(#LinearGradient_12)" fill-rule="nonzero" opacity="1" stroke="none" vectornator:layerName="Curve 10"/>
<path d="M440.919 70.5932C440.919 70.5932 428.011 79.7765 420.116 88.1809C412.221 96.5852 412.299 118.408 412.299 118.408C412.299 118.408 422.106 107.298 432.308 100.618C442.51 93.9373 446.589 78.8342 446.589 78.8342L440.919 70.5932Z" fill="url(#LinearGradient_13)" fill-rule="nonzero" opacity="1" stroke="none" vectornator:layerName="Curve 11"/>
<path d="M439.132 68.2972C440.651 64.5697 447.148 63.6937 453.642 66.3404C460.137 68.9871 464.171 74.1544 462.652 77.8819C461.133 81.6093 454.636 82.4854 448.142 79.8386C441.647 77.1919 437.613 72.0246 439.132 68.2972Z" fill="url(#RadialGradient)" fill-rule="nonzero" opacity="1" stroke="none" vectornator:layerName="Oval 4"/>
<path d="M360.277 63.3913C360.277 63.3913 374.119 71.5333 383.667 71.3852C387.916 71.3194 392.192 67.8619 396.1 67.3378C400.974 66.6842 405.04 68.9452 405.04 68.9452C405.04 68.9452 394.022 52.002 384.555 50.0682C375.088 48.1344 360.601 55.064 360.601 55.064L360.277 63.3913Z" fill="url(#LinearGradient_14)" fill-rule="nonzero" opacity="1" stroke="none" vectornator:layerName="Curve 13"/>
<path d="M359.985 55.8245C359.985 55.8245 370.224 49.1716 371.603 39.4723C373.699 24.7254 375.867 20 375.867 20C375.867 20 357.117 26.5205 350.09 34.8003C343.062 43.0802 347.758 53.1193 347.758 53.1193L359.985 55.8245Z" fill="url(#LinearGradient_15)" fill-rule="nonzero" opacity="1" stroke="none" vectornator:layerName="Curve 14"/>
<path d="M347.559 54.637C347.559 54.637 345.635 45.8289 339.565 38.9453C333.496 32.0617 318.407 25.8309 318.407 25.8309C318.407 25.8309 319.802 42.3501 324.17 51.0842C328.537 59.8183 340.749 62.0388 340.749 62.0388L347.559 54.637Z" fill="url(#LinearGradient_16)" fill-rule="nonzero" opacity="1" stroke="none" vectornator:layerName="Curve 15"/>
<path d="M345.496 69.094C345.496 69.094 330.73 83.3239 331.313 92.3309C331.895 101.338 346.784 107.166 346.784 107.166C346.784 107.166 348.691 100.066 349.962 90.8474C351.234 81.6285 353.588 67.5807 353.588 67.5807L345.496 69.094Z" fill="url(#LinearGradient_17)" fill-rule="nonzero" opacity="1" stroke="none" vectornator:layerName="Curve 17"/>
<path d="M352.22 68.9085C352.22 68.9085 353.724 84.1346 362.066 93.7367C370.409 103.339 382.187 107.506 382.187 107.506C382.187 107.506 383.33 95.8547 377.449 84.7084C371.569 73.5621 360.369 62.7315 360.369 62.7315L352.22 68.9085Z" fill="url(#LinearGradient_18)" fill-rule="nonzero" opacity="1" stroke="none" vectornator:layerName="Curve 12"/>
<path d="M340.263 61.062C340.263 61.062 322.491 62.1486 314.144 67.9539C305.797 73.7592 308.767 88.0666 308.767 88.0666C308.767 88.0666 303.667 83.8679 327.178 80.5371C337.572 79.0646 344.811 69.9032 344.811 69.9032L340.263 61.062Z" fill="url(#LinearGradient_19)" fill-rule="nonzero" opacity="1" stroke="none" vectornator:layerName="Curve 16"/>
<path d="M339.609 65.7904C337.832 61.8282 341.579 56.2899 347.979 53.4202C354.378 50.5506 361.006 51.4363 362.783 55.3986C364.56 59.3608 360.812 64.8991 354.413 67.7688C348.013 70.6384 341.385 69.7527 339.609 65.7904Z" fill="url(#RadialGradient_2)" fill-rule="nonzero" opacity="1" stroke="none" vectornator:layerName="Oval 5"/>
<path d="M364.793 378.811C364.793 378.811 366.602 387.601 399.333 389.143C431.76 390.67 434.734 378.811 434.734 378.811L424.171 339.728C424.171 339.728 417.171 356.234 402.031 356.256C386.89 356.278 373.806 350.753 373.806 350.753L364.793 378.811Z" fill="url(#LinearGradient_20)" fill-rule="nonzero" opacity="1" stroke="none" vectornator:layerName="Curve 18"/>
<path d="M679.527 387.953L679.527 422.923C679.527 422.923 680.073 430.607 676.221 438.658C674.282 442.71 670.491 445.266 667.931 448.105C658.716 458.324 634.813 464.908 634.813 464.908C634.813 464.908 657.551 448.809 662.833 430.456C665.263 422.01 668.025 402.464 668.025 402.464C668.025 402.464 671.652 399.388 675.767 395.003C679.881 390.618 679.527 387.953 679.527 387.953Z" fill="#bfaeac" fill-rule="nonzero" opacity="1" stroke="none" vectornator:layerName="Curve 21"/>
<path d="M679.527 387.953L679.527 422.923C679.527 422.923 681.07 432.868 674.074 441.896C667.078 450.923 651.543 459.032 651.543 459.032C651.543 459.032 665.462 446.896 670.743 428.544C676.364 409.012 679.527 387.953 679.527 387.953Z" fill="#b3a7a6" fill-rule="nonzero" opacity="1" stroke="none" vectornator:layerName="Curve 20"/>
<path d="M120 387.953L120.112 423.779C120.112 423.779 120.027 433.021 124.67 440.604C129.213 448.023 138.981 454.302 138.981 454.302C138.981 454.302 128.81 440.812 126.565 427.245C124.319 413.679 123.905 395.51 123.905 395.51C123.905 395.51 123.442 395.204 122.095 393.113C119.216 388.645 120 387.953 120 387.953Z" fill="#d6cecd" fill-rule="nonzero" opacity="1" stroke="none" vectornator:layerName="Curve 22"/>
</g>
</svg>
