<svg xmlns="http://www.w3.org/2000/svg" xmlns:vectornator="http://vectornator.io" xml:space="preserve" stroke-miterlimit="10" style="fill-rule:nonzero;clip-rule:evenodd;stroke-linecap:round;stroke-linejoin:round" viewBox="0 0 200 100"><g vectornator:layerName="Layer 1"><path vectornator:layerName="Curve 1" fill="#797979" fill-opacity=".713" d="M13.195 52.388 82.61 15.022s14.286 9.265 40.909 17.628c26.624 8.363 65.585 15.824 65.585 15.824l-60.843 41.755s-33.04-7.413-61.806-16.873c-28.767-9.46-53.261-20.968-53.261-20.968Z"/><path vectornator:layerName="Curve 2" fill="#fff" d="m10.896 50.043 66.51-40.272s14.772 10.64 42.122 19.728c27.35 9.09 67.277 16.63 67.277 16.63l-60.842 41.755S89.103 80.34 60.336 70.88c-28.767-9.46-49.44-20.838-49.44-20.838Z"/><g vectornator:layerName="Group 1" fill="none" stroke="#757373" stroke-width=".5"><path vectornator:layerName="Curve 3" d="M29.469 51.005c0-6.934-.382 1.568 3.926-1.904 1.608-1.296-.462-6.484 1.51-5.72 2.11.817 14.675-6.603 17.517-9.029"/><path vectornator:layerName="Curve 4" d="M43.097 58.24c0 .499-.015-1-.122-1.488-.184-.84-.63-1.67-1.042-2.435-.141-.261-.68-.983-.485-.754.635.746 3.35 3.044 4.629 2.608 1.537-.524.366-3.534 1.049-3.802.869-.341 2.587 1.314 2.791.468.185-.768-1.358-2.196-.509-2.311 1.127-.154 5.413.132 6.099-1.058.437-.758-1.622-3.922-.394-4.56 1.09-.564 1.844 2.136 1.844-.946"/><path vectornator:layerName="Curve 5" d="M61.116 40c.641-.424-.257-2.795.14-2.169 1.858 2.937 2.203.505 3.822-.381.923-.505 2.023.388 2.843-.533 1.53-1.72 2.124-4.83 4.028-6.27.436-.33 1.347.214 1.853.088 2.133-.53 5.38-2.889 6.546-4.492"/><path vectornator:layerName="Curve 6" d="M54.864 62.202c0-.61.003-1.22 0-1.83-.017-2.861 1.288.675 2.59-.904 1.878-2.28-1.531-7.486 3.525-5.367"/><path vectornator:layerName="Curve 7" d="M67.38 49.963c-.812 0-2.708-1.33-1.9-1.396 1.327-.11 3.492.814 4.717.043 1.766-1.111.535-4.231 2.604-4.231"/><path vectornator:layerName="Curve 8" d="M79.787 41.402c0 .715.273-1.497-.054-2.147-.27-.536 1.854.653 1.932.067.193-1.44-.237-4.554 1.121-5.555 3.108-2.291 13.465-.75 13.465-6.103"/><path vectornator:layerName="Curve 9" d="M69.578 61.019v-2.426c0-3.782.13.47 2.4-.705 1.163-.602.747-3.15 1.402-3.466.291-.14 2.041 2.67 3.008 1.917.254-.198.322-.684.345-.936.288-3.168 2.064-3.32 2.86-5.934l.229-.749"/><path vectornator:layerName="Curve 10" d="M88.592 45.786v-2.519c0-2.859 1.333-.24 3.167-.851.56-.186.376-1.562.871-1.567.567-.005.915.824 1.5.744.917-.124.544-2.575.72-3.148.144-.466 2.338-.545 2.72-.651 1.197-.332 1.875-1.364 2.807-2.048"/><path vectornator:layerName="Curve 11" d="M77.527 69.127c-.653.339-1.488-1.302-1.02-1.84.939-1.079 1.966 1.285 2.473-1.26.282-1.412.854-4.268 2.035-4.837.69-.334 3.554 2.444 4.182 2.967"/><path vectornator:layerName="Curve 12" d="M90.722 58.288c0-.447-.043-.925-.218-1.346-.768-1.843 1.939.041 2.54-1.067.78-1.439-.607-4.535.967-2.894.153.16.198-1.581.281-1.623 1.374-.683 3.681.116 5.248-.727"/><path vectornator:layerName="Curve 13" d="M102.078 45.5v-3.066c0-.043-.024-.164 0-.127 2.287 3.535 3.702-1.04 5.151-2.397 1.207-1.13 3.188-1.06 4.145-2.781"/></g></g></svg>