<svg xmlns="http://www.w3.org/2000/svg" xmlns:vectornator="http://vectornator.io" xml:space="preserve" stroke-miterlimit="10" style="fill-rule:nonzero;clip-rule:evenodd;stroke-linecap:round;stroke-linejoin:round" viewBox="0 0 800 1200"><defs><linearGradient id="b" x1="0" x2="1" y1="0" y2="0" gradientTransform="matrix(-33.7244 -2.59419 .00665 -33.7244 41.043 622.864)" gradientUnits="userSpaceOnUse"><stop offset="0" stop-color="#f0d581"/><stop offset=".494" stop-color="#b8995f"/><stop offset="1" stop-color="#f1cd4b"/></linearGradient><linearGradient id="c" x1="0" x2="1" y1="0" y2="0" gradientTransform="matrix(1.63568 -33.735 22.4828 -.134 384.901 38.203)" gradientUnits="userSpaceOnUse"><stop offset="0" stop-color="#f0d581"/><stop offset=".494" stop-color="#b8995f"/><stop offset="1" stop-color="#f1cd4b"/></linearGradient><linearGradient id="d" x1="0" x2="1" y1="0" y2="0" gradientTransform="matrix(33.7239 2.60095 -.0134 33.7244 764.185 577.355)" gradientUnits="userSpaceOnUse"><stop offset="0" stop-color="#f0d581"/><stop offset=".494" stop-color="#b8995f"/><stop offset="1" stop-color="#f1cd4b"/></linearGradient><linearGradient id="e" x1="0" x2="1" y1="0" y2="0" gradientTransform="matrix(-1.77566 33.719 -22.4744 -.07697 415.404 1159.68)" gradientUnits="userSpaceOnUse"><stop offset="0" stop-color="#f0d581"/><stop offset=".494" stop-color="#b8995f"/><stop offset="1" stop-color="#f1cd4b"/></linearGradient></defs><clipPath id="a"><path d="M0 0h800v1200H0z"/></clipPath><g vectornator:layerName="Layer 3" clip-path="url(#a)"><path vectornator:layerName="Curve 4" fill="url(#b)" d="m0-.411 40.493 39.287V1159.48L0 1200"/><path vectornator:layerName="Curve 5" fill="url(#c)" d="m800 0-39.885 39.287H32.369L0 0"/><path vectornator:layerName="Curve 6" fill="url(#d)" d="m800 1200-39.885-40.11V39.287L800 0"/><path vectornator:layerName="Curve 7" fill="url(#e)" d="m0 1200 40.46-40.88 719.655.77L800 1200"/><path vectornator:layerName="Curve 8" fill="#fff" d="M50.821 49.589h698.684V1149.59H50.821V49.589Z"/><path vectornator:layerName="Curve 9" fill="#9c8461" d="M40.493 39.287h719.622l-10.61 10.302H48.513l-8.02-10.302Z"/><path vectornator:layerName="Curve 10" fill="#9c8461" d="m40.46 39.287.033 1119.833 10.328-9.53L50.8 49.526 40.461 39.287Z"/><path vectornator:layerName="Curve 11" fill="#ab9c7f" d="m40.46 1159.12 10.34-9.53h701.132l8.183 10.3-719.654-.77Z"/><path vectornator:layerName="Curve 12" fill="#ab9c7f" d="M760.115 1159.89V39.287l-10.4 9.933-.21 1100.37 10.61 10.3Z"/></g><g vectornator:layerName="Layer 2"><path vectornator:layerName="Curve 1" fill="#ffdcdd" d="M150 150v900h500V150"/><path vectornator:layerName="Curve 6" fill="#e9e3e3" d="M560 600h60l.568 450h-60.32L560 600Z"/><path vectornator:layerName="Curve 12" fill="#f5f5f5" d="m620 600 19.597-9.099-55.097-.829L570.527 600H620Z"/><path vectornator:layerName="Curve 13" fill="#cbb" d="m620.038 599.982 19.639-9.123.355 459.141h-19.308l-.686-450.018Z"/><path vectornator:layerName="Curve 2" fill="#9fb5a2" d="m520 360-80.007 175.64-.233 514.36h161.325l-1.082-528.463L520 360Z"/><path vectornator:layerName="Curve 3" fill="#bfbfbf" d="M220 460h180l.513 590H221.027L220 460Z"/><path vectornator:layerName="Curve 4" fill="#b49db5" d="m180 600-.178 450h160.691L340 600H180Z"/><path vectornator:layerName="Curve 5" fill="#758677" d="M521.618 363.236 560 540l39.708-19.059-78.09-157.705Z"/><path vectornator:layerName="Curve 7" fill="#a4a4a4" d="m400 460 20-20 .006 610h-19.504L400 460Z"/><path vectornator:layerName="Curve 8" fill="#e9e3e3" d="m220 460 20-20h180l-19.839 19.839L220 460Z"/><path vectornator:layerName="Curve 9" fill="#ebdbf1" d="M180.86 600 200 580h160l-20 20H180.86Z"/><path vectornator:layerName="Curve 10" fill="#87748c" d="M339.884 600 360 580l.914 470h-22.19l1.16-450Z"/><path vectornator:layerName="Curve 14" fill="#839686" d="m560 540-.161 510h41.141l-1.359-529.235L560 540Z"/></g></svg>