<svg xmlns="http://www.w3.org/2000/svg" xmlns:vectornator="http://vectornator.io" xml:space="preserve" stroke-miterlimit="10" style="fill-rule:nonzero;clip-rule:evenodd;stroke-linecap:round;stroke-linejoin:round" viewBox="0 0 1200 1600"><defs><linearGradient id="c" x1="0" x2="1" y1="0" y2="0" gradientTransform="matrix(20 0 0 20 1160 800)" gradientUnits="userSpaceOnUse"><stop offset="0" stop-color="#efda99"/><stop offset="1" stop-color="#ffea9f"/></linearGradient><linearGradient id="d" x1="0" x2="1" y1="0" y2="0" gradientTransform="rotate(179.893 581.951 785.165) scale(1136.53199)" gradientUnits="userSpaceOnUse"><stop offset="0" stop-color="#efda99"/><stop offset="1" stop-color="#ffea9f"/></linearGradient><linearGradient id="e" x1="0" x2="1" y1="0" y2="0" gradientTransform="rotate(-179.941 581.648 14.796) scale(1129.7106)" gradientUnits="userSpaceOnUse"><stop offset=".358" stop-color="#a99040"/><stop offset=".744" stop-color="#ceb461"/></linearGradient><linearGradient id="f" x1="0" x2="1" y1="0" y2="0" gradientTransform="scale(-1528.85218) rotate(89.903 .502 -.52)" gradientUnits="userSpaceOnUse"><stop offset=".358" stop-color="#a99040"/><stop offset=".744" stop-color="#ceb461"/></linearGradient><radialGradient id="b" cx="0" cy="0" r="1" gradientTransform="matrix(898.473 1177.1 -1324.23 798.643 428.737 466.038)" gradientUnits="userSpaceOnUse"><stop offset="0" stop-color="#fff"/><stop offset=".55" stop-color="#eeca5a"/><stop offset="1" stop-color="#d4b965"/></radialGradient></defs><clipPath id="a"><path d="M0 0h1200v1600H0z"/></clipPath><g vectornator:layerName="Layer 1" clip-path="url(#a)"><path vectornator:layerName="Curve 4" fill="url(#b)" d="M0 0h1200v1600H0"/><path vectornator:layerName="Curve 5" fill="#fff" d="M40 40v1520h1120V40H40Z"/><path vectornator:layerName="Curve 7" fill="#7f7666" d="m40 40 8.638 9.869L1154.2 47.078 1160 40H40Z"/><path vectornator:layerName="Curve 13" fill="url(#c)" d="m1180 20-20 20v1520l20 20V20Z"/><path vectornator:layerName="Curve 14" fill="url(#d)" d="m20 1580 20-20h1120l20 20H20Z"/><path vectornator:layerName="Curve 11" fill="url(#e)" d="m20 20 20 20h1120l20-20H20Z"/><path vectornator:layerName="Curve 12" fill="url(#f)" d="m20 20 20 20v1520l-20 20V20Z"/><path vectornator:layerName="Curve 15" fill="#7f7666" d="m1160 40-5.86 5.924.87 1508.736 4.99 5.34V40Z"/><path vectornator:layerName="Curve 16" fill="#7f7666" d="m40 40 9 9.387-.375 1503.443L40 1560V40Z"/><path vectornator:layerName="Curve 17" fill="#7f7666" d="M40 1560h1120l-4.54-6.11L49 1552.21l-9 7.79Z"/></g><g vectornator:layerName="Layer 2"><path vectornator:layerName="Curve 1" fill="#f4d7d7" d="M140 140h920v660H140V140Z"/><path vectornator:layerName="Curve 3" fill="#c5dfe5" d="M140 800h920v660H140V800Z"/><path vectornator:layerName="Curve 6" fill="#f2ece5" d="M305.6 385.143s100.241-33.899 202.4-18.857c70.702 10.41 132.787 69.644 202.4 75.428 80.254 6.669 111.884-26.259 202.4-18.857 101.45 8.296 147.2 56.572 147.2 56.572V800H305.6V385.143Z"/><path vectornator:layerName="Curve 4" fill="#93b894" d="M140 234.286V800h846.4s-59.8-66-184-132-227.492-74.982-312.8-132C278 394.571 140 234.286 140 234.286Z"/><path vectornator:layerName="Curve 5" fill="#719672" d="M140 309.714V800h588.8s6.765-18.63-92-75.429c-27.047-15.554-199.644-67.935-239.2-94.285-40.085-26.703-78.2-75.429-128.8-150.857C218.2 404 140 309.714 140 309.714Z"/><path vectornator:layerName="Curve 7" fill="#49654a" d="M140 1460h368s-30.639-56.65-92-207.43c-22.307-54.81-57.661-255.213-92-320.57-109.587-208.575-184-226.286-184-226.286"/><g vectornator:layerName="Group 1" fill="#2d362d"><path vectornator:layerName="Curve 8" d="m444.604 972.616-10 488.884h20l-10-488.884Z"/><path vectornator:layerName="Curve 9" d="m446.527 969.957-40 168.893h80l-40-168.893Z"/><path vectornator:layerName="Curve 10" d="m445.306 1086.3-44.739 168.89h89.478l-44.739-168.89Z"/><path vectornator:layerName="Curve 11" d="M445.57 1152.55 398.044 1322h95.052l-47.526-169.45Z"/><path vectornator:layerName="Curve 12" d="m446.472 1022.58-41.951 170h83.902l-41.951-170Z"/><path vectornator:layerName="Curve 13" d="m445.317 1221.9-57.003 168.33h114.007l-57.004-168.33Z"/></g><g vectornator:layerName="Group 2" fill="#2d362d"><path vectornator:layerName="Curve 8" d="m371.042 907.349-9.447 551.941h18.893l-9.446-551.941Z"/><path vectornator:layerName="Curve 9" d="m373.518 904.691-40 168.889h80l-40-168.889Z"/><path vectornator:layerName="Curve 10" d="m372.296 1021.03-44.739 168.89h89.478l-44.739-168.89Z"/><path vectornator:layerName="Curve 11" d="m372.56 1087.28-47.526 169.45h95.052l-47.526-169.45Z"/><path vectornator:layerName="Curve 12" d="m373.462 957.313-41.951 170.007h83.902l-41.951-170.007Z"/><path vectornator:layerName="Curve 13" d="m372.307 1156.64-57.003 168.33h114.007l-57.004-168.33Z"/></g></g></svg>