<svg xmlns="http://www.w3.org/2000/svg" xmlns:vectornator="http://vectornator.io" xml:space="preserve" stroke-miterlimit="10" style="fill-rule:nonzero;clip-rule:evenodd;stroke-linecap:round;stroke-linejoin:round" viewBox="0 0 1200 1200"><defs><linearGradient id="b" x1="0" x2="1" y1="0" y2="0" gradientTransform="matrix(1.81932 271.818 -271.988 1.81818 578.22 492.853)" gradientUnits="userSpaceOnUse"><stop offset="0" stop-color="#a4b49c"/><stop offset=".544" stop-color="#607f60"/><stop offset="1" stop-color="#5b825d"/></linearGradient><linearGradient id="c" x1="0" x2="1" y1="0" y2="0" gradientTransform="matrix(2.0248 -271.829 271.998 2.02354 599.477 1043.06)" gradientUnits="userSpaceOnUse"><stop offset="0" stop-color="#c9d7c3"/><stop offset=".458" stop-color="#a8c4aa"/><stop offset="1" stop-color="#a8c4aa"/></linearGradient><radialGradient id="a" cx="0" cy="0" r="1" gradientTransform="matrix(388.989 384.135 -576.203 259.326 251.715 245.539)" gradientUnits="userSpaceOnUse"><stop offset="0" stop-color="#fffcee"/><stop offset="1" stop-color="#eeca5a"/></radialGradient></defs><g vectornator:layerName="Layer 3"><path vectornator:layerName="Curve 4" fill="url(#a)" d="M0 0h1200v1200H0"/><path vectornator:layerName="Curve 5" fill="#fff" d="m74.939 1129.22 1049.701-.31L1124.42 70H74.73"/><path vectornator:layerName="Curve 6" fill="#ada08d" d="M60.015 60.02 1139.98 60l-15 9.824L74.985 70l-14.97-9.98Z"/><path vectornator:layerName="Curve 7" fill="#ada08d" d="m60.015 60-.205 1080 14.8-9.26.12-1061.604L60.015 60Z"/><path vectornator:layerName="Curve 8" fill="#d4c9b2" d="m56.283 1139.75 15.512-10.53 1056.515.33 15.1 10.45-1087.127-.25Z"/><path vectornator:layerName="Curve 9" fill="#a79d88" d="M1139.75 1140 1140 60l-15.28 9.573-.3 1060.317 15.33 10.11Z"/></g><g vectornator:layerName="Layer 2"><path vectornator:layerName="Curve 1" fill="#fce3e2" d="M100.277 100H1100v537.02H100.277V100Z"/><path vectornator:layerName="Curve 8" fill="#fff2eb" d="m100 599.704.277-271.541s308.625-114.995 454.007-93.096 119.045 65.065 185.414 134.762c66.37 69.698 124.944 268.684-14.327 321.747-139.271 53.062-307.83 59.59-462.693 34.533C107.815 701.051 100 599.704 100 599.704Z"/><path vectornator:layerName="Curve 7" fill="#ffe4c1" d="M174.416 464.082c4.535-62.636 169.771-107.716 238.642-106.526 68.872 1.19 153.19 90.309 179.691 142.233 26.5 51.924 43.08 57.727 13.037 112.478s-33.302 97.004-133.209 106.526c-99.906 9.522-193.861-33.178-266.417-68.439-72.557-35.26-36.278-123.636-31.744-186.272Z"/><path vectornator:layerName="Oval 1" fill="#fffec1" d="M352.459 538.839c0-21.91 17.525-39.671 39.144-39.671s39.145 17.761 39.145 39.671c0 21.909-17.526 39.67-39.145 39.67-21.619 0-39.144-17.761-39.144-39.67Z"/><path vectornator:layerName="Curve 5" fill="#d1e7e1" d="M100.277 773.757H1100V1100H100.277V773.757Z"/><path vectornator:layerName="Curve 3" fill="url(#b)" d="M100.277 763.934H1100V627.197s-154.434-65.222-263.068-59.431c-108.635 5.79-308.522 42.703-410.638.723-102.117-41.979-120.947-114.357-215.821-56.454-94.874 57.902-110.196 80.261-110.196 80.261v171.638Z"/><path vectornator:layerName="Curve 9" fill="#e3efee" d="M133.677 1100h519.902s76.199-111.042 46.157-163.121c-30.043-52.08-127.252-99.341-227.159-108.398-99.906-9.057-264.531 28.234-337.087 61.774C62.933 923.796 133.677 1100 133.677 1100Z"/><path vectornator:layerName="Oval 2" fill="#faf9dc" d="M352.459 1007.56c0-21.908 17.525-39.669 39.144-39.669s39.145 17.761 39.145 39.669c0 21.91-17.526 39.67-39.145 39.67-21.619 0-39.144-17.76-39.144-39.67Z"/><path vectornator:layerName="Curve 4" fill="url(#c)" d="M100.277 773.757H1100v132.828s-154.434 69.131-263.068 63.341c-108.635-5.791-308.522-42.703-410.638-.724-102.117 41.978-120.947 114.358-215.821 56.458-94.874-57.906-110.196-80.265-110.196-80.265V773.757Z"/><path vectornator:layerName="Curve 2" fill="#fffdfd" fill-opacity=".518" d="m100 791.061 999.72-.347v-5.293H100v5.64Z"/><path vectornator:layerName="Curve 6" fill="#fffdfd" fill-opacity=".518" d="m100.277 806.542 999.443-.174v-2.647H100.277v2.821Z"/></g></svg>