<?xml version="1.0" encoding="UTF-8" standalone="no"?>
<!DOCTYPE svg PUBLIC "-//W3C//DTD SVG 1.1//EN" "http://www.w3.org/Graphics/SVG/1.1/DTD/svg11.dtd">
<!-- Created with Vectornator (http://vectornator.io/) -->
<svg height="100%" stroke-miterlimit="10" style="fill-rule:nonzero;clip-rule:evenodd;stroke-linecap:round;stroke-linejoin:round;" version="1.1" viewBox="0 0 1200 375" width="100%" xml:space="preserve" xmlns="http://www.w3.org/2000/svg" xmlns:vectornator="http://vectornator.io" xmlns:xlink="http://www.w3.org/1999/xlink">
<defs>
<linearGradient gradientTransform="matrix(13.8963 16.0742 -16.0742 13.8963 108.374 26.088)" gradientUnits="userSpaceOnUse" id="LinearGradient" x1="0" x2="1" y1="0" y2="0">
<stop offset="0" stop-color="#fcf8f5"/>
<stop offset="0.0850112" stop-color="#d4d4d4"/>
<stop offset="0.161074" stop-color="#f3eee9"/>
<stop offset="0.223714" stop-color="#d4d4d4"/>
<stop offset="0.322148" stop-color="#f3eee9"/>
<stop offset="0.407159" stop-color="#d4d4d4"/>
<stop offset="0.497571" stop-color="#f3eee9"/>
<stop offset="0.574944" stop-color="#d4d4d4"/>
<stop offset="0.658505" stop-color="#f3eee9"/>
<stop offset="0.737259" stop-color="#d4d4d4"/>
<stop offset="0.81832" stop-color="#f3eee9"/>
<stop offset="0.898962" stop-color="#d4d4d4"/>
<stop offset="0.97623" stop-color="#f3eee9"/>
</linearGradient>
<linearGradient gradientTransform="matrix(40 0 0 40 80 167.903)" gradientUnits="userSpaceOnUse" id="LinearGradient_2" x1="0" x2="1" y1="0" y2="0">
<stop offset="0" stop-color="#658b78"/>
<stop offset="0.31875" stop-color="#94bca8"/>
<stop offset="1" stop-color="#658b78"/>
</linearGradient>
<linearGradient gradientTransform="matrix(18.278 14.8231 -17.7266 15.2842 145.852 67.1158)" gradientUnits="userSpaceOnUse" id="LinearGradient_3" x1="0" x2="1" y1="0" y2="0">
<stop offset="0" stop-color="#fcf8f5"/>
<stop offset="0.0850112" stop-color="#d4d4d4"/>
<stop offset="0.161074" stop-color="#f3eee9"/>
<stop offset="0.223714" stop-color="#d4d4d4"/>
<stop offset="0.322148" stop-color="#f3eee9"/>
<stop offset="0.407159" stop-color="#d4d4d4"/>
<stop offset="0.497571" stop-color="#f3eee9"/>
<stop offset="0.574944" stop-color="#d4d4d4"/>
<stop offset="0.658505" stop-color="#f3eee9"/>
<stop offset="0.737259" stop-color="#d4d4d4"/>
<stop offset="0.81832" stop-color="#f3eee9"/>
<stop offset="0.898962" stop-color="#d4d4d4"/>
<stop offset="0.97623" stop-color="#f3eee9"/>
</linearGradient>
<linearGradient gradientTransform="matrix(40.1174 -2.69317e-14 -3.10023e-15 40.1174 121.918 186.956)" gradientUnits="userSpaceOnUse" id="LinearGradient_4" x1="0" x2="1" y1="0" y2="0">
<stop offset="0" stop-color="#6d97a3"/>
<stop offset="0.317673" stop-color="#9ec0ca"/>
<stop offset="1" stop-color="#6d97a3"/>
</linearGradient>
<linearGradient gradientTransform="matrix(18.278 16.0715 -17.7266 16.5714 194.077 49.3046)" gradientUnits="userSpaceOnUse" id="LinearGradient_5" x1="0" x2="1" y1="0" y2="0">
<stop offset="0" stop-color="#fcf8f5"/>
<stop offset="0.0850112" stop-color="#d4d4d4"/>
<stop offset="0.161074" stop-color="#f3eee9"/>
<stop offset="0.223714" stop-color="#d4d4d4"/>
<stop offset="0.322148" stop-color="#f3eee9"/>
<stop offset="0.407159" stop-color="#d4d4d4"/>
<stop offset="0.497571" stop-color="#f3eee9"/>
<stop offset="0.574944" stop-color="#d4d4d4"/>
<stop offset="0.658505" stop-color="#f3eee9"/>
<stop offset="0.737259" stop-color="#d4d4d4"/>
<stop offset="0.81832" stop-color="#f3eee9"/>
<stop offset="0.898962" stop-color="#d4d4d4"/>
<stop offset="0.97623" stop-color="#f3eee9"/>
</linearGradient>
<linearGradient gradientTransform="matrix(40.1174 7.38734e-14 5.44012e-15 40.1174 170.143 179.237)" gradientUnits="userSpaceOnUse" id="LinearGradient_6" x1="0" x2="1" y1="0" y2="0">
<stop offset="0" stop-color="#be7373"/>
<stop offset="0.317673" stop-color="#dc9d9d"/>
<stop offset="1" stop-color="#be7373"/>
</linearGradient>
<linearGradient gradientTransform="matrix(14.8944 13.609 -14.4756 14.0027 237.537 41.6096)" gradientUnits="userSpaceOnUse" id="LinearGradient_7" x1="0" x2="1" y1="0" y2="0">
<stop offset="0" stop-color="#fcf8f5"/>
<stop offset="0.0850112" stop-color="#d4d4d4"/>
<stop offset="0.161074" stop-color="#f3eee9"/>
<stop offset="0.223714" stop-color="#d4d4d4"/>
<stop offset="0.322148" stop-color="#f3eee9"/>
<stop offset="0.407159" stop-color="#d4d4d4"/>
<stop offset="0.497571" stop-color="#f3eee9"/>
<stop offset="0.574944" stop-color="#d4d4d4"/>
<stop offset="0.658505" stop-color="#f3eee9"/>
<stop offset="0.737259" stop-color="#d4d4d4"/>
<stop offset="0.81832" stop-color="#f3eee9"/>
<stop offset="0.898962" stop-color="#d4d4d4"/>
<stop offset="0.97623" stop-color="#f3eee9"/>
</linearGradient>
<linearGradient gradientTransform="matrix(30.6616 -0.265772 0.300697 30.6616 214.343 175.757)" gradientUnits="userSpaceOnUse" id="LinearGradient_8" x1="0" x2="1" y1="0" y2="0">
<stop offset="0" stop-color="#b79d69"/>
<stop offset="0.317673" stop-color="#eed6a6"/>
<stop offset="1" stop-color="#b79d69"/>
</linearGradient>
<linearGradient gradientTransform="matrix(14.827 10.7452 -12.2086 13.0498 273.074 56.8448)" gradientUnits="userSpaceOnUse" id="LinearGradient_9" x1="0" x2="1" y1="0" y2="0">
<stop offset="0" stop-color="#fcf8f5"/>
<stop offset="0.0850112" stop-color="#d4d4d4"/>
<stop offset="0.161074" stop-color="#f3eee9"/>
<stop offset="0.223714" stop-color="#d4d4d4"/>
<stop offset="0.322148" stop-color="#f3eee9"/>
<stop offset="0.407159" stop-color="#d4d4d4"/>
<stop offset="0.497571" stop-color="#f3eee9"/>
<stop offset="0.574944" stop-color="#d4d4d4"/>
<stop offset="0.658505" stop-color="#f3eee9"/>
<stop offset="0.737259" stop-color="#d4d4d4"/>
<stop offset="0.81832" stop-color="#f3eee9"/>
<stop offset="0.898962" stop-color="#d4d4d4"/>
<stop offset="0.97623" stop-color="#f3eee9"/>
</linearGradient>
<linearGradient gradientTransform="matrix(29.4259 -5.5635e-14 2.63124e-14 27.548 252.304 182.152)" gradientUnits="userSpaceOnUse" id="LinearGradient_10" x1="0" x2="1" y1="0" y2="0">
<stop offset="0" stop-color="#597dac"/>
<stop offset="0.317673" stop-color="#a5c3ea"/>
<stop offset="1" stop-color="#597dac"/>
</linearGradient>
<linearGradient gradientTransform="matrix(18.8495 11.9906 -12.7203 17.7682 307.782 17.797)" gradientUnits="userSpaceOnUse" id="LinearGradient_11" x1="0" x2="1" y1="0" y2="0">
<stop offset="0" stop-color="#fcf8f5"/>
<stop offset="0.0833333" stop-color="#d4d4d4"/>
<stop offset="0.166667" stop-color="#f3eee9"/>
<stop offset="0.25" stop-color="#d4d4d4"/>
<stop offset="0.333333" stop-color="#f3eee9"/>
<stop offset="0.416667" stop-color="#d4d4d4"/>
<stop offset="0.5" stop-color="#f3eee9"/>
<stop offset="0.583333" stop-color="#d4d4d4"/>
<stop offset="0.666667" stop-color="#f3eee9"/>
<stop offset="0.75" stop-color="#d4d4d4"/>
<stop offset="0.833333" stop-color="#f3eee9"/>
<stop offset="0.916667" stop-color="#d4d4d4"/>
<stop offset="1" stop-color="#f3eee9"/>
</linearGradient>
<linearGradient gradientTransform="matrix(37.281 -1.23685e-13 2.17781e-14 39.9283 288.545 161.422)" gradientUnits="userSpaceOnUse" id="LinearGradient_12" x1="0" x2="1" y1="0" y2="0">
<stop offset="0" stop-color="#886b64"/>
<stop offset="0.317673" stop-color="#bfaaa5"/>
<stop offset="1" stop-color="#886b64"/>
</linearGradient>
<linearGradient gradientTransform="matrix(13.6754 13.4637 -9.44079 17.0654 342.535 49.0626)" gradientUnits="userSpaceOnUse" id="LinearGradient_13" x1="0" x2="1" y1="0" y2="0">
<stop offset="0" stop-color="#fcf8f5"/>
<stop offset="0.0833333" stop-color="#d4d4d4"/>
<stop offset="0.166667" stop-color="#f3eee9"/>
<stop offset="0.25" stop-color="#d4d4d4"/>
<stop offset="0.333333" stop-color="#f3eee9"/>
<stop offset="0.416667" stop-color="#d4d4d4"/>
<stop offset="0.5" stop-color="#f3eee9"/>
<stop offset="0.583333" stop-color="#d4d4d4"/>
<stop offset="0.666667" stop-color="#f3eee9"/>
<stop offset="0.75" stop-color="#d4d4d4"/>
<stop offset="0.833333" stop-color="#f3eee9"/>
<stop offset="0.916667" stop-color="#d4d4d4"/>
<stop offset="1" stop-color="#f3eee9"/>
</linearGradient>
<linearGradient gradientTransform="matrix(36.7274 -7.61342 4.44956 37.4689 331.92 169.973)" gradientUnits="userSpaceOnUse" id="LinearGradient_14" x1="0" x2="1" y1="0" y2="0">
<stop offset="0" stop-color="#a86793"/>
<stop offset="0.289583" stop-color="#cea3c0"/>
<stop offset="1" stop-color="#a86793"/>
</linearGradient>
</defs>
<g id="Layer-1" vectornator:layerName="Layer 1">
<path d="M20 303.493L20 363.493L1180 363.493L1180 303.493L20 303.493Z" fill="#ebe0db" fill-rule="nonzero" opacity="1" stroke="none" vectornator:layerName="Curve 1"/>
<path d="M20 303.493L60 243.493L1140 243.493L1180 303.493L20 303.493Z" fill="#faf4f1" fill-rule="nonzero" opacity="1" stroke="none" vectornator:layerName="Curve 2"/>
<path d="M80 42.1854L101.593 25.2804L100.111 260.681L80 283.075L80 42.1854Z" fill="#658b78" fill-rule="nonzero" opacity="1" stroke="none" vectornator:layerName="Curve 3"/>
<path d="M82.8732 46.8209C82.8732 46.8209 83.4856 48.0069 91.2263 50.4409C100.777 53.4441 112.194 47.6199 112.194 47.6199L123.504 41.9066L137.636 29.8711L101.558 30.9084L82.8732 46.8209Z" fill="url(#LinearGradient)" fill-rule="nonzero" opacity="1" stroke="none" vectornator:layerName="Curve 4"/>
<path d="M120 43.4927L141.593 26.7728L140.111 262.173L120 283.493L120 43.4927Z" fill="#658b78" fill-rule="nonzero" opacity="1" stroke="none" vectornator:layerName="Curve 5"/>
<path d="M80 43.4927L80 283.493C80 283.493 81.293 288.267 90.7523 291.511C102.297 295.47 120 283.493 120 283.493L120 43.4927C120 43.4927 104.741 53.8483 91.2263 50.4409C81.5297 47.996 80 43.4927 80 43.4927Z" fill="url(#LinearGradient_2)" fill-rule="nonzero" opacity="1" stroke="none" vectornator:layerName="Curve 6"/>
<path d="M150.556 73.6814L121.918 82.9343L116.497 282.248L132.792 290.325L151.588 260.789L150.556 73.6814Z" fill="#464342" fill-opacity="0.298126" fill-rule="nonzero" opacity="1" stroke="none" vectornator:layerName="Curve 7"/>
<path d="M121.973 82.7259L141.041 67.8217L140.72 267.457L122.09 283.416L121.973 82.7259Z" fill="#6d97a3" fill-rule="nonzero" opacity="1" stroke="none" vectornator:layerName="Curve 8"/>
<path d="M123.904 85.0777C123.904 85.0777 125.406 86.7078 133.148 88.7399C142.701 91.2473 150.26 87.6096 152.163 87.0374C156.371 85.7721 161.918 82.918 161.918 82.918L176.343 71.6433L140.832 72.2662L123.904 85.0777Z" fill="url(#LinearGradient_3)" fill-rule="nonzero" opacity="1" stroke="none" vectornator:layerName="Curve 9"/>
<path d="M161.918 82.918L180.987 68.0138L180.666 267.649L162.036 283.608L161.918 82.918Z" fill="#6d97a3" fill-rule="nonzero" opacity="1" stroke="none" vectornator:layerName="Curve 10"/>
<path d="M121.918 82.9343L122.036 283.624C122.036 283.624 123.331 287.617 132.792 290.325C144.339 293.631 162.036 283.608 162.036 283.608L161.918 82.918C161.918 82.918 146.664 91.5837 133.148 88.7399C123.45 86.6995 121.918 82.9343 121.918 82.9343Z" fill="url(#LinearGradient_4)" fill-rule="nonzero" opacity="1" stroke="none" vectornator:layerName="Curve 11"/>
<path d="M195.167 72.4101L170.143 66.4553L162.036 283.608L181.016 291.311L194.87 262.239L195.167 72.4101Z" fill="#464342" fill-opacity="0.298126" fill-rule="nonzero" opacity="1" stroke="none" vectornator:layerName="Curve 12"/>
<path d="M170.197 66.3512L189.266 50.1919L188.944 266.639L170.314 283.942L170.197 66.3512Z" fill="#be7373" fill-rule="nonzero" opacity="1" stroke="none" vectornator:layerName="Curve 13"/>
<path d="M172.129 68.7791C172.129 68.7791 173.631 70.5465 181.372 72.7497C190.925 75.4683 198.485 71.5243 200.388 70.9038C204.595 69.532 210.143 66.4375 210.143 66.4375L224.568 54.2133L189.235 54.8853L172.129 68.7791Z" fill="url(#LinearGradient_5)" fill-rule="nonzero" opacity="1" stroke="none" vectornator:layerName="Curve 14"/>
<path d="M210.143 66.4375L229.211 50.2782L228.89 266.726L210.26 284.029L210.143 66.4375Z" fill="#be7373" fill-rule="nonzero" opacity="1" stroke="none" vectornator:layerName="Curve 15"/>
<path d="M170.143 66.4553L170.26 284.046C170.26 284.046 171.555 288.375 181.016 291.311C192.563 294.895 210.26 284.029 210.26 284.029L210.143 66.4375C210.143 66.4375 194.889 75.833 181.372 72.7497C171.675 70.5375 170.143 66.4553 170.143 66.4553Z" fill="url(#LinearGradient_6)" fill-rule="nonzero" opacity="1" stroke="none" vectornator:layerName="Curve 16"/>
<path d="M244.588 61.4207L214.343 58.8077L205.109 283.703L225.217 291.974L243.533 276.942L244.588 61.4207Z" fill="#464342" fill-opacity="0.298126" fill-rule="nonzero" opacity="1" stroke="none" vectornator:layerName="Curve 17"/>
<path d="M214.397 59.0672L232.31 41.6551L232.388 269.428L214.515 284.7L214.397 59.0672Z" fill="#b79d69" fill-rule="nonzero" opacity="1" stroke="none" vectornator:layerName="Curve 18"/>
<path d="M216.893 61.7299C216.893 61.7299 216.568 63.1005 224.404 65.0382C228.433 66.0345 230.669 65.5326 234.406 65.1728C238.827 64.7471 244.446 61.1809 244.446 61.1809L259.204 46.7421L232.353 46.6986L216.893 61.7299Z" fill="url(#LinearGradient_7)" fill-rule="nonzero" opacity="1" stroke="none" vectornator:layerName="Curve 19"/>
<path d="M214.343 58.8077L214.461 284.44C214.461 284.44 215.507 289.851 225.217 291.974C234.649 294.035 245.831 285.488 245.831 285.488L245.714 59.8559C245.714 59.8559 235.881 67.6179 225.573 65.3348C215.843 63.1799 214.343 58.8077 214.343 58.8077Z" fill="url(#LinearGradient_8)" fill-rule="nonzero" opacity="1" stroke="none" vectornator:layerName="Curve 20"/>
<path d="M245.714 59.8559L263.626 42.4437L263.704 270.217L245.831 285.488L245.714 59.8559Z" fill="#b79d69" fill-rule="nonzero" opacity="1" stroke="none" vectornator:layerName="Curve 21"/>
<path d="M260.73 68.7175L252.304 73.0066L245.829 281.823L258.645 290.171L260.478 281.324L260.73 68.7175Z" fill="#464342" fill-opacity="0.298126" fill-rule="nonzero" opacity="1" stroke="none" vectornator:layerName="Curve 22"/>
<path d="M252.358 72.9634L267.494 57.3745L267.259 266.204L252.472 282.896L252.358 72.9634Z" fill="#597dac" fill-rule="nonzero" opacity="1" stroke="none" vectornator:layerName="Curve 23"/>
<path d="M254.29 75.2625C254.29 75.2625 254.529 77.0253 262.365 78.8394C266.394 79.7721 267.501 79.6207 271.229 79.2075C277.912 78.467 281.73 74.4635 281.73 74.4635L293.63 62.0631L267.491 61.8462L254.29 75.2625Z" fill="url(#LinearGradient_9)" fill-rule="nonzero" opacity="1" stroke="none" vectornator:layerName="Curve 24"/>
<path d="M281.087 74.982L296.139 57.413L295.988 268.222L281.201 284.915L281.087 74.982Z" fill="#597dac" fill-rule="nonzero" opacity="1" stroke="none" vectornator:layerName="Curve 25"/>
<path d="M252.304 73.0066L252.422 284.239C252.422 284.239 256.194 291.136 263.178 291.292C273.667 291.525 281.201 284.915 281.201 284.915L281.73 74.4635C281.73 74.4635 273.842 81.2545 263.534 79.1171C253.804 77.0997 252.304 73.0066 252.304 73.0066Z" fill="url(#LinearGradient_10)" fill-rule="nonzero" opacity="1" stroke="none" vectornator:layerName="Curve 26"/>
<path d="M308.887 51.1398L289.494 49.6673L281.218 278.196L293.53 287.71L318.239 270.062L308.887 51.1398Z" fill="#464342" fill-opacity="0.298126" fill-rule="nonzero" opacity="1" stroke="none" vectornator:layerName="Curve 27"/>
<path d="M289.494 32.559L304.911 11.8176L304.864 261.733L288.596 282.093L289.494 32.559Z" fill="#886b64" fill-rule="nonzero" opacity="1" stroke="none" vectornator:layerName="Curve 28"/>
<path d="M324.257 33.7187L341.243 11.5073L341.197 261.423L324.95 281.948L324.257 33.7187Z" fill="#886b64" fill-rule="nonzero" opacity="1" stroke="none" vectornator:layerName="Curve 29"/>
<path d="M292.494 37.4731C292.494 37.4731 292.85 41.1777 300.686 43.1206C304.715 44.1195 305.144 45.0402 311.429 42.3222C317.714 39.6043 325.826 32.2487 325.826 32.2487L336.031 18.5198L304.909 19.4524L292.494 37.4731Z" fill="url(#LinearGradient_11)" fill-rule="nonzero" opacity="1" stroke="none" vectornator:layerName="Curve 30"/>
<path d="M289.494 32.559L288.545 283.531C288.545 283.531 292.289 289.814 301.836 289.153C311.383 288.492 324.95 281.948 324.95 281.948L325.826 32.2487C325.826 32.2487 314.371 38.9135 304.906 39.1964C295.441 39.4793 289.494 32.559 289.494 32.559Z" fill="url(#LinearGradient_12)" fill-rule="nonzero" opacity="1" stroke="none" vectornator:layerName="Curve 31"/>
<path d="M336.685 60.9563L325.352 70.6826L336.444 270.701L354.09 288.607L361.619 267.001L336.685 60.9563Z" fill="#464342" fill-opacity="0.298126" fill-rule="nonzero" opacity="1" stroke="none" vectornator:layerName="Curve 32"/>
<path d="M325.352 70.6826L338.257 45.3336L364.849 255.634L351.215 286.069L325.352 70.6826Z" fill="#a86793" fill-rule="nonzero" opacity="1" stroke="none" vectornator:layerName="Curve 33"/>
<path d="M329.755 72.8751C329.755 72.8751 326.694 75.0946 336.806 74.3136C354.174 72.972 356.235 63.9505 356.235 63.9505L365.21 46.3207L339.239 53.1014L329.755 72.8751Z" fill="url(#LinearGradient_13)" fill-rule="nonzero" opacity="1" stroke="none" vectornator:layerName="Curve 34"/>
<path d="M354.377 67.0298L369.139 38.6016L397.014 259.044L382.582 282.488L354.377 67.0298Z" fill="#a86793" fill-rule="nonzero" opacity="1" stroke="none" vectornator:layerName="Curve 35"/>
<path d="M325.352 70.6826L351.215 286.069C351.215 286.069 354.956 291.106 362.848 291.175C374.026 291.272 382.582 282.488 382.582 282.488L356.235 63.9505C356.235 63.9505 353.957 72.508 336.806 74.3136C329.496 75.0832 325.352 70.6826 325.352 70.6826Z" fill="url(#LinearGradient_14)" fill-rule="nonzero" opacity="1" stroke="none" vectornator:layerName="Curve 36"/>
</g>
</svg>
