<svg xmlns="http://www.w3.org/2000/svg" xmlns:vectornator="http://vectornator.io" xml:space="preserve" stroke-miterlimit="10" style="fill-rule:nonzero;clip-rule:evenodd;stroke-linecap:round;stroke-linejoin:round" viewBox="0 0 800 800"><defs><linearGradient id="a" x1="0" x2="1" y1="0" y2="0" gradientTransform="rotate(41 -515 515) scale(515)" gradientUnits="userSpaceOnUse"><stop offset="0" stop-color="#f8de8c"/><stop offset=".2" stop-color="#eed687"/><stop offset=".8" stop-color="#907058"/></linearGradient><linearGradient id="b" x1="0" x2="1" y1="0" y2="0" gradientTransform="rotate(44 -280 359) scale(542)" gradientUnits="userSpaceOnUse"><stop offset="0" stop-color="#bc7682"/><stop offset=".3" stop-color="#bc7682"/><stop offset=".8" stop-color="#df95a0"/></linearGradient></defs><g vectornator:layerName="Layer 1"><path vectornator:layerName="Curve 7" fill="#474747" fill-opacity=".3" d="m657 783 143-194H666l-9 194Z"/><path vectornator:layerName="Curve 2" fill="#836e5a" stroke="#836e5a" stroke-linecap="butt" stroke-width="2" d="m17 133 24-48s9-17 16-22c5-4 15-4 15-4h541s9 0 14 4l6 9 34 61"/><path vectornator:layerName="Curve 1" fill="#fff9f2" d="M0 743s3 26 17 40 40 17 40 17h570s25-3 40-17c14-14 17-40 17-40V173s-3-25-17-40c-15-14-40-17-40-17H57s-26 3-40 17C3 148 0 173 0 173v570Z"/><path vectornator:layerName="Curve 3" fill="#514e4b" d="M17 729s3 24 16 38c14 13 38 16 38 16h542s24-3 37-16c14-14 17-38 17-38V187s-3-24-17-37c-13-14-37-17-37-17H71s-24 3-38 17c-13 13-16 37-16 37v542Z"/><path vectornator:layerName="Curve 4" fill="#fff9f2" d="M33 715s3 23 16 36 36 16 36 16h514s23-3 36-16 15-36 15-36V201s-2-23-15-36a69 69 0 0 0-36-15H85s-23 2-36 15-16 36-16 36v514Z"/><path vectornator:layerName="Oval 1" fill="#514e4b" d="M79 207a13 13 0 1 1 25 0 13 13 0 0 1-25 0Z"/><path vectornator:layerName="Oval 3" fill="#514e4b" d="M79 709a13 13 0 1 1 25 0 13 13 0 0 1-25 0Z"/><path vectornator:layerName="Oval 4" fill="#514e4b" d="M580 709a13 13 0 1 1 25 0 13 13 0 0 1-25 0Z"/><path vectornator:layerName="Oval 2" fill="#514e4b" d="M580 207a13 13 0 1 1 25 0 13 13 0 0 1-25 0Z"/><path vectornator:layerName="Oval 5" fill="url(#a)" stroke="#62564a" stroke-linecap="butt" stroke-width="2" d="M71 458a271 271 0 1 1 542 0 271 271 0 0 1-542 0Z"/><path vectornator:layerName="Oval 6" fill="url(#b)" stroke="#805362" stroke-linecap="butt" stroke-width="2" d="M104 458a238 238 0 1 1 476 0 238 238 0 0 1-476 0Z"/><path vectornator:layerName="Oval 7" fill="#eeb8bb" d="M137 458a205 205 0 1 1 410 0 205 205 0 0 1-410 0Z"/><path vectornator:layerName="Oval 14" fill="none" stroke="#925b6e" stroke-dasharray="0 0 0 5" stroke-linecap="butt" d="M148 458a194 194 0 1 1 388 0 194 194 0 0 1-388 0Z"/><path vectornator:layerName="Oval 15" fill="none" stroke="#925b6e" stroke-dasharray="0 0 0 5" stroke-linecap="butt" d="M153 458a188 188 0 1 1 376 0 188 188 0 0 1-376 0Z"/><path vectornator:layerName="Oval 16" fill="none" stroke="#925b6e" stroke-dasharray="0 0 0 5" stroke-linecap="butt" d="M160 458a182 182 0 1 1 364 0 182 182 0 0 1-364 0Z"/><path vectornator:layerName="Oval 17" fill="none" stroke="#925b6e" stroke-dasharray="0 0 0 5" stroke-linecap="butt" d="M165 458a177 177 0 1 1 354 0 177 177 0 0 1-354 0Z"/><path vectornator:layerName="Oval 18" fill="none" stroke="#925b6e" stroke-dasharray="0 0 0 5" stroke-linecap="butt" d="M171 458a171 171 0 1 1 342 0 171 171 0 0 1-342 0Z"/><path vectornator:layerName="Oval 19" fill="none" stroke="#925b6e" stroke-dasharray="0 0 0 5" stroke-linecap="butt" d="M177 458a165 165 0 1 1 330 0 165 165 0 0 1-330 0Z"/><path vectornator:layerName="Oval 20" fill="none" stroke="#925b6e" stroke-dasharray="0 0 0 5" stroke-linecap="butt" d="M182 458a160 160 0 1 1 319 0 160 160 0 0 1-319 0Z"/><path vectornator:layerName="Oval 21" fill="none" stroke="#925b6e" stroke-dasharray="0 0 0 5" stroke-linecap="butt" d="M188 458a154 154 0 1 1 308 0 154 154 0 0 1-308 0Z"/><path vectornator:layerName="Oval 22" fill="none" stroke="#925b6e" stroke-dasharray="0 0 0 5" stroke-linecap="butt" d="M194 458a148 148 0 1 1 296 0 148 148 0 0 1-296 0Z"/><path vectornator:layerName="Oval 23" fill="none" stroke="#925b6e" stroke-dasharray="0 0 0 5" stroke-linecap="butt" d="M199 458a142 142 0 1 1 285 0 142 142 0 0 1-285 0Z"/><path vectornator:layerName="Oval 24" fill="none" stroke="#925b6e" stroke-dasharray="0 0 0 5" stroke-linecap="butt" d="M205 458a137 137 0 1 1 274 0 137 137 0 0 1-274 0Z"/><path vectornator:layerName="Oval 25" fill="none" stroke="#925b6e" stroke-dasharray="0 0 0 5" stroke-linecap="butt" d="M211 458a131 131 0 1 1 262 0 131 131 0 0 1-262 0Z"/><path vectornator:layerName="Oval 26" fill="none" stroke="#925b6e" stroke-dasharray="0 0 0 5" stroke-linecap="butt" d="M217 458a125 125 0 1 1 250 0 125 125 0 0 1-250 0Z"/><path vectornator:layerName="Oval 27" fill="none" stroke="#925b6e" stroke-dasharray="0 0 0 5" stroke-linecap="butt" d="M222 458a120 120 0 1 1 240 0 120 120 0 0 1-240 0Z"/><path vectornator:layerName="Oval 28" fill="none" stroke="#925b6e" stroke-dasharray="0 0 0 5" stroke-linecap="butt" d="M228 458a114 114 0 1 1 228 0 114 114 0 0 1-228 0Z"/><path vectornator:layerName="Oval 29" fill="none" stroke="#925b6e" stroke-dasharray="0 0 0 5" stroke-linecap="butt" d="M234 458a108 108 0 1 1 216 0 108 108 0 0 1-216 0Z"/><path vectornator:layerName="Oval 30" fill="none" stroke="#925b6e" stroke-dasharray="0 0 0 5" stroke-linecap="butt" d="M239 458a103 103 0 1 1 205 0 103 103 0 0 1-205 0Z"/><path vectornator:layerName="Oval 31" fill="none" stroke="#925b6e" stroke-dasharray="0 0 0 5" stroke-linecap="butt" d="M245 458a97 97 0 1 1 194 0 97 97 0 0 1-194 0Z"/><path vectornator:layerName="Oval 32" fill="none" stroke="#925b6e" stroke-dasharray="0 0 0 5" stroke-linecap="butt" d="M251 458a91 91 0 1 1 182 0 91 91 0 0 1-182 0Z"/><path vectornator:layerName="Oval 33" fill="none" stroke="#925b6e" stroke-dasharray="0 0 0 5" stroke-linecap="butt" d="M256 458a85 85 0 1 1 171 0 85 85 0 0 1-171 0Z"/><path vectornator:layerName="Oval 8" fill="#353031" d="M275 458a66 66 0 1 1 132 0 66 66 0 0 1-132 0Z"/><path vectornator:layerName="Oval 9" fill="#f1cd7d" d="M288 458a54 54 0 1 1 108 0 54 54 0 0 1-108 0Z"/><path vectornator:layerName="Curve 6" fill="#908161" d="M324 407c-6 4-15 6-24 18-9 13-11 24-12 33-2 17 12 31 31 36 20 4 43-2 53-18 11-15 11-34 1-52-10-17-36-23-49-17Z"/><path vectornator:layerName="Curve 5" fill="#f1e2c0" d="M324 407c-6 4-15 6-24 18-9 13-11 24-12 33-2 17 14 22 28 15 13-6 23-26 25-43 2-16-4-29-17-23Z"/></g></svg>