<svg xmlns="http://www.w3.org/2000/svg" xmlns:vectornator="http://vectornator.io" xml:space="preserve" stroke-miterlimit="10" style="fill-rule:nonzero;clip-rule:evenodd;stroke-linecap:round;stroke-linejoin:round" viewBox="0 0 800 1000"><defs><linearGradient id="a" x1="0" x2="1" y1="0" y2="0" gradientTransform="matrix(520 0 0 520 140 893.229)" gradientUnits="userSpaceOnUse"><stop offset="0" stop-color="#74591e"/><stop offset=".268" stop-color="#96762e"/><stop offset="1" stop-color="#432c04"/></linearGradient><linearGradient id="b" x1="0" x2="1" y1="0" y2="0" gradientTransform="translate(120 448.253) scale(559.527)" gradientUnits="userSpaceOnUse"><stop offset="0" stop-color="#dfcdc5"/><stop offset="1" stop-color="#9a877c"/></linearGradient><linearGradient id="c" x1="0" x2="1" y1="0" y2="0" gradientTransform="matrix(520 0 0 520 140 926.426)" gradientUnits="userSpaceOnUse"><stop offset="0" stop-color="#775919"/><stop offset=".139" stop-color="#836522"/><stop offset=".259" stop-color="#9e7e37"/><stop offset=".525" stop-color="#77500d"/><stop offset="1" stop-color="#6e4705"/></linearGradient><linearGradient id="d" x1="0" x2="1" y1="0" y2="0" gradientTransform="matrix(65.1772 3.41662 -13.4132 65.1772 275.382 295.813)" gradientUnits="userSpaceOnUse"><stop offset="0" stop-color="#ebaea9"/><stop offset="1" stop-color="#c8a1a1"/></linearGradient><linearGradient id="e" x1="0" x2="1" y1="0" y2="0" gradientTransform="matrix(-.74716 -30.0649 1.51338 -.74716 305.083 227.885)" gradientUnits="userSpaceOnUse"><stop offset="0" stop-color="#ac9c9c"/><stop offset="1" stop-color="#725d5d"/></linearGradient><linearGradient id="f" x1="0" x2="1" y1="0" y2="0" gradientTransform="rotate(-99.28 237.398 -91.057) scale(54.14252)" gradientUnits="userSpaceOnUse"><stop offset="0" stop-color="#f9eee2"/><stop offset=".385" stop-color="#fff"/><stop offset="1" stop-color="#d5b8a3"/></linearGradient><linearGradient id="g" x1="0" x2="1" y1="0" y2="0" gradientTransform="rotate(48.725 98.414 449.721) scale(51.829)" gradientUnits="userSpaceOnUse"><stop offset="0" stop-color="#f9eee2"/><stop offset=".385" stop-color="#fff"/><stop offset="1" stop-color="#d5b8a3"/></linearGradient><linearGradient id="h" x1="0" x2="1" y1="0" y2="0" gradientTransform="rotate(6.279 -380.478 3402.186) scale(37.95892)" gradientUnits="userSpaceOnUse"><stop offset="0" stop-color="#f9eee2"/><stop offset=".385" stop-color="#fff"/><stop offset="1" stop-color="#d5b8a3"/></linearGradient><linearGradient id="i" x1="0" x2="1" y1="0" y2="0" gradientTransform="scale(-46.44228) rotate(-81.055 -4.325 4.338)" gradientUnits="userSpaceOnUse"><stop offset="0" stop-color="#f9eee2"/><stop offset=".385" stop-color="#fff"/><stop offset="1" stop-color="#d5b8a3"/></linearGradient><linearGradient id="j" x1="0" x2="1" y1="0" y2="0" gradientTransform="rotate(30.714 79.475 601.828) scale(38.4904)" gradientUnits="userSpaceOnUse"><stop offset="0" stop-color="#f9eee2"/><stop offset=".385" stop-color="#fff"/><stop offset="1" stop-color="#d5b8a3"/></linearGradient><linearGradient id="k" x1="0" x2="1" y1="0" y2="0" gradientTransform="scale(51.1723) rotate(-56.386 5.126 -4.747)" gradientUnits="userSpaceOnUse"><stop offset="0" stop-color="#f9eee2"/><stop offset=".385" stop-color="#fff"/><stop offset="1" stop-color="#d5b8a3"/></linearGradient><linearGradient id="m" x1="0" x2="1" y1="0" y2="0" gradientTransform="translate(268.693 54.646) scale(38.193)" gradientUnits="userSpaceOnUse"><stop offset="0" stop-color="#f9eee2"/><stop offset=".385" stop-color="#fff"/><stop offset="1" stop-color="#d5b8a3"/></linearGradient><linearGradient id="n" x1="0" x2="1" y1="0" y2="0" gradientTransform="scale(34.0363) rotate(-52.845 5.198 -7.145)" gradientUnits="userSpaceOnUse"><stop offset="0" stop-color="#f9eee2"/><stop offset=".385" stop-color="#fff"/><stop offset="1" stop-color="#d5b8a3"/></linearGradient><linearGradient id="o" x1="0" x2="1" y1="0" y2="0" gradientTransform="rotate(44.497 80.627 299.077) scale(34.1687)" gradientUnits="userSpaceOnUse"><stop offset="0" stop-color="#f9eee2"/><stop offset=".385" stop-color="#fff"/><stop offset="1" stop-color="#d5b8a3"/></linearGradient><linearGradient id="p" x1="0" x2="1" y1="0" y2="0" gradientTransform="scale(-38.37857) rotate(87.892 -1.94 -4.772)" gradientUnits="userSpaceOnUse"><stop offset="0" stop-color="#f9eee2"/><stop offset=".385" stop-color="#fff"/><stop offset="1" stop-color="#d5b8a3"/></linearGradient><linearGradient id="q" x1="0" x2="1" y1="0" y2="0" gradientTransform="scale(33.5954) rotate(50.889 1.757 9.417)" gradientUnits="userSpaceOnUse"><stop offset="0" stop-color="#f9eee2"/><stop offset=".385" stop-color="#fff"/><stop offset="1" stop-color="#d5b8a3"/></linearGradient><linearGradient id="r" x1="0" x2="1" y1="0" y2="0" gradientTransform="translate(222.559 66.759) scale(34.6402)" gradientUnits="userSpaceOnUse"><stop offset="0" stop-color="#f9eee2"/><stop offset=".385" stop-color="#fff"/><stop offset="1" stop-color="#d5b8a3"/></linearGradient><linearGradient id="t" x1="0" x2="1" y1="0" y2="0" gradientTransform="scale(69.018) rotate(69.279 -1.43 5.689)" gradientUnits="userSpaceOnUse"><stop offset="0" stop-color="#ebaea9" stop-opacity="0"/><stop offset="1" stop-color="#ae8c8c"/></linearGradient><radialGradient id="l" cx="0" cy="0" r="1" gradientTransform="rotate(82.304 144.812 235.144) scale(14.98185)" gradientUnits="userSpaceOnUse"><stop offset="0" stop-color="#e9d15d"/><stop offset="1" stop-color="#b08838"/></radialGradient><radialGradient id="s" cx="0" cy="0" r="1" gradientTransform="matrix(12.731 8.28996 -7.173 12.9407 256.258 55.239)" gradientUnits="userSpaceOnUse"><stop offset="0" stop-color="#e9d15d"/><stop offset="1" stop-color="#b08838"/></radialGradient></defs><g vectornator:layerName="Layer 1"><path vectornator:layerName="Oval 4" fill="none" stroke="#000" stroke-linecap="butt" stroke-opacity=".65" stroke-width="8" d="M147.48 919.721c0-19.74 113.955-35.742 254.526-35.742 140.57 0 254.525 16.002 254.525 35.742s-113.955 35.742-254.525 35.742c-140.571 0-254.526-16.002-254.526-35.742Z"/><path vectornator:layerName="Curve 15" fill="url(#a)" d="M140 899.459V920s.314-36.541 260-36.541 260 36.31 260 36.31v-20.31s.237-33-260-33-260 33-260 33Z"/><path vectornator:layerName="Curve 17" fill="#f0d070" d="M160 900h-20s.628-36 260.314-36C660 864 660 900 660 900h-20s0-27.747-240-27.747S160 900 160 900Z"/><path vectornator:layerName="Curve 13" fill="#d1aa3c" d="M139.957 426.644 140 900l19.998-.003-.02-465.539"/><path vectornator:layerName="Curve 21" fill="#e0b745" d="M147.257 432.994 151.706 900H160l-.011-459.61"/><path vectornator:layerName="Curve 20" fill="#eeca67" d="M152.777 436.2 160 900l-.011-459.61"/><path vectornator:layerName="Curve 18" fill="#6e582c" d="m159.988 426.912.043 473.356 7.94-6.751.776-464.376"/><path vectornator:layerName="Oval 3" fill="#fff5f1" d="M120 387.953C120 339.669 201.333 320 400 320s279.527 19.669 279.527 67.953C679.527 436.237 598.667 440 400 440c-198.667 0-280-3.763-280-52.047Z"/><path vectornator:layerName="Curve 1" fill="url(#b)" d="m120 387.953.064 20.664s.25 48.494 280.014 48.494c279.763 0 279.449-50.328 279.449-50.328v-18.83S679.763 440 400 440s-280-52.047-280-52.047Z"/><path vectornator:layerName="Curve 14" fill="url(#c)" d="M140 900v20s.628 32.852 260.314 32.852C660 952.852 660 920 660 920v-20s.473 35.741-259.763 35.741C140 935.741 140 900 140 900Z"/><path vectornator:layerName="Curve 16" fill="#f0d070" d="M160 900h-20s.628 36 260.314 36C660 936 660 900 660 900h-20s0 27.747-240 27.747S160 900 160 900Z"/><path vectornator:layerName="Curve 12" fill="#7b7878" fill-opacity=".386" d="M679.509 388v18.385s-.315 3.785-3.926 7.798c-1.46 1.623-3.087 3.524-6.454 5.756-4.521 2.997-10.792 6.179-10.792 6.179s7.292-3.098 12.539-12.882c4.536-8.458-2.007-11.526-2.007-11.526s7.567-6.673 8.824-8.879c1.256-2.206 1.816-4.831 1.816-4.831Z"/><path vectornator:layerName="Curve 10" fill="#605a59" fill-opacity=".611" d="M679.509 388.291v18.385s-.552 5.761-7.867 11.634c-7.315 5.872-9.03 5.812-9.03 5.812s7.893-5.149 11.2-13.383c2.752-6.852-1.05-12.596-1.05-12.596s4.598-4.2 5.444-5.952c.847-1.752 1.303-3.9 1.303-3.9Z"/><path vectornator:layerName="Curve 19" fill="#282828" fill-opacity=".518" d="m139.925 426.628.012 2.114 20.052 11.648 8.737 1.417.029-4.762s-8.839-2.455-16.128-5.082c-7.288-2.626-12.702-5.335-12.702-5.335Z"/><path vectornator:layerName="Curve 11" fill="#7b7878" fill-opacity=".386" d="m120 387.953.065 20.673s.252 2.341 2.254 5.019c2.784 3.722 5.978 5.938 5.978 5.938s-3.788-6.696-4.923-13.193c-1.31-7.502-1.185-13.137-1.185-13.137s.087.338-1.119-1.837c-1.065-1.923-1.07-3.463-1.07-3.463Z"/></g><g vectornator:layerName="Layer 3"><path vectornator:layerName="Curve 24" fill="#bbb5b4" fill-opacity=".267" d="M323.085 383h-31.511s16.874-14.228 48.435-37.879c21.18-15.872 32.929-25.045 32.929-25.045l84.914.565s-36.891 16.042-67.229 30.77C369.311 361.757 323.085 383 323.085 383Z"/><path vectornator:layerName="Curve 19" fill="#bbb5b4" fill-opacity=".484" d="M323.085 383h-31.511s37.108-25.553 55.367-37.943c16.89-11.461 36.456-24.976 36.456-24.976l63.858.335s-32.966 16.856-64.008 32.502C352.204 368.563 323.085 383 323.085 383Z"/><path vectornator:layerName="Curve 23" fill="#bbb5b4" fill-opacity=".531" d="M323.085 383h-31.511s39.959-20.13 64.753-38.054c16.639-12.028 37.679-24.809 37.679-24.809l35.787.022-59.435 34.968L323.085 383Z"/><path vectornator:layerName="Curve 1" fill="url(#d)" d="M273.208 206.462s-1.106 46.624 3.334 90.329C280.983 340.496 291.574 383 291.574 383s8.548 3.196 16.426 3.196c7.878 0 15.085-3.196 15.085-3.196s10.447-42.203 15.368-86.134c4.922-43.93 4.576-89.945 4.576-89.945s-5.039 15.642-34.85 15.789c-29.779.147-34.971-16.248-34.971-16.248Z"/><path vectornator:layerName="Oval 1" fill="#e8bfbc" d="M273.208 205.225c0-9.657 15.657-17.485 34.971-17.485 19.313 0 34.97 7.828 34.97 17.485s-15.658 17.253-34.97 17.485c-18.642.224-34.971-7.828-34.971-17.485Z"/><path vectornator:layerName="Oval 2" fill="url(#e)" d="M282.108 205.376c0-5.898 11.495-10.68 25.674-10.68s25.674 4.782 25.674 10.68c0 5.899-11.495 10.681-25.674 10.681s-25.674-4.782-25.674-10.681Z"/><path vectornator:layerName="Curve 2" fill="none" stroke="#4d7b54" stroke-linecap="butt" stroke-width="2.344" d="M298.245 216.625s-.179-40.848-8.261-78.863c-8.081-38.015-24.533-71.276-24.533-71.276"/><path vectornator:layerName="Curve 4" fill="none" stroke="#4d7b54" stroke-linecap="butt" stroke-width="2.344" d="M315.784 218.137s-.707-29.974 9.667-72.285c10.374-42.311 27.652-71.276 27.652-71.276"/><path vectornator:layerName="Oval 3" fill="#e8bfbc" d="m273.208 205.225 9.034-.255s-.521 3.611 4.407 6.308c5.286 2.892 16.213 4.884 21.491 4.884 5.602 0 16.017-2.147 21.199-5.109 4.389-2.509 4.041-5.909 4.041-5.909l9.769.081s-.26 6.177-5.32 9.948c-6.415 4.781-18.854 7.407-29.65 7.537-8 .096-20.679-1.95-26.719-5.643-8.035-4.911-8.252-11.842-8.252-11.842Z"/><path vectornator:layerName="Curve 6" fill="url(#f)" d="M355.244 72.846s-6.676 8.58-3.794 23.38c2.881 14.798 14.241 25.052 14.241 25.052s3.969-10.662 3.315-25.199c-.655-14.537-4.507-21.836-4.507-21.836l-9.255-1.397Z"/><path vectornator:layerName="Curve 7" fill="url(#g)" d="M364.273 75.324s9.288 9.823 19.424 20.156c10.136 10.333 20.083 9.201 20.083 9.201s2.109-5.865-6.347-18.005c-8.456-12.14-26.44-18.578-26.44-18.578l-6.72 7.226Z"/><path vectornator:layerName="Curve 8" fill="url(#h)" d="M369.204 69.672s14.22 1.47 25.546-4.129c11.326-5.597 15.512-13.57 15.512-13.57s-14.863-4.565-27.751-1.115c-12.888 3.45-19.556 10.222-19.556 10.222l6.249 8.593Z"/><path vectornator:layerName="Curve 9" fill="url(#i)" d="M362.757 65.12s7.669-9.238 10.924-21.866c3.254-12.627-2.977-21.866-2.977-21.866s-12.029 4.135-17.367 14.355c-5.337 10.22-1.899 27.21-1.899 27.21l11.319 2.167Z"/><path vectornator:layerName="Curve 10" fill="url(#j)" d="M352.974 61.583s-3.878-5.6-14.109-13.986c-10.232-8.387-36.345-3.142-36.345-3.142s11.758 3.84 14.279 9.017c5.758 11.826 33.433 14.69 33.433 14.69l2.742-6.579Z"/><path vectornator:layerName="Curve 11" fill="url(#k)" d="M349.334 64.513s-12.907 9.183-20.802 17.587c-7.895 8.405-7.818 30.227-7.818 30.227s9.807-11.109 20.009-17.79c10.202-6.68 14.281-21.783 14.281-21.783l-5.67-8.241Z"/><path vectornator:layerName="Oval 4" fill="url(#l)" d="M347.547 62.217c1.519-3.728 8.016-4.604 14.511-1.957 6.494 2.647 10.528 7.814 9.009 11.542-1.519 3.727-8.015 4.603-14.51 1.956-6.495-2.646-10.529-7.814-9.01-11.541Z"/><path vectornator:layerName="Curve 13" fill="url(#m)" d="M268.693 57.311s13.841 8.142 23.389 7.994c4.249-.066 8.525-3.523 12.433-4.048 4.874-.653 8.94 1.608 8.94 1.608s-11.017-16.943-20.485-18.877c-9.467-1.934-23.953 4.996-23.953 4.996l-.324 8.327Z"/><path vectornator:layerName="Curve 14" fill="url(#n)" d="M268.4 49.744s10.239-6.653 11.618-16.352c2.096-14.747 4.264-19.472 4.264-19.472s-18.75 6.52-25.777 14.8c-7.027 8.28-2.331 18.319-2.331 18.319l12.226 2.705Z"/><path vectornator:layerName="Curve 15" fill="url(#o)" d="M255.974 48.557s-1.924-8.808-7.994-15.692c-6.069-6.884-21.158-13.114-21.158-13.114s1.396 16.519 5.763 25.253c4.367 8.734 16.58 10.954 16.58 10.954l6.809-7.401Z"/><path vectornator:layerName="Curve 17" fill="url(#p)" d="M253.911 63.014s-14.766 14.23-14.183 23.237c.583 9.007 15.471 14.835 15.471 14.835s1.907-7.1 3.179-16.319c1.271-9.219 3.625-23.267 3.625-23.267l-8.092 1.514Z"/><path vectornator:layerName="Curve 12" fill="url(#q)" d="M260.635 62.828s1.504 15.226 9.847 24.828c8.343 9.602 20.12 13.769 20.12 13.769s1.143-11.65-4.737-22.797c-5.88-11.146-17.081-21.977-17.081-21.977l-8.149 6.177Z"/><path vectornator:layerName="Curve 16" fill="url(#r)" d="M248.678 54.982s-17.772 1.086-26.119 6.892c-8.347 5.805-5.376 20.112-5.376 20.112s-5.101-4.198 18.41-7.53c10.394-1.472 17.633-10.633 17.633-10.633l-4.548-8.841Z"/><path vectornator:layerName="Oval 5" fill="url(#s)" d="M248.024 59.71c-1.777-3.962 1.97-9.5 8.37-12.37 6.399-2.87 13.027-1.984 14.804 1.978 1.777 3.962-1.971 9.5-8.37 12.37-6.399 2.87-13.028 1.984-14.804-1.978Z"/><path vectornator:layerName="Curve 18" fill="url(#t)" d="M291.574 383s8.446 2.877 16.426 3.196c7.98.319 15.085-3.196 15.085-3.196s1.93-7.468 4.534-20.242c2.605-12.773 5.883-30.852 5.883-30.852s-7.915 18.248-23.056 18.27c-15.141.021-28.083-11.441-28.083-11.441s2.272 12.461 4.575 23.527A759.305 759.305 0 0 0 291.574 383Z"/><path vectornator:layerName="Curve 27" fill="#a48c8a" fill-opacity=".565" d="M323.085 383s10.352-41.69 15.368-86.134c4.376-38.776 4.564-88.265 4.564-88.265s-4.197 46.07-9.24 87.942c-5.007 41.579-15.741 88.322-15.741 88.322l5.049-1.865Z"/><path vectornator:layerName="Curve 32" fill="#a48c8a" fill-opacity=".565" d="M323.085 383s10.352-41.69 15.368-86.134c4.376-38.776 4.576-89.945 4.576-89.945s-1.298 3.477-2.193 4.944c-1.128 1.849-2.097 2.415-2.097 2.415s-4.34 55.287-7.797 83.995c-5.008 41.579-12.906 86.59-12.906 86.59l5.049-1.865Z"/><path vectornator:layerName="Curve 26" fill="#a48c8a" fill-opacity=".565" d="M323.085 383s10.352-41.69 15.368-86.134c4.376-38.776 4.534-84.703 4.534-84.703s-1.912 35.051-6.955 76.924c-5.008 41.578-15.622 95.011-15.622 95.011l2.675-1.098Z"/><path vectornator:layerName="Curve 25" fill="#a48c8a" fill-opacity=".565" d="M323.085 383s10.352-41.69 15.368-86.134c4.376-38.776 4.559-81.573 4.559-81.573s-2.019 39.121-5.663 80.841c-3.643 41.72-15.938 87.505-15.938 87.505l1.674-.639Z"/></g></svg>