<?xml version="1.0" encoding="UTF-8" standalone="no"?>
<!DOCTYPE svg PUBLIC "-//W3C//DTD SVG 1.1//EN" "http://www.w3.org/Graphics/SVG/1.1/DTD/svg11.dtd">
<!-- Created with Vectornator (http://vectornator.io/) -->
<svg height="100%" stroke-miterlimit="10" style="fill-rule:nonzero;clip-rule:evenodd;stroke-linecap:round;stroke-linejoin:round;" version="1.1" viewBox="0 0 800 1000" width="100%" xml:space="preserve" xmlns="http://www.w3.org/2000/svg" xmlns:vectornator="http://vectornator.io" xmlns:xlink="http://www.w3.org/1999/xlink">
<defs>
<linearGradient gradientTransform="matrix(520 0 0 520 140 893.229)" gradientUnits="userSpaceOnUse" id="LinearGradient" x1="0" x2="1" y1="0" y2="0">
<stop offset="0" stop-color="#74591e"/>
<stop offset="0.267897" stop-color="#96762e"/>
<stop offset="1" stop-color="#432c04"/>
</linearGradient>
<linearGradient gradientTransform="matrix(559.527 0 0 559.527 120 448.253)" gradientUnits="userSpaceOnUse" id="LinearGradient_2" x1="0" x2="1" y1="0" y2="0">
<stop offset="0" stop-color="#dfcdc5"/>
<stop offset="1" stop-color="#9a877c"/>
</linearGradient>
<linearGradient gradientTransform="matrix(520 0 0 520 140 926.426)" gradientUnits="userSpaceOnUse" id="LinearGradient_3" x1="0" x2="1" y1="0" y2="0">
<stop offset="0" stop-color="#775919"/>
<stop offset="0.138563" stop-color="#836522"/>
<stop offset="0.258861" stop-color="#9e7e37"/>
<stop offset="0.5255" stop-color="#77500d"/>
<stop offset="1" stop-color="#6e4705"/>
</linearGradient>
<linearGradient gradientTransform="matrix(65.1772 3.41662 -13.4132 65.1772 275.382 295.813)" gradientUnits="userSpaceOnUse" id="LinearGradient_4" x1="0" x2="1" y1="0" y2="0">
<stop offset="0" stop-color="#ebaea9"/>
<stop offset="1" stop-color="#c8a1a1"/>
</linearGradient>
<linearGradient gradientTransform="matrix(-0.747162 -30.0649 1.51338 -0.747162 305.083 227.885)" gradientUnits="userSpaceOnUse" id="LinearGradient_5" x1="0" x2="1" y1="0" y2="0">
<stop offset="0" stop-color="#ac9c9c"/>
<stop offset="1" stop-color="#725d5d"/>
</linearGradient>
<linearGradient gradientTransform="matrix(-8.73103 -53.4339 53.4339 -8.73103 365.547 128.55)" gradientUnits="userSpaceOnUse" id="LinearGradient_6" x1="0" x2="1" y1="0" y2="0">
<stop offset="0" stop-color="#f9eee2"/>
<stop offset="0.385417" stop-color="#ffffff"/>
<stop offset="1" stop-color="#d5b8a3"/>
</linearGradient>
<linearGradient gradientTransform="matrix(34.1901 38.9523 -38.9523 34.1901 371.483 79.09)" gradientUnits="userSpaceOnUse" id="LinearGradient_7" x1="0" x2="1" y1="0" y2="0">
<stop offset="0" stop-color="#f9eee2"/>
<stop offset="0.385417" stop-color="#ffffff"/>
<stop offset="1" stop-color="#d5b8a3"/>
</linearGradient>
<linearGradient gradientTransform="matrix(37.7312 4.15165 -4.15165 37.7312 369.822 62.0238)" gradientUnits="userSpaceOnUse" id="LinearGradient_8" x1="0" x2="1" y1="0" y2="0">
<stop offset="0" stop-color="#f9eee2"/>
<stop offset="0.385417" stop-color="#ffffff"/>
<stop offset="1" stop-color="#d5b8a3"/>
</linearGradient>
<linearGradient gradientTransform="matrix(-7.22144 45.8774 -45.8774 -7.22144 368.645 28.2601)" gradientUnits="userSpaceOnUse" id="LinearGradient_9" x1="0" x2="1" y1="0" y2="0">
<stop offset="0" stop-color="#f9eee2"/>
<stop offset="0.385417" stop-color="#ffffff"/>
<stop offset="1" stop-color="#d5b8a3"/>
</linearGradient>
<linearGradient gradientTransform="matrix(33.0911 19.6593 -19.6593 33.0911 318.537 43.8298)" gradientUnits="userSpaceOnUse" id="LinearGradient_10" x1="0" x2="1" y1="0" y2="0">
<stop offset="0" stop-color="#f9eee2"/>
<stop offset="0.385417" stop-color="#ffffff"/>
<stop offset="1" stop-color="#d5b8a3"/>
</linearGradient>
<linearGradient gradientTransform="matrix(28.3289 -42.6155 42.6155 28.3289 319.406 110.026)" gradientUnits="userSpaceOnUse" id="LinearGradient_11" x1="0" x2="1" y1="0" y2="0">
<stop offset="0" stop-color="#f9eee2"/>
<stop offset="0.385417" stop-color="#ffffff"/>
<stop offset="1" stop-color="#d5b8a3"/>
</linearGradient>
<radialGradient cx="0" cy="0" gradientTransform="matrix(2.00634 14.8469 -14.8469 2.00634 358.445 60.1471)" gradientUnits="userSpaceOnUse" id="RadialGradient" r="1">
<stop offset="0" stop-color="#e9d15d"/>
<stop offset="1" stop-color="#b08838"/>
</radialGradient>
<linearGradient gradientTransform="matrix(38.193 0 0 38.193 268.693 54.6464)" gradientUnits="userSpaceOnUse" id="LinearGradient_12" x1="0" x2="1" y1="0" y2="0">
<stop offset="0" stop-color="#f9eee2"/>
<stop offset="0.385417" stop-color="#ffffff"/>
<stop offset="1" stop-color="#d5b8a3"/>
</linearGradient>
<linearGradient gradientTransform="matrix(20.5572 -27.127 27.127 20.5572 263.888 44.7124)" gradientUnits="userSpaceOnUse" id="LinearGradient_13" x1="0" x2="1" y1="0" y2="0">
<stop offset="0" stop-color="#f9eee2"/>
<stop offset="0.385417" stop-color="#ffffff"/>
<stop offset="1" stop-color="#d5b8a3"/>
</linearGradient>
<linearGradient gradientTransform="matrix(24.3719 23.9481 -23.9481 24.3719 232.734 29.2415)" gradientUnits="userSpaceOnUse" id="LinearGradient_14" x1="0" x2="1" y1="0" y2="0">
<stop offset="0" stop-color="#f9eee2"/>
<stop offset="0.385417" stop-color="#ffffff"/>
<stop offset="1" stop-color="#d5b8a3"/>
</linearGradient>
<linearGradient gradientTransform="matrix(-1.41175 -38.3526 38.3526 -1.41175 254.757 101.96)" gradientUnits="userSpaceOnUse" id="LinearGradient_15" x1="0" x2="1" y1="0" y2="0">
<stop offset="0" stop-color="#f9eee2"/>
<stop offset="0.385417" stop-color="#ffffff"/>
<stop offset="1" stop-color="#d5b8a3"/>
</linearGradient>
<linearGradient gradientTransform="matrix(21.193 26.0674 -26.0674 21.193 267.279 70.9916)" gradientUnits="userSpaceOnUse" id="LinearGradient_16" x1="0" x2="1" y1="0" y2="0">
<stop offset="0" stop-color="#f9eee2"/>
<stop offset="0.385417" stop-color="#ffffff"/>
<stop offset="1" stop-color="#d5b8a3"/>
</linearGradient>
<linearGradient gradientTransform="matrix(34.6402 0 0 34.6402 222.559 66.7587)" gradientUnits="userSpaceOnUse" id="LinearGradient_17" x1="0" x2="1" y1="0" y2="0">
<stop offset="0" stop-color="#f9eee2"/>
<stop offset="0.385417" stop-color="#ffffff"/>
<stop offset="1" stop-color="#d5b8a3"/>
</linearGradient>
<radialGradient cx="0" cy="0" gradientTransform="matrix(12.731 8.28996 -7.173 12.9407 256.258 55.2385)" gradientUnits="userSpaceOnUse" id="RadialGradient_2" r="1">
<stop offset="0" stop-color="#e9d15d"/>
<stop offset="1" stop-color="#b08838"/>
</radialGradient>
<linearGradient gradientTransform="matrix(24.4203 64.5533 -64.5533 24.4203 303.459 346.04)" gradientUnits="userSpaceOnUse" id="LinearGradient_18" x1="0" x2="1" y1="0" y2="0">
<stop offset="0" stop-color="#ebaea9" stop-opacity="0"/>
<stop offset="1" stop-color="#ae8c8c"/>
</linearGradient>
</defs>
<g id="Layer-1" vectornator:layerName="Layer 1">
<path d="M147.48 919.721C147.48 899.981 261.435 883.979 402.006 883.979C542.576 883.979 656.531 899.981 656.531 919.721C656.531 939.461 542.576 955.463 402.006 955.463C261.435 955.463 147.48 939.461 147.48 919.721Z" fill="none" opacity="1" stroke="#000000" stroke-linecap="butt" stroke-linejoin="round" stroke-opacity="0.64991" stroke-width="8" vectornator:layerName="Oval 4"/>
<path d="M140 899.459L140 920C140 920 140.314 883.459 400 883.459C659.686 883.459 660 919.769 660 919.769L660 899.459C660 899.459 660.237 866.459 400 866.459C139.763 866.459 140 899.459 140 899.459Z" fill="url(#LinearGradient)" fill-rule="nonzero" opacity="1" stroke="none" vectornator:layerName="Curve 15"/>
<path d="M160 900L140 900C140 900 140.628 864 400.314 864C660 864 660 900 660 900L640 900C640 900 640 872.253 400 872.253C160 872.253 160 900 160 900Z" fill="#f0d070" fill-rule="nonzero" opacity="1" stroke="none" vectornator:layerName="Curve 17"/>
<path d="M139.957 426.644L140 900L159.998 899.997L159.978 434.458" fill="#d1aa3c" fill-rule="nonzero" opacity="1" stroke="none" vectornator:layerName="Curve 13"/>
<path d="M147.257 432.994L151.706 900L160 900L159.989 440.39" fill="#e0b745" fill-rule="nonzero" opacity="1" stroke="none" vectornator:layerName="Curve 21"/>
<path d="M152.777 436.2L160 900L159.989 440.39" fill="#eeca67" fill-rule="nonzero" opacity="1" stroke="none" vectornator:layerName="Curve 20"/>
<path d="M159.988 426.912L160.031 900.268L167.971 893.517L168.747 429.141" fill="#6e582c" fill-rule="nonzero" opacity="1" stroke="none" vectornator:layerName="Curve 18"/>
<path d="M120 387.953C120 339.669 201.333 320 400 320C598.667 320 679.527 339.669 679.527 387.953C679.527 436.237 598.667 440 400 440C201.333 440 120 436.237 120 387.953Z" fill="#fff5f1" fill-rule="nonzero" opacity="1" stroke="none" vectornator:layerName="Oval 3"/>
<path d="M120 387.953L120.064 408.617C120.064 408.617 120.314 457.111 400.078 457.111C679.841 457.111 679.527 406.783 679.527 406.783L679.527 387.953C679.527 387.953 679.763 440 400 440C120.237 440 120 387.953 120 387.953Z" fill="url(#LinearGradient_2)" fill-rule="nonzero" opacity="1" stroke="none" vectornator:layerName="Curve 1"/>
<path d="M140 900L140 920C140 920 140.628 952.852 400.314 952.852C660 952.852 660 920 660 920L660 900C660 900 660.473 935.741 400.237 935.741C140 935.741 140 900 140 900Z" fill="url(#LinearGradient_3)" fill-rule="nonzero" opacity="1" stroke="none" vectornator:layerName="Curve 14"/>
<path d="M160 900L140 900C140 900 140.628 936 400.314 936C660 936 660 900 660 900L640 900C640 900 640 927.747 400 927.747C160 927.747 160 900 160 900Z" fill="#f0d070" fill-rule="nonzero" opacity="1" stroke="none" vectornator:layerName="Curve 16"/>
<path d="M679.509 388L679.509 406.385C679.509 406.385 679.194 410.17 675.583 414.183C674.123 415.806 672.496 417.707 669.129 419.939C664.608 422.936 658.337 426.118 658.337 426.118C658.337 426.118 665.629 423.02 670.876 413.236C675.412 404.778 668.869 401.71 668.869 401.71C668.869 401.71 676.436 395.037 677.693 392.831C678.949 390.625 679.509 388 679.509 388Z" fill="#7b7878" fill-opacity="0.385965" fill-rule="nonzero" opacity="1" stroke="none" vectornator:layerName="Curve 12"/>
<path d="M679.509 388.291L679.509 406.676C679.509 406.676 678.957 412.437 671.642 418.31C664.327 424.182 662.612 424.122 662.612 424.122C662.612 424.122 670.505 418.973 673.812 410.739C676.564 403.887 672.762 398.143 672.762 398.143C672.762 398.143 677.36 393.943 678.206 392.191C679.053 390.439 679.509 388.291 679.509 388.291Z" fill="#605a59" fill-opacity="0.610588" fill-rule="nonzero" opacity="1" stroke="none" vectornator:layerName="Curve 10"/>
<path d="M139.925 426.628L139.937 428.742L159.989 440.39L168.726 441.807C168.726 441.807 168.755 437.045 168.755 437.045C168.755 437.045 159.916 434.59 152.627 431.963C145.339 429.337 139.925 426.628 139.925 426.628Z" fill="#282828" fill-opacity="0.51779" fill-rule="nonzero" opacity="1" stroke="none" vectornator:layerName="Curve 19"/>
<path d="M120 387.953L120.065 408.626C120.065 408.626 120.317 410.967 122.319 413.645C125.103 417.367 128.297 419.583 128.297 419.583C128.297 419.583 124.509 412.887 123.374 406.39C122.064 398.888 122.189 393.253 122.189 393.253C122.189 393.253 122.276 393.591 121.07 391.416C120.005 389.493 120 387.953 120 387.953Z" fill="#7b7878" fill-opacity="0.385965" fill-rule="nonzero" opacity="1" stroke="none" vectornator:layerName="Curve 11"/>
</g>
<g id="Layer-3" vectornator:layerName="Layer 3">
<path d="M323.085 383L291.574 383C291.574 383 308.448 368.772 340.009 345.121C361.189 329.249 372.938 320.076 372.938 320.076L457.852 320.641C457.852 320.641 420.961 336.683 390.623 351.411C369.311 361.757 323.085 383 323.085 383Z" fill="#bbb5b4" fill-opacity="0.267236" fill-rule="nonzero" opacity="1" stroke="none" vectornator:layerName="Curve 24"/>
<path d="M323.085 383L291.574 383C291.574 383 328.682 357.447 346.941 345.057C363.831 333.596 383.397 320.081 383.397 320.081L447.255 320.416C447.255 320.416 414.289 337.272 383.247 352.918C352.204 368.563 323.085 383 323.085 383Z" fill="#bbb5b4" fill-opacity="0.483821" fill-rule="nonzero" opacity="1" stroke="none" vectornator:layerName="Curve 19"/>
<path d="M323.085 383L291.574 383C291.574 383 331.533 362.87 356.327 344.946C372.966 332.918 394.006 320.137 394.006 320.137L429.793 320.159L370.358 355.127L323.085 383Z" fill="#bbb5b4" fill-opacity="0.530938" fill-rule="nonzero" opacity="1" stroke="none" vectornator:layerName="Curve 23"/>
<path d="M273.208 206.462C273.208 206.462 272.102 253.086 276.542 296.791C280.983 340.496 291.574 383 291.574 383C291.574 383 300.122 386.196 308 386.196C315.878 386.196 323.085 383 323.085 383C323.085 383 333.532 340.797 338.453 296.866C343.375 252.936 343.029 206.921 343.029 206.921C343.029 206.921 337.99 222.563 308.179 222.71C278.4 222.857 273.208 206.462 273.208 206.462Z" fill="url(#LinearGradient_4)" fill-rule="nonzero" opacity="1" stroke="none" vectornator:layerName="Curve 1"/>
<path d="M273.208 205.225C273.208 195.568 288.865 187.74 308.179 187.74C327.492 187.74 343.149 195.568 343.149 205.225C343.149 214.882 327.491 222.478 308.179 222.71C289.537 222.934 273.208 214.882 273.208 205.225Z" fill="#e8bfbc" fill-rule="nonzero" opacity="1" stroke="none" vectornator:layerName="Oval 1"/>
<path d="M282.108 205.376C282.108 199.478 293.603 194.696 307.782 194.696C321.961 194.696 333.456 199.478 333.456 205.376C333.456 211.275 321.961 216.057 307.782 216.057C293.603 216.057 282.108 211.275 282.108 205.376Z" fill="url(#LinearGradient_5)" fill-rule="nonzero" opacity="1" stroke="none" vectornator:layerName="Oval 2"/>
<path d="M298.245 216.625C298.245 216.625 298.066 175.777 289.984 137.762C281.903 99.7469 265.451 66.4857 265.451 66.4857" fill="none" opacity="1" stroke="#4d7b54" stroke-linecap="butt" stroke-linejoin="round" stroke-width="2.34353" vectornator:layerName="Curve 2"/>
<path d="M315.784 218.137C315.784 218.137 315.077 188.163 325.451 145.852C335.825 103.541 353.103 74.5758 353.103 74.5758" fill="none" opacity="1" stroke="#4d7b54" stroke-linecap="butt" stroke-linejoin="round" stroke-width="2.34353" vectornator:layerName="Curve 4"/>
<path d="M273.208 205.225L282.242 204.97C282.242 204.97 281.721 208.581 286.649 211.278C291.935 214.17 302.862 216.162 308.14 216.162C313.742 216.162 324.157 214.015 329.339 211.053C333.728 208.544 333.38 205.144 333.38 205.144L343.149 205.225C343.149 205.225 342.889 211.402 337.829 215.173C331.414 219.954 318.975 222.58 308.179 222.71C300.179 222.806 287.5 220.76 281.46 217.067C273.425 212.156 273.208 205.225 273.208 205.225Z" fill="#e8bfbc" fill-rule="nonzero" opacity="1" stroke="none" vectornator:layerName="Oval 3"/>
<path d="M355.244 72.8463C355.244 72.8463 348.568 81.4263 351.45 96.2254C354.331 111.024 365.691 121.278 365.691 121.278C365.691 121.278 369.66 110.616 369.006 96.0791C368.351 81.5419 364.499 74.2433 364.499 74.2433L355.244 72.8463Z" fill="url(#LinearGradient_6)" fill-rule="nonzero" opacity="1" stroke="none" vectornator:layerName="Curve 6"/>
<path d="M364.273 75.3236C364.273 75.3236 373.561 85.1465 383.697 95.4798C393.833 105.813 403.78 104.681 403.78 104.681C403.78 104.681 405.889 98.8157 397.433 86.676C388.977 74.5363 370.993 68.0983 370.993 68.0983L364.273 75.3236Z" fill="url(#LinearGradient_7)" fill-rule="nonzero" opacity="1" stroke="none" vectornator:layerName="Curve 7"/>
<path d="M369.204 69.6725C369.204 69.6725 383.424 71.1414 394.75 65.5435C406.076 59.9456 410.262 51.9735 410.262 51.9735C410.262 51.9735 395.399 47.4083 382.511 50.8582C369.623 54.3081 362.955 61.0803 362.955 61.0803L369.204 69.6725Z" fill="url(#LinearGradient_8)" fill-rule="nonzero" opacity="1" stroke="none" vectornator:layerName="Curve 8"/>
<path d="M362.757 65.12C362.757 65.12 370.426 55.8824 373.681 43.2545C376.935 30.6267 370.704 21.3877 370.704 21.3877C370.704 21.3877 358.675 25.5234 353.337 35.7428C348 45.9622 351.438 62.9531 351.438 62.9531L362.757 65.12Z" fill="url(#LinearGradient_9)" fill-rule="nonzero" opacity="1" stroke="none" vectornator:layerName="Curve 9"/>
<path d="M352.974 61.583C352.974 61.583 349.096 55.9835 338.865 47.5965C328.633 39.2096 302.52 44.4553 302.52 44.4553C302.52 44.4553 314.278 48.2942 316.799 53.4719C322.557 65.2983 350.232 68.1618 350.232 68.1618L352.974 61.583Z" fill="url(#LinearGradient_10)" fill-rule="nonzero" opacity="1" stroke="none" vectornator:layerName="Curve 10"/>
<path d="M349.334 64.5129C349.334 64.5129 336.427 73.6962 328.532 82.1005C320.637 90.5048 320.714 112.327 320.714 112.327C320.714 112.327 330.521 101.218 340.723 94.5373C350.925 87.8569 355.004 72.7539 355.004 72.7539L349.334 64.5129Z" fill="url(#LinearGradient_11)" fill-rule="nonzero" opacity="1" stroke="none" vectornator:layerName="Curve 11"/>
<path d="M347.547 62.2168C349.066 58.4894 355.563 57.6133 362.058 60.26C368.552 62.9068 372.586 68.0741 371.067 71.8015C369.548 75.529 363.052 76.405 356.557 73.7583C350.062 71.1115 346.028 65.9443 347.547 62.2168Z" fill="url(#RadialGradient)" fill-rule="nonzero" opacity="1" stroke="none" vectornator:layerName="Oval 4"/>
<path d="M268.693 57.311C268.693 57.311 282.534 65.4529 292.082 65.3049C296.331 65.239 300.607 61.7816 304.515 61.2575C309.389 60.6038 313.455 62.8648 313.455 62.8648C313.455 62.8648 302.438 45.9216 292.97 43.9878C283.503 42.054 269.017 48.9837 269.017 48.9837L268.693 57.311Z" fill="url(#LinearGradient_12)" fill-rule="nonzero" opacity="1" stroke="none" vectornator:layerName="Curve 13"/>
<path d="M268.4 49.7441C268.4 49.7441 278.639 43.0912 280.018 33.3919C282.114 18.645 284.282 13.9196 284.282 13.9196C284.282 13.9196 265.532 20.4401 258.505 28.72C251.478 36.9998 256.174 47.039 256.174 47.039L268.4 49.7441Z" fill="url(#LinearGradient_13)" fill-rule="nonzero" opacity="1" stroke="none" vectornator:layerName="Curve 14"/>
<path d="M255.974 48.5567C255.974 48.5567 254.05 39.7486 247.98 32.865C241.911 25.9813 226.822 19.7506 226.822 19.7506C226.822 19.7506 228.218 36.2698 232.585 45.0038C236.952 53.7379 249.165 55.9584 249.165 55.9584L255.974 48.5567Z" fill="url(#LinearGradient_14)" fill-rule="nonzero" opacity="1" stroke="none" vectornator:layerName="Curve 15"/>
<path d="M253.911 63.0137C253.911 63.0137 239.145 77.2436 239.728 86.2506C240.311 95.2576 255.199 101.086 255.199 101.086C255.199 101.086 257.106 93.986 258.378 84.7671C259.649 75.5481 262.003 61.5003 262.003 61.5003L253.911 63.0137Z" fill="url(#LinearGradient_15)" fill-rule="nonzero" opacity="1" stroke="none" vectornator:layerName="Curve 17"/>
<path d="M260.635 62.8281C260.635 62.8281 262.139 78.0543 270.482 87.6563C278.825 97.2583 290.602 101.425 290.602 101.425C290.602 101.425 291.745 89.7743 285.865 78.628C279.985 67.4818 268.784 56.6511 268.784 56.6511L260.635 62.8281Z" fill="url(#LinearGradient_16)" fill-rule="nonzero" opacity="1" stroke="none" vectornator:layerName="Curve 12"/>
<path d="M248.678 54.9816C248.678 54.9816 230.906 56.0682 222.559 61.8735C214.212 67.6788 217.183 81.9863 217.183 81.9863C217.183 81.9863 212.082 77.7876 235.593 74.4567C245.987 72.9843 253.226 63.8228 253.226 63.8228L248.678 54.9816Z" fill="url(#LinearGradient_17)" fill-rule="nonzero" opacity="1" stroke="none" vectornator:layerName="Curve 16"/>
<path d="M248.024 59.7101C246.247 55.7478 249.994 50.2095 256.394 47.3399C262.793 44.4702 269.421 45.356 271.198 49.3182C272.975 53.2804 269.227 58.8188 262.828 61.6884C256.429 64.558 249.8 63.6723 248.024 59.7101Z" fill="url(#RadialGradient_2)" fill-rule="nonzero" opacity="1" stroke="none" vectornator:layerName="Oval 5"/>
<path d="M291.574 383C291.574 383 300.02 385.877 308 386.196C315.98 386.515 323.085 383 323.085 383C323.085 383 325.015 375.532 327.619 362.758C330.224 349.985 333.502 331.906 333.502 331.906C333.502 331.906 325.587 350.154 310.446 350.176C295.305 350.197 282.363 338.735 282.363 338.735C282.363 338.735 284.635 351.196 286.938 362.262C289.241 373.328 291.574 383 291.574 383Z" fill="url(#LinearGradient_18)" fill-rule="nonzero" opacity="1" stroke="none" vectornator:layerName="Curve 18"/>
<path d="M323.085 383C323.085 383 333.437 341.31 338.453 296.866C342.829 258.09 343.017 208.601 343.017 208.601C343.017 208.601 338.82 254.671 333.777 296.543C328.77 338.122 318.036 384.865 318.036 384.865L323.085 383Z" fill="#a48c8a" fill-opacity="0.565133" fill-rule="nonzero" opacity="1" stroke="none" vectornator:layerName="Curve 27"/>
<path d="M323.085 383C323.085 383 333.437 341.31 338.453 296.866C342.829 258.09 343.029 206.921 343.029 206.921C343.029 206.921 341.731 210.398 340.836 211.865C339.708 213.714 338.739 214.28 338.739 214.28C338.739 214.28 334.399 269.567 330.942 298.275C325.934 339.854 318.036 384.865 318.036 384.865L323.085 383Z" fill="#a48c8a" fill-opacity="0.565133" fill-rule="nonzero" opacity="1" stroke="none" vectornator:layerName="Curve 32"/>
<path d="M323.085 383C323.085 383 333.437 341.31 338.453 296.866C342.829 258.09 342.987 212.163 342.987 212.163C342.987 212.163 341.075 247.214 336.032 289.087C331.024 330.665 320.41 384.098 320.41 384.098L323.085 383Z" fill="#a48c8a" fill-opacity="0.565133" fill-rule="nonzero" opacity="1" stroke="none" vectornator:layerName="Curve 26"/>
<path d="M323.085 383C323.085 383 333.437 341.31 338.453 296.866C342.829 258.09 343.012 215.293 343.012 215.293C343.012 215.293 340.993 254.414 337.349 296.134C333.706 337.854 321.411 383.639 321.411 383.639L323.085 383Z" fill="#a48c8a" fill-opacity="0.565133" fill-rule="nonzero" opacity="1" stroke="none" vectornator:layerName="Curve 25"/>
</g>
</svg>
