<svg xmlns="http://www.w3.org/2000/svg" width="500" height="500" class="img-fluid" style="transform:matrix(1,0,0,1,0,0);transform-origin:50% 50%;cursor:move;transition:transform 200ms ease-in-out 0s" viewBox="0 0 5000 5000"><path fill="#162407" d="M2550 4103c-51-15-125-52-192-96-70-46-84-61-153-164-41-62-75-120-75-128 0-26 27-16 54 19 14 19 54 53 88 75 35 23 81 65 104 94 28 37 59 62 105 85l89 47c14 8 48 15 75 15 71 0 125 17 125 38 0 16-12 18-102 18-57 1-110-1-118-3zm414-138c-105-19-183-63-322-179-77-65-103-106-68-106 8 0 56 22 107 48a1428 1428 0 0 0 412 130c66 12 87 20 87 32 0 32-86 92-128 89l-88-14zm24-255c-70-5-131-11-136-13-4-3-75-11-158-17-121-9-167-17-249-44-104-34-243-72-380-104-123-28-114-52 34-88 72-17 77-17 160 1 59 13 135 19 241 21 85 1 167 7 182 13 24 9 313 44 463 55a1905 1905 0 0 1 232 34c96 16 183 51 183 74 0 31-63 51-190 60-192 15-250 16-382 8zm485-290c-100-26-263-99-263-118 0-12 11-14 68-8l172 16c58 4 125 15 150 25 83 31 132 45 141 40 15-10 59 7 59 22 0 44-193 57-327 23zm-1903-182c-13-24-43-68-66-98-40-52-114-196-191-375l-69-159c-25-56-42-122-60-225-14-80-31-174-39-209-15-65-20-168-9-196 10-27 34-19 34 12 1 15 9 43 20 62 33 63 47 94 54 130 3 19 18 51 32 72 16 23 24 45 21 58-9 33 13 172 33 215 14 29 31 46 62 60s44 27 46 45c2 13 10 33 18 44s14 27 14 36c1 8 9 33 20 55s19 45 20 51c0 5 16 25 35 44 28 27 35 42 35 71 0 28 9 48 40 85 23 27 43 59 47 72 9 36-3 160-17 177-24 29-55 18-80-27zm1125-73c-66-8-204-17-307-21-172-7-188-9-188-25 0-10 9-23 19-29 26-13 290-44 359-41 32 1 60-3 69-11 12-10 76-13 262-14 176 0 260-4 296-14 44-12 164-18 470-22 39-1 88 4 110 10s63 12 90 13c79 3 105 10 105 28-1 26-40 47-135 69-134 33-217 42-460 53-412 18-565 19-690 4zm-976-32c-25-27-27-40-63-368-20-187-39-378-42-425-4-47-24-156-45-243-42-171-49-237-24-237 8 0 15 9 15 20s4 28 9 38c5 9 15 33 22 52s39 60 71 91c52 51 58 62 58 98 0 32 5 44 26 58 59 41 65 51 58 96-4 23-10 47-15 52-4 6-1 21 6 35 8 14 14 32 15 41 0 9 6 19 14 22 27 11 66 97 66 147 0 43 2 48 20 43 11-3 20-10 20-17l14-136c8-69 20-266 27-437 10-247 15-313 26-313 7 0 13 8 13 18 0 9 7 30 15 46 8 15 15 48 15 73 0 28 7 55 19 72 11 15 23 40 27 57 4 16 10 34 13 39 3 6 6 44 6 86 0 93 17 119 75 119 20 0 45 7 56 15 27 20 78 19 97-3 10-10 17-22 17-26s6-14 14-21c9-9 17-50 21-110l7-95h52c47 0 53 3 73 34 13 21 32 35 50 39 23 4 33-1 56-29 29-35 54-43 74-23 6 6 39 11 72 10l61-1v68c0 40-6 79-15 95-39 76-460 507-494 507-11 0-21 5-21 11 0 23-213 229-236 229-13 0-38 19-65 48-73 80-129 113-129 77 0-8-7-15-15-15s-15 6-15 14c0 22-42 65-70 71-19 5-31-1-51-22zm-514-194-165-91c-206-109-270-149-310-196-22-26-40-51-40-55s-9-20-20-35c-13-18-22-51-26-99-8-82 5-97 25-29s135 188 224 232c38 20 92 53 119 75 27 21 56 39 64 39s44 20 80 44c35 25 73 48 83 51 20 6 71 73 71 93 0 22-35 12-105-29zm1615-312c0-10 11-19 28-23 15-3 52-14 82-24 62-22 184-40 264-40 30 0 71-6 92-14 22-7 110-19 197-26 161-13 187-9 174 23-5 13-57 26-337 88-58 12-151 20-292 25-189 7-208 6-208-9zm-1780-216c-184-101-258-190-268-322-3-47-1-74 8-84 19-23 25-19 39 30 7 24 19 49 27 56 7 6 16 26 20 45 3 18 12 38 20 45 8 6 14 17 14 23 0 16 49 64 92 89 136 81 188 127 188 168 0 19-38 5-140-50zm1832-321c-1-45 2-51 32-70 18-11 41-20 50-20 14 0 16-6 11-28-16-74 56-208 133-246 17-9 32-20 32-25s11-12 25-15c13-3 29-15 35-26 8-14 21-20 46-20 28 0 36 5 44 26 6 14 10 31 10 39 0 25-381 435-404 435-8 0-13-17-14-50z" style="transform:none"/><path fill="#2D3F19" d="M320 4607c0-40 241-322 277-323 10-1 30-4 46-9 34-9 37 13 6 41-12 10-75 83-140 160-65 78-126 144-135 148-33 13-54 7-54-17zm1937-402c-63-13-236-91-310-140-53-34-161-195-143-212 16-17 95 52 149 130 9 15 37 40 62 57l44 30-30-65c-60-128-43-203 20-91 17 29 61 85 98 123 83 85 116 99 217 88 39-5 102-8 141-7 44 0 72-4 77-11 5-8 38-12 93-12 47 0 85-3 85-7 0-12-72-28-125-28-27 0-61-7-75-15l-89-47c-46-23-77-48-105-85-23-29-69-71-104-94-34-22-74-56-88-74-13-18-32-32-41-31-18 1-111-111-112-136-2-36 30-18 132 72 53 47 191 144 249 175 26 13 49 29 53 35 3 5 25 10 49 10 47 0 66 13 66 46 0 12 9 32 20 46 16 21 34 27 109 38 49 7 92 18 94 25 10 23 267-20 267-45 0-6 12-16 28-22 28-12 82-57 82-68 0-4-38-13-85-20s-88-16-90-20c-3-4 54-10 125-12 126-6 131-6 163-35 19-17 55-35 80-41 31-8 53-22 70-44 14-17 44-39 68-47 23-9 44-21 46-27 5-14-101-53-180-66l-117-19c-30-5-82-12-115-15-175-15-440-46-463-55-15-6-90-10-167-10-104 0-164-6-234-21-90-20-95-20-164-3-84 21-118 35-111 46 8 14-24 11-105-8-40-9-75-23-78-30-6-16 49-63 96-82 20-8 61-15 91-17 110-5 206-14 269-26 51-10 65-10 69 0 2 7 8 12 13 12s27 11 49 25c69 43 252 66 305 37 51-27 117-44 128-33 6 6 18 11 27 11 10 0 31 7 48 15 16 9 61 18 99 21 75 6 143 23 143 36 0 4 19 8 43 8 52 1 120 15 170 37 33 14 45 15 85 4 49-13 92-45 92-68 0-10 22-13 90-13 58 0 104-5 127-15 20-8 34-17 31-20s-27-7-55-9c-28-3-73-14-99-25-74-30-129-42-192-41-31 1-86-4-122-10s-80-8-98-5c-19 3-39 2-45-3-7-5-29-15-49-21-27-9-38-18-38-32 0-18 8-19 128-19 71 0 132 3 136 7 19 19 87 29 232 31l162 3 33-29 67-51c36-25 42-55 12-71-28-15-18-27 28-35 36-6 90-40 79-51-2-3-38-7-78-9-41-3-92-10-114-16s-65-11-95-10l-230 4c-114 2-203 9-255 20-63 13-128 16-301 14-166-1-225 2-237 11-8 7-40 12-73 12-83-2-212 16-229 30-12 10-15 10-15 0 0-9-13-10-47-5-63 9-85 22-78 43 4 15-8 19-98 30-130 15-137 15-137-3 0-8 7-15 16-15 23 0 76-40 120-90 22-25 59-64 83-88 38-38 47-42 74-37 18 4 42 18 55 31 31 32 59 30 94-6 15-16 32-30 37-30s15-7 22-16c10-12 24-15 56-10 23 3 51 10 60 15 10 5 47 17 83 27s68 23 72 29c5 8 106 11 350 9 327-2 454-11 468-34 9-14 102-30 179-30 37 0 72-5 77-10 7-7 41-7 108 1 93 11 100 10 136-10 67-38 74-28 31 43-22 35-72 129-111 208-94 193-127 238-338 471-294 325-502 455-837 522-44 8-116 24-160 35-81 20-273 50-310 49-11-1-51-7-88-14zm-647-870c-22-59-23-74-3-69 29 8 44-18 50-85 7-78 2-97-47-155-31-37-40-57-40-85 0-29-7-44-35-71-19-19-35-39-35-44-1-6-9-29-20-51s-19-47-20-55c0-9-6-25-14-36s-16-31-18-44c-2-18-15-31-46-45s-48-31-62-60c-20-41-44-202-35-227 3-7-6-29-20-48-13-18-28-50-31-69-7-36-20-67-54-131-11-19-19-48-20-63 0-16-4-26-9-22-6 3-9-65-6-182 4-201 18-285 48-291 19-4 22 26 18 155-2 51 1 79 13 100 31 54 46 166 35 256-9 71-8 89 8 132 18 48 20 50 61 53l42 3v73c0 72 0 73 43 117 47 48 67 91 67 148 0 20 7 45 15 55 8 11 15 36 15 56 0 37 23 70 49 70 7 0 20 9 30 21l17 21 14-26c17-32 36-34 43-3 3 12 13 99 23 194 16 162 19 174 43 197 23 22 29 24 51 13 14-7 33-28 42-47 23-46 48-49 48-6 0 18-5 48-11 67a457 457 0 0 1-161 166c-20 8-39 21-42 29-9 23-36 16-46-11zm-808-217a625 625 0 0 1-102-184c0-8 5-14 10-14 6 0 10 4 10 8 0 5 13 21 28 37 25 24 38 29 98 32 39 3 80 11 93 20 41 26 120 42 236 49 97 5 133 9 233 30 12 2 22 10 22 18 0 9-23 15-77 20-170 14-316 2-383-33l-68-36c-41-21-112-32-112-17 0 6 11 23 25 38s25 35 25 45c0 25-1 24-38-13zm578-85c-37-13-100-47-100-54 0-4 5-9 10-11 18-6-38-72-78-93-21-11-59-35-84-52-26-18-53-33-61-33-9 0-37-18-65-39-27-21-68-49-90-60-51-26-53-33-8-30 19 2 38 0 42-4 13-13 30-7 60 19 16 14 49 36 74 49s66 41 92 62 71 55 100 75c29 21 69 51 88 68 19 16 40 30 46 30 14 0 24 23 24 56 0 24-15 29-50 17zm2250-250c-96-16-280-87-280-109 0-17 22-18 70-4 89 25 345 45 399 30 20-5 88-13 152-18 82-7 128-16 159-31 24-11 50-21 57-21 14 0 17 18 5 36-14 22-108 72-162 88-91 26-320 42-400 29zm-1711-94c-1-19-3-26-6-16-2 9-9 17-14 17-10 0-17-27-22-85-4-46-41-123-62-132-8-3-15-13-15-22s-9-30-19-48c-17-27-18-33-6-43 8-7 13-16 10-20-3-5-1-20 5-34 10-28 2-40-54-79-21-14-26-26-26-58 0-36-6-47-58-98-32-31-64-72-71-91l-21-55c-5-11-11-29-13-40-3-15-5-12-6 8-1 28-21 39-21 12 0-9-29-57-65-107-82-113-99-167-93-292 3-61 11-103 23-129 32-63 42-48 43 61 0 64 6 112 17 142l27 80c5 19 15 42 22 50s17 27 24 43c10 24 32 38 32 19 0-4 7-39 16-77 8-39 18-149 22-246 8-171 9-179 39-235 16-33 38-61 48-63 16-3 17 2 11 35-13 68-23 318-14 349 5 17 8 89 6 162-1 91 2 136 10 146 11 13 17 40 27 131 2 15 8 33 14 39s11 17 11 24c0 6 11 28 24 48 14 20 27 48 31 64 3 15 16 33 28 40 25 13 57 82 57 122 0 23 26 59 43 59 3 0 9-16 13-35 3-20 12-35 20-35 19 0 18 47-6 248-18 161-29 209-31 141zm551-36c0-28 75-83 114-83 8 0 36-10 63-21 37-17 72-22 158-24 75-2 135-10 190-25 56-16 125-25 230-30 83-4 168-12 190-19 22-6 93-14 159-17 135-6 152-11 209-58 46-37 99-61 162-71 71-12 169-65 120-65-10 0-15-10-15-29 0-24 6-31 31-40 18-6 56-11 84-11 29 0 63-6 76-13 41-21 89-60 89-72 0-6 16-24 35-39 20-16 43-41 52-57 21-36 43-38 43-4 0 33-74 168-118 217a800 800 0 0 1-297 188c-27 9-108 45-180 78-121 56-237 90-221 64 3-6 2-13-4-17-15-9-288 15-340 30-25 7-88 16-140 19-120 8-152 13-220 36-30 10-67 21-82 24-18 4-25 11-22 20 4 10-20 15-118 20-68 3-151 9-185 12-57 6-63 5-63-13zm-244-368c-11-8-36-15-56-15-61 0-97-64-78-140 8-29 8-48 0-63-6-12-14-33-18-47s-15-37-25-51-20-48-22-75-9-62-15-77c-7-16-12-35-12-43s-5-12-11-9c-7 5-8-14-3-64s3-71-5-71c-6 0-11-8-11-18s-16-51-36-92c-56-115-114-276-114-315 0-71 47-29 109 97 18 38 40 72 50 77 16 9 39 54 74 146 9 22 18 78 21 123 5 75 9 87 36 118 22 26 30 45 30 74 0 40 12 51 82 73 9 3 22 18 30 34 20 41 49 41 87-2 19-22 38-35 46-31 13 5 15-19 15-152 0-203 7-262 30-262 11 0 20 10 23 29 3 15 18 42 32 59 15 18 27 47 29 70 3 27 14 50 36 72l31 31 79-7c69-6 80-9 86-28 3-11 20-36 37-53 26-27 31-43 35-93 3-42 8-60 18-60 8 0 14 10 14 25 0 60 57 81 161 59 90-19 96-22 103-50 4-14 27-45 51-69 51-51 65-74 65-107 0-13 7-32 15-42 8-11 15-28 15-38s4-18 9-18 13-10 17-22c3-13 19-42 34-65 16-22 31-51 35-62 8-26 35-28 35-2 0 10-7 37-15 60s-21 78-30 122c-13 71-13 82 0 95 12 12 15 12 15 2 0-7 18-22 40-32 23-11 71-51 108-89s86-80 109-94c48-28 83-71 83-102 0-11 13-30 30-42 41-31 77-85 94-142 17-56 117-177 147-177 28 0 23 17-21 75-49 63-92 157-125 270-13 47-33 103-42 125-23 50-438 480-464 480-11 0-19 5-19 10 0 19-21 10-29-13-12-30-48-30-79 0-12 13-29 23-37 23s-15 5-15 10c0 6-15 17-32 26-73 36-160 191-128 229 14 17 2 45-19 45-9 0-29 9-46 20-24 16-30 27-30 57 0 21 4 41 9 45 10 7-46 68-63 68-7 0-11-26-11-69v-69l-60 1c-36 0-65-5-76-14-15-12-20-9-49 24-31 35-36 38-70 31-26-5-43-16-58-39-19-29-27-33-65-33h-43l1 41c0 23-5 83-12 132-9 72-13 84-19 60-4-16-7-23-8-14-3 44-92 66-135 34zm864-221c0-6 12-14 28-17 96-20 121-26 152-36 19-6 107-11 198-11 109 0 179-5 210-14 95-28 138-38 177-41 147-13 182-24 267-81 46-30 92-63 103-74 67-62 88-78 139-104 31-16 70-46 87-67 20-26 39-39 55-39 73 0-34 143-196 261-118 86-282 156-470 202-99 25-122 26-427 30-249 3-323 1-323-9zm-2016-22c-39-34-96-107-118-149-20-40-21-126-1-143 32-27 68 9 79 80 4 19 12 46 20 60l45 82c50 92 38 125-25 70zm2489-409c-29-3-43-9-43-19 0-11 16-14 68-14 37-1 101-6 142-11 41-6 93-12 115-14 49-4 123-22 150-38 52-29 124-61 166-73 25-8 61-24 80-37 19-12 55-35 82-50 26-15 47-32 47-36 0-12 109-91 125-91 34 0 11 43-63 117a918 918 0 0 1-315 202c-136 54-367 81-554 64zm247-456c0-40 45-101 118-158 42-33 140-124 217-203a880 880 0 0 1 187-164c52-24 78-28 78-11 0 16-320 329-455 446-116 100-145 118-145 90z" style="transform:none"/><path fill="#43592A" d="M580 4291c0-18 213-231 231-231 10 0 19-4 19-8 0-14 101-83 117-80 9 2 15 8 14 13-3 14-301 315-301 304 0-5-12-4-26 1-31 12-54 13-54 1zm1643-171a678 678 0 0 1-186-201c-17-29-33-46-41-43-15 6-26-43-26-113 0-32 4-43 15-43 8 0 15 9 15 19 0 44 42 112 127 205 50 54 105 105 123 112 18 8 56 14 86 14 29 0 74 7 99 16 27 9 55 12 68 8 25-9 41-7 79 8 46 17 21 29-60 27-43 0-117 2-167 6-80 5-95 4-132-15zm-186-47c-38-26-78-60-90-76-43-58-126-139-136-132-7 4-11-8-11-34 0-30 4-41 15-41 8 0 15 7 15 15s10 20 23 26c12 7 28 20 34 30 21 29 111 89 115 77 3-7 19 19 37 58 18 38 44 81 58 97 39 40 17 33-60-20zm747-36c-3-9-35-19-95-27-81-12-92-16-113-43-40-50-5-95 37-47 14 17 29 20 108 20 52 0 100 5 112 12 13 7 65 13 123 13 96 1 124 7 124 24 0 12-103 39-175 46-33 3-72 9-88 11-18 4-29 1-33-9zm176-193c-70-14-205-63-289-106-64-33-97-45-101-37-11 17-50-7-50-31 0-17 6-18 57-13 46 5 64 12 87 36 28 28 104 67 129 67 7 0 26 7 42 16 46 25 261 24 335-2 46-16 55-23 52-40-2-17 5-24 29-33 38-13 209-15 209-2 0 24-45 62-87 73-25 6-61 25-80 41-34 30-35 30-171 33-75 1-148 0-162-2zm400-324c-25-17-91-32-153-35-33-2-63-8-66-12-13-20-73-35-116-31-24 3-47 3-50 0s-15-7-27-9-35-10-51-18c-17-8-38-15-48-15s-20-4-23-9c-5-8-67 11-136 42-23 10-37 12-41 5-4-6-20-7-37-3-43 9-176-21-222-50-22-14-44-25-50-25-5 0-10-4-10-9 0-12-85-4-110 9-9 5-37 9-61 9-94-1-206 10-240 23-40 15-101 63-92 72 10 9-24 7-73-5-58-15-57-31 7-91 42-40 56-48 84-46 18 1 41-4 50-12 15-12 109-22 210-21h202c110 0 170 4 185 12s77 13 170 15c81 1 151 5 157 8 6 4 49 9 97 11 54 3 96 10 110 20 13 8 35 15 50 15 14 0 37 9 51 20s31 20 37 20 16 10 21 23c9 19 17 22 60 21 115-2 165-16 158-45-3-10-1-19 3-18 28 1 185 47 167 48-13 1-23 7-23 14 0 48-142 98-190 67zm-2317-239c-81-39-213-128-213-145 0-7-11-25-25-40-30-32-33-66-6-66 19 0 98 73 139 128 27 36 105 92 130 92 22 0 82 37 82 50 0 18-44 10-107-19zm2465 4c-3-3-23-6-44-6s-50-4-64-9l-45-15c-40-13 9-25 105-24 134 1 223-15 254-46 21-21 35-25 79-25 36 0 59-5 67-15 18-22 30-18 30 9 0 16-11 32-32 47-18 13-50 37-70 54-38 32-38 32-139 29-56-2-104-6-107-9-3-2-10 0-17 5s-14 8-17 5zm-1568-121c0-36 329-379 403-421 49-28 117-7 117 36 0 11 5 21 10 21 6 0 10 6 10 14s6 21 13 28c26 26 28 49 5 69-13 10-26 18-30 19-4 0-21 14-36 30-37 38-81 40-114 6-40-41-64-39-111 7-23 23-59 62-81 87-43 50-97 90-120 90-10 0-13 6-10 15 5 11-1 15-25 15-21 0-31-5-31-16zm-89-11c0-10 9-65 19-123l19-105-5 83c-6 83-6 84 15 73 12-7 46-38 77-70 37-39 66-60 85-63 18-3 29 0 29 7 0 18-207 215-225 215-8 0-15-8-14-17zm-854-98c-26-7-55-19-64-26-18-15-133-29-133-16 0 16-56-25-81-61-28-38-40-105-54-297-3-44-8-96-12-115l-5-35 26 38c29 42 30 45 47 177 10 76 18 103 41 134 15 21 28 45 28 51 0 16 93 61 144 70 21 3 46 10 55 14 96 46 131 65 131 72 0 13-67 9-123-6zm2133-66c-19-5-109-6-200-4-99 4-176 2-190-4-14-5-18-10-10-11s-6-8-32-16c-27-8-48-18-48-23 0-30 268-34 383-5 16 3 38 2 50-4 56-26 88-33 118-27 17 4 93 9 168 11 177 6 197 6 252-2 30-4 49-2 53 5 8 12-1 16-57 26-21 3-35 10-32 16 4 5-2 9-13 9-10 0-22 3-26 7-4 5-22 8-39 9-71 2-313 16-327 19-8 1-31-1-50-6zm832-73c-42-12-36-30 11-33 71-4 150-66 160-126 3-20 17-53 31-73 26-38 27-56 4-37-28 23-109 42-203 47-54 4-116 11-138 17-45 12-246 4-261-11-7-7 9-10 46-10 31 0 69-5 85-11 54-20 188-39 285-39 53 0 99-4 102-8 3-5-50-22-117-40-153-38-177-48-177-67 0-13 20-15 131-15 71 0 150 5 174 11 82 21 119 2 209-106 13-16 27-27 31-23 11 11-65 208-145 375-50 104-53 109-103 133-58 28-77 30-125 16zm-2376-160c-15-14-33-26-40-26-24 0-46-36-46-74 0-26-7-44-25-61-13-14-19-25-14-25 11 0 6-70-7-105-4-11-27-40-51-64s-43-54-44-65l-2-73-2-53h-38c-30 0-39-5-46-22l-22-53c-14-33-14-46-3-125 9-67 9-82-1-142-5-31-4-48 2-48 14 0 53 92 53 127 1 15 6 55 13 87 11 51 17 62 44 75 33 16 53 48 53 81 0 10 5 22 11 25 6 4 9 19 8 33-2 15 2 37 9 48 6 12 16 43 22 70 16 73 61 164 80 164 10 0 25 17 36 40l19 39 5-47c3-33 10-48 21-50 18-3 23 21 34 158 4 47 3 70-3 62-7-10-13-5-24 19l-16 32-26-27zm-696-85c-54-11-72-24-148-106-86-94-117-174-96-252 4-13 10-23 14-23 9 0 40 91 40 117 0 17 81 103 96 103 4 0 27 23 52 50 25 28 51 50 57 50 7 0 24 9 39 21 21 17 24 24 15 35-12 15-16 15-69 5zm1557 2c-18-17-3-55 41-102 26-28 52-51 57-51s31-21 57-47l48-47 61 13c49 10 64 10 70 0 8-14 174-6 225 10 16 5 51 12 78 16 60 8 50 19-34 35-36 6-69 15-75 18-18 12-40 14-155 17-89 3-126 8-163 24-27 12-55 21-63 21-42 0-118 58-108 83 4 12 1 17-13 17-11 0-23-3-26-7zm895-204c2-7 46-26 98-43 52-16 97-33 100-36a449 449 0 0 1 325-81l50 8-40 18c-22 9-59 32-82 51-57 47-75 52-200 58-121 6-193 15-193 25 0 4-14 8-31 9-20 2-29-2-27-9zm-1444-98a78 78 0 0 1-28-54c0-15-8-42-17-60s-16-35-16-38c1-3-9-12-22-19s-27-26-30-41c-4-16-17-44-31-64-13-20-24-40-24-46 0-5-7-20-15-32s-14-31-14-42c-1-51-12-108-25-128-11-16-14-42-10-102 3-43 7-82 10-84 8-9 21 18 34 75 7 30 17 54 22 54s8 9 6 19 5 28 15 39c13 14 18 38 19 83 2 63 2 65 55 116 29 29 53 60 53 68s7 15 15 15 15-6 15-14c0-7 6-19 14-25 7-6 16-25 20-41 3-18 12-30 21-30 12 0 15 15 14 83-2 128-15 310-18 252l-3-50-11 42c-7 23-14 44-17 46s-17-7-32-22zm-868-39c-14-10-40-27-59-36-36-19-80-64-81-82 0-6-6-17-14-23-8-7-17-27-20-45-4-19-13-39-20-45-8-7-20-32-27-56s-17-41-23-38c-11 7 21-47 68-117l31-45 5 100c5 97 32 205 51 205 5 0 9 5 9 10 0 20 52 92 70 97 23 6 43 44 38 73l-3 22-25-20zm1362-344c-1-31-5-59-9-61-5-3-21 12-38 33-24 31-35 37-55 33-35-8-40-12-50-39-6-14-15-26-22-28l-33-12-25-9c-36-12-39-18-35-56 4-32 0-44-25-73-27-30-31-44-39-127-5-52-14-109-22-126-12-30-11-37 15-90 43-87 56-147 56-268 0-124 6-155 28-155 13 0 14 13 8 89-6 81-5 91 11 100 26 13 30 133 6 188-18 40-18 80-1 101 8 9 7 29-1 67-9 39-9 60-2 74 6 11 11 36 11 55 0 25 6 40 20 48 11 7 20 21 20 30 0 55 48 91 94 70 27-12 76-91 76-121 0-12 6-21 15-21 13 0 15 19 14 113-1 61-5 141-9 177l-7 65-1-57zm788 44c0-13 39-29 116-46l99-25c63-19 103-24 200-26 115-2 213-16 288-40a5817 5817 0 0 1 172-55c57-24 177-61 182-57 10 11-8 27-98 86-93 63-119 71-274 87-41 4-95 16-177 40-32 10-104 15-215 15-115 1-181 5-208 15-45 15-85 18-85 6zm-2139-137c-7-16-15-47-18-67-6-42-38-82-60-74-17 7-16 5 59-101 84-118 89-119 62-6-9 37-19 115-23 173-7 98-8 103-20 75zm496-80c-4-11-19-38-32-60-28-45-45-82-45-95 0-5-6-24-14-42-26-60-28-72-31-178-2-110 14-180 41-180 18 0 17 33-1 85-19 52-19 95 0 131 8 16 15 36 15 45s7 19 15 23c9 3 15 18 15 35 0 16 5 33 10 36 6 3 10 20 10 37 0 18 9 51 20 74 16 33 19 50 12 76-7 28-9 30-15 13zm998-78c-19-22-30-45-32-71-2-23-13-50-29-69-14-16-28-43-31-59-4-18-11-27-19-24-10 4-12-13-10-78 2-45 5-87 9-92 3-6-5-41-17-80a943 943 0 0 1-51-303c8-53 62-161 80-161 11 0 21 67 24 175l15 285c5 91 24 160 48 179 22 19 24 33 18 141-1 26 2 46 9 48 6 2 11 12 11 21 0 16 7 17 53 13 99-9 179-67 194-142 3-20 13-35 25-37 12-4 18-15 18-34 0-16 4-29 9-29s27 19 50 41c38 39 44 41 81 35 26-4 52-1 76 9 20 8 47 12 61 9 14-4 24-3 21 2-35 78-45 89-73 91a930 930 0 0 1-137 18c-48 3-60 0-71-16-8-10-17-16-20-12-4 3-8-11-8-33-1-29-4-23-9 24-6 51-13 69-37 95-17 18-34 41-37 53-5 18-17 22-74 28-104 9-114 7-147-27zm786-327c0-54 13-113 26-117 6-2 13 3 15 11 2 11 21 0 68-40 36-31 107-76 158-101 52-25 96-52 99-59 7-19 23-18 23 2 0 26-37 71-83 97-23 14-72 56-109 94s-85 78-108 89c-22 10-38 24-36 31 3 6-4 13-15 16-13 4-19 0-20-11 0-14-2-13-9 3s-9 13-9-15zm-1385-62c-14-24-30-56-35-71-16-41-62-98-73-91-16 10 1-56 30-116 30-62 69-84 59-34-4 22 2 36 24 62 29 33 39 85 19 97-15 9-12 73 5 129 18 58 18 66 5 66-5 0-20-19-34-42zm2094-143c0-11 11-15 35-15 35 0 94-23 106-42 9-13 161-88 180-88 25 0 113-74 134-114s45-48 45-16c0 58-112 185-202 231-100 50-298 80-298 44z" style="transform:none"/><path fill="#556510" d="M941 3981c-11-7-6-16 25-43 21-18 45-42 53-52 9-10 23-25 31-31 147-124 163-136 245-178 119-61 158-78 178-75 17 2 4 13-55 45-84 46-223 147-363 267-50 41-92 76-95 76s-11-4-19-9zm568-517c23-30 27-74 9-92-9-9-8-12 4-12 9 0 26-16 38-35 27-44 45-44 60-2 10 28 13 30 23 16 7-9 22-21 35-28 22-12 23-11 20 10-4 28-164 169-191 169-17 0-17-1 2-26zm-257-1619c-12-20-22-42-22-48 0-7-8-21-16-32-11-14-15-41-14-95 3-131 1-162-11-154-9 5-10-1-5-22 4-17 30-51 64-82l57-54 3 42c3 32-1 45-18 58-21 17-21 20-12 207 5 105 6 196 2 203-5 10-13 3-28-23z" style="transform:none"/><path fill="#576F2E" d="M1510 3362c0-5-16-27-36-50l-36-42h41c33 0 40-3 43-22 2-16 11-24 29-26 22-3 29 3 44 34 12 26 14 39 7 42-6 2-21 19-32 38-19 30-60 48-60 26zm-510-129c-51-36-80-65-96-95-8-16-38-47-67-69l-52-42 50 6c37 4 53 11 65 29 8 12 30 36 47 52 18 16 33 35 33 41s18 29 40 50c60 59 48 76-20 28zm-75-248c-65-15-145-52-145-69 0-7-14-32-30-54-18-25-30-54-30-73 0-27 3-30 23-24 26 8 65 50 78 86 13 34 101 109 129 109 11 0 23 7 27 15 8 22 5 22-52 10zm15-340c-19-14-39-25-45-25-7 0-32-22-57-50-25-27-48-50-52-50-16 0-96-87-96-105 0-11-9-45-20-75-19-52-19-57-4-105 17-50 83-186 108-220 12-16 13-11 8 36-2 30-9 62-14 72s-14 75-19 145-12 134-15 142c-3 9 16 34 52 67 57 53 77 62 89 43 7-12 65-13 65-2 0 5 11 14 25 20 17 8 25 20 25 37 0 18 5 25 18 25 23 0 52 30 52 53 0 28-78 23-120-8zm48-392c-8-10-24-34-34-52-10-19-26-43-34-53s-16-26-16-36a440 440 0 0 1-25-171c1-90 2-94 37-142 20-28 37-49 38-47 2 2 1 25-2 52-3 36-9 50-23 53-15 4-18 14-15 67 3 68 37 175 67 209 33 36 89 116 89 127 0 17-66 11-82-7zm346-141c-12-9-25-35-30-57-9-46-11-54-14-57-1-2-4-23-6-48-5-56-12-113-14-120-5-14-2-82 4-87 12-12 35 32 45 88 5 31 21 72 34 92 27 39 43 128 32 177-7 34-21 37-51 12zm-234-48c0-8 5-12 10-9 19 11 10-16-25-81-31-57-35-73-35-138 0-129 23-187 33-83 8 75 23 146 41 192 8 22 15 61 16 88 0 40-3 47-20 47-11 0-20-7-20-16zm623-261c-7-2-13-10-13-17s-9-41-20-75c-25-74-33-148-32-296 1-107 7-184 19-234 4-16 2-22-5-17-6 3-12 0-14-6-3-7-16 5-30 27s-37 51-52 64c-14 14-26 30-26 38 0 7-4 13-10 13-5 0-10 10-10 23s-3 27-7 31-6 25-4 46c1 22-1 40-6 40-4 0-9 26-11 57-1 31-4 58-6 60-8 9-36-11-36-26 0-9-7-29-15-45-19-36-19-99 0-155 9-24 13-51 10-61-4-12 4-26 23-42 44-36 287-198 298-198 6 0 10 32 10 81l-1 81-29-6-29-6 8 92c4 51 6 122 5 157-1 45 4 74 16 97 16 29 17 43 7 128-6 53-15 101-20 108-4 7-6 21-5 31 2 9 2 17 0 16l-15-6zm277-368c-19-38-40-88-47-110-15-46-17-131-4-139 16-10 3-58-23-85a90 90 0 0 1 4-125c37-41 51-34 49 23-1 27 3 61 9 77s16 67 22 114c27 199 33 235 43 241 6 5 5 18-4 41l-14 33-35-70zm157-66c13-34 14-51 6-90-7-35-6-49 1-49 6 0 1-8-11-18-21-16-22-23-18-122l4-113c1-4 17-23 36-43 24-23 35-44 35-63 0-26 6-31 65-55 107-43 138-29 68 30-32 27-38 38-38 70 0 39 0 39-45 44l-45 5v60c1 89 13 149 35 173 15 15 18 29 13 59-3 21-11 45-18 53s-21 34-31 57c-16 35-24 43-46 43h-28l17-41z" style="transform:none"/><g fill="#576E44" style="transform:none"><path d="M2435 4098c-11-6-51-13-90-14-39-2-85-9-104-17s-73-57-124-113c-85-94-127-161-127-205 0-11-4-17-10-14-6 4-10-6-10-22 0-42 11-73 25-73 11 0 52 54 64 85 7 20 65 75 78 75 8 0 24 22 36 48 13 27 40 64 61 82 21 19 42 44 47 57s13 23 19 23 5-9-2-25c-6-14-9-27-6-30s36 16 74 41c38 26 90 56 117 67 49 21 57 31 31 41-24 9-57 7-79-6zm415-130c-19-6-81-13-138-17-84-5-105-9-113-23-6-10-16-18-23-18-8 0-19-7-26-15-8-9-29-15-56-15-23 0-46-5-49-10-4-6-27-22-53-35-58-31-196-128-249-175-81-72-107-89-115-77-6 9-11 8-18-3-14-21-24-60-16-67 20-21 535 125 540 152 0 6-25 11-57 13-64 3-180-22-262-58-48-21-49-21-30-1 10 12 25 21 33 21 9 0 26 10 38 21 20 19 90 48 190 79 17 6 39 19 49 30 12 13 31 20 54 20 20 1 47 7 61 15 33 19 50 19 50 0 0-22 10-19 45 14 37 35 156 107 199 120 17 5 48 12 69 16 21 3 35 10 32 16-8 12-110 10-155-3zm-907-43c-34-24-65-50-70-58-4-8-18-19-30-26-13-6-23-18-23-26 0-7-5-15-12-17-9-3-9-15 1-51 8-27 11-64 7-87-6-37-5-40 18-40 38 0 56 39 56 118 0 53 4 73 18 85 18 17 62 13 62-5 0-5 4-7 8-4 10 6 38 144 30 151-2 3-32-15-65-40zm952-121c-22-3-49-9-60-14s-42-17-70-26c-27-9-74-32-104-52l-54-37 64-3c35-2 118 4 184 12s176 18 244 21c100 5 127 10 137 23 17 24 2 39-59 57-53 16-212 26-282 19zm282-351c-9-11-14-23-10-26 3-4 0-7-8-7s-25-8-39-17c-13-9-36-18-52-20-16-1-39-10-52-18a96 96 0 0 0-60-12c-20 2-36 0-36-6s-19-8-50-4c-27 3-52 2-54-2-8-12-134-20-186-12-29 4-65 1-100-8-37-10-111-14-230-15-104 0-178-4-182-10s-20-5-45 3c-21 7-55 10-76 8s-40-1-43 4c-2 4-11 6-19 3-7-3-25 2-39 11-27 18-66 13-66-9a490 490 0 0 1 185-106c3-5 25-7 51-3 32 4 56 1 84-12 23-10 50-15 67-12l82 16c29 6 62 17 71 26 19 17 123 36 150 28l37-16c17-8 41-6 95 6 146 34 228 48 237 43 10-7 103 10 139 24 12 6 51 12 86 15 49 5 67 3 79-9 13-13 26-10 120 32 58 25 104 49 101 53-2 4 4 10 13 13 14 6 11 10-14 26-18 10-40 19-50 19l-93 7c-67 6-77 4-93-13zm-152-212c-45-20-142-36-320-51-66-6-162-14-214-20-52-5-99-7-103-4-15 9-48-7-48-23 0-14 14-15 113-9 61 3 184 14 272 22 101 10 207 14 288 11 104-4 127-2 127 9 0 8-6 14-12 15-17 1 37 19 82 28 62 12 39 26-37 23-48-3-73 0-73 7 0 16-29 12-75-8zm438 2c-26-10-12-23 25-23 54 0 84-32 41-43-12-3-19-12-17-19 3-8 34-16 89-20 46-5 121-15 166-24 62-12 86-13 102-5 46 25 5 61-68 61-42 0-57 5-78 26-17 17-40 27-74 31-27 3-49 9-49 12 0 7-119 11-137 4zm-2146-99c-14-15 7-24 55-24 28 0 49-3 46-6-13-12-147-34-212-34-58 0-77-5-123-31-29-17-66-34-80-38-15-4-29-13-31-20-6-17 140-5 178 14 33 17 214 38 218 25 6-18 22-10 63 30 28 28 39 47 37 62-3 21-9 23-73 26-39 1-74 0-78-4zm1303-211c-14-3-29-8-35-13-5-4-24-11-42-14-28-6-68-36-48-36 5 0-1-8-12-17-11-10-18-24-16-30 3-7 0-13-6-13s-11-10-11-21c0-26-27-48-58-49-36 0-22-22 30-47 70-33 219-52 518-63 271-10 345-19 509-61 90-23 101-23 101-4 0 8-6 15-12 15-7 0-51 10-98 22l-85 22 43 8c52 9 158 4 267-12 75-11 170-9 311 6 44 5 64 3 75-7 10-10 32-13 84-8 39 3 54 6 35 7s-48 9-65 18c-21 11-58 16-130 16a637 637 0 0 0-165 15c-26 1-66 9-89 18-56 19-206 20-286 0-75-18-76-18-69 0 8 21-15 19-76-5-28-11-72-21-98-22-63-3-472 14-472 19 0 2 12 15 28 28 25 22 91 47 154 60 15 3 39 16 53 29 41 38 119 44 198 16 34-13 67-27 72-31 6-4 64-3 130 2 330 27 411 28 427 8 9-12 37-18 100-23 102-7 185-31 253-74 27-17 51-29 53-27s-5 17-17 33c-11 16-23 46-27 66-9 59-93 128-159 132-16 1-37 4-45 7-33 12-60 15-65 7-6-9-24-8-42 3-6 4-45 7-85 7h-118l-90 2c-60 1-330-10-355-15-19-4-42 3-92 25-11 6-38 8-60 5a750 750 0 0 0-255-11c-10 3-18 0-18-5 0-12-41-8-85 9-15 6-27 9-28 9-1-1-13-4-27-6zm-1360-62-105-79c-27-22-68-49-90-60-22-12-53-32-68-45l-28-25 48-4c32-2 60 2 85 14 20 10 41 18 46 18 6 0 13 7 16 16 11 28 49 75 105 129 69 68 64 89-9 36zm-520-94c-27-13-38-54-39-137l-1-45 40 45c43 49 48 60 25 60-18 0-19 23-4 51 15 30 7 40-21 26zm839-162-3-12c-8-31-32-63-47-63-10 0-21-9-24-20s-11-20-16-20c-6 0-8-4-5-8 3-5-1-20-9-34-7-15-18-50-24-80-7-29-18-63-27-75-8-13-12-33-8-47 3-13 1-27-5-30-6-4-11-17-11-29s-9-36-19-53c-12-20-16-36-10-45 5-8 9-27 9-42 0-19 4-27 13-25 12 5 21 28 31 78 3 14 18 46 34 70 17 26 32 66 36 95 6 50 43 117 61 112 13-5 24-68 24-149 1-66 12-87 26-50 8 21 36 314 33 357l-1 30-4-28c-7-42-23-22-23 29 0 32-4 44-15 44-8 0-16-2-16-5zm2521-80c-30-8-83-14-117-15-35 0-63-3-63-7 0-14 64-51 100-58 48-10 100-38 129-69 19-20 21-26 9-26-9 0-18-6-21-13-3-9 24-33 73-66 98-65 144-115 198-213 46-84 59-137 18-78-13 19-37 46-55 59-17 13-31 29-31 36 0 6-15 22-32 36-61 45-90 56-134 51-57-6-114 14-114 40 0 11 5 18 12 16 12-4 44 19 37 26l-64 32c-54 26-72 29-170 31-167 3-195 7-260 43-33 18-62 36-65 39-3 4-45 20-95 36-49 15-95 33-102 38-17 12-324 6-342-7-8-6-16-10-18-8l-5 1c-19-9-198-17-198-9 0 11-47 19-57 9-4-4-23-10-41-12-19-3-36-8-39-11s8-22 25-44c44-55 251-247 271-250 37-5 46 14 47 101 1 86 18 147 42 147 7 0 27-8 45-17 23-12 59-18 127-19 52-1 109-7 125-14 17-7 50-17 75-21 101-18 115-22 127-31 6-5 22-6 36-3 14 4 28 2 31-4 4-6 29-11 55-11s52-5 59-12c6-6 60-15 119-19 60-4 119-12 132-17 22-8 16-13-70-58-70-37-94-55-94-69 0-19 8-20 119-23 98-2 121 1 130 13 14 19 97 23 138 7 15-6 34-23 44-37 9-14 24-25 33-25s25-8 37-18c23-19 74-87 74-98 0-4 11-21 24-38 35-47 55-89 80-174 13-42 26-85 31-94 14-34-22-19-54 21-17 21-56 51-88 67s-64 37-71 47c-17 22-73 51-153 77-35 12-73 25-84 30s-42 15-70 24c-197 60-245 69-370 70-68 1-80-2-83-16-2-11 3-18 13-18 9 0 32-12 51-26 27-21 41-25 70-21 20 3 43 2 52-2 54-27 75-33 138-36 89-4 153-14 184-30 14-7 61-26 105-41 70-26 80-32 80-54 0-20 6-26 30-28 51-5 93-30 155-94 43-43 63-72 70-102l19-71a538 538 0 0 0 14-152c-3 11-11 16-19 13-14-5-124 70-124 85 0 4-21 21-47 36-27 15-63 38-82 50-19 13-55 29-80 37-42 12-114 44-166 73-28 16-103 35-150 38-22 2-60 7-85 12s-53 7-62 5c-32-6-19-20 25-27 23-4 62-20 86-36s60-31 80-35c20-3 64-19 98-35 35-16 77-32 95-36s39-12 46-20c7-7 24-13 37-13s40-16 62-35c88-80 199-172 220-183 12-7 24-26 28-44 8-36 56-128 67-128 9 0-1 137-13 175-6 20-6 31 1 33 15 5 12 287-5 423-29 232-56 348-128 549-18 52-40 118-47 145-13 46-65 122-115 167-16 15-84 50-89 47l-56-14zm-2929-49c-6-8-11-18-10-22 5-31-7-48-56-79-30-20-56-41-57-48l-2-22c-3-18-21-42-36-48-8-3 1-6 21-6 28-1 45 7 79 39 24 22 45 40 47 40 1 0 3-9 3-21 0-11 5-19 12-17 6 2 19 48 28 101 15 90 14 97-1 97-9 0-22-6-28-14zm729-334c0-7-7-12-15-12s-15-7-15-15-25-39-55-69c-48-46-55-58-55-92-1-70-5-92-21-110s-20-72-7-104l12-34c9-26 31-5 47 42 7 20 24 55 40 77 16 25 32 67 39 105 15 83 28 109 57 116 26 7 30 26 8 44-8 7-13 15-11 19 2 3-2 15-10 26-8 10-14 13-14 7z"/><path d="M2993 2094c-33-14-11-56 79-157l92-103 54-9c48-6 54-5 59 13 2 11 16 25 29 32 13 8 24 19 24 27 0 7 7 13 16 13 8 0 22 7 30 15 10 9 25 12 43 9 32-7 79 11 51 19l-50 16c-19 7-46 14-60 16-54 6-124 27-170 50-27 14-59 25-70 25-12 0-19 4-15 9 3 5 2 12-2 14-14 9-97 16-110 11zm-753-247c0-6-3-7-7-4-8 9-37-52-34-72 1-7-7-20-18-28-14-9-21-25-21-48 0-19-5-46-12-60-9-19-9-37 0-76 8-33 9-56 3-63-5-6-11-29-13-51-3-39-2-40 30-43 23-2 32 1 32 12 0 8-5 18-10 21-6 4 0 19 14 38 23 31 48 95 45 113-4 23 4 34 36 53 19 11 42 18 49 15 8-3 23-33 33-67 13-44 24-63 37-65 17-4 18 1 12 43-3 26-7 82-7 124-1 60-3 69-9 41-5-26-8-29-9-11-1 27-35 87-65 116-22 21-86 30-86 12zm602-170c-2-174-10-223-26-146-16 79-100 137-208 141-50 2-62 0-60-11 2-8-1-17-5-20-14-11-32-70-21-73 5-2 10-25 11-52 2-39-2-51-21-66-14-11-26-37-31-67-5-26-14-61-20-76-7-17-8-35-2-44 5-10 5-29 0-46-14-50 8-141 23-96 3 9 9 9 25 0 12-6 26-11 32-11 15 0 43 58 37 78-11 34 17 67 59 72 33 4 40 9 39 27-1 32 69 69 102 54 13-6 24-18 24-27 0-14 34-71 50-84 4-3 12-14 18-25 8-16 5-26-23-56a630 630 0 0 1-105-175c0-8 10-14 24-14 17 0 28 9 40 34 13 28 53 66 69 66 11 0 14-45 7-116-9-87-6-104 19-104 20 0 36 24 46 68 3 18 8 32 10 32 14 0 65-36 105-74 47-45 90-60 90-32 0 17-84 146-133 204-21 24-37 50-37 58s-9 24-20 37l-35 37c-8 9-17 34-20 55-6 38-3 43 46 93 40 41 57 52 73 48 12-3 27-6 34-6 6 0 12-7 12-15s9-24 20-35 20-27 20-36c0-13 7-15 36-10 31 6 36 4 41-13 3-12 10-21 15-21 13 0 107-101 108-115 0-6 5-16 12-23 19-19 40-85 39-120-1-26 4-35 18-39 20-5 61-71 61-97 0-22 60-82 133-130 64-44 117-59 117-34 0 6-42 55-94 108a689 689 0 0 0-182 298c-12 32-24 50-31 48-7-3-15 4-18 15-4 12-19 40-35 62-15 23-31 52-34 65-4 12-12 22-17 22s-9 8-9 18-7 27-15 38c-8 10-15 30-15 44-1 36-19 63-68 104-49 40-63 43-115 21-25-10-43-12-59-6-32 12-77-8-111-48-15-18-28-27-28-19l-9 218-6 205-2-188z"/><path d="M3345 1303c-7-43 23-154 43-161 6-2 12 4 12 13 0 14 3 15 14 5 8-6 28-11 43-9 15 1 41-3 56-10l34-11c3 0 20-15 38-32 18-18 45-40 61-48 17-9 51-52 86-110 55-90 118-159 225-246 47-38 146-94 167-94 27 0 18 27-16 49-18 11-51 38-73 60-25 27-45 39-56 36-25-8-127 112-145 172-17 55-56 115-90 138-13 8-30 28-38 44-11 21-41 41-108 74-56 27-121 70-163 106-38 33-73 60-77 61-3 0-9-17-13-37zm425-95c0-33 55-120 115-183 37-38 100-111 140-162 41-50 91-104 111-120 21-15 56-45 78-66 36-34 125-92 206-134 18-9 20-13 8-13-10 0-18-6-18-14s8-17 18-21c31-12 197-44 202-38 3 3-6 12-19 22-13 9-49 40-80 70-75 72-118 104-130 97-6-4-32 3-58 15-34 16-88 63-188 165-77 79-175 170-217 203-75 59-126 129-112 153 7 10-24 37-43 38-7 0-13-6-13-12z"/></g><path fill="#738613" d="M790 4071c0-6 250-237 279-257 9-6 25-8 36-4 17 6 16 9-17 31-21 13-42 33-48 44s-48 49-92 85c-45 36-89 72-98 81-18 17-60 31-60 20zm530-411c0-10 74-68 100-78 8-3 47-27 87-54 79-53 98-58 106-28 3 12 14 20 26 20 14 0 21 6 21 20 0 15-7 20-27 20-16 0-55 12-88 25-33 14-67 25-75 25s-39 14-69 30c-56 31-81 37-81 20z" style="transform:none"/><path fill="#678040" d="M1680 3427c0-26 86-120 156-173l58-46c11-10 23-18 28-18 4 0 8-6 8-13 0-8 14-13 38-13 20-1 90-9 155-18s162-15 215-14 78 3 54 5c-23 2-40 8-37 13 6 9-55 30-87 30-9 0-19 4-22 9-3 4-17 6-31 4-14-3-38 3-58 14-25 15-43 18-77 14-25-4-52-4-60-1-47 20-151 75-174 94-65 50-128 115-122 125 5 7-2 11-18 11-21 0-26-5-26-23zm-194-174 10-41c2-7-7-28-20-45-13-18-21-38-19-44 3-7-14-31-36-53-46-46-50-54-21-45 15 5 20 2 20-12 0-21-20-56-20-35 0 7-4 10-10 7-15-9-12-45 3-45 7 0 28 30 46 68 18 37 52 92 76 122 42 54 75 111 75 127 0 4-7 0-15-11-17-23-45-14-45 14 0 15-7 20-25 20-22 0-25-3-19-27zm-709-765c-56-52-56-54-54-105 1-29 6-55 10-59s7-37 7-73a508 508 0 0 1 29-176c7-27 8-25 14 25 4 30 3 56-2 58-4 1-5 22 0 45 4 23 5 52 3 63-3 12-1 25 5 28 6 4 11 19 11 34 0 19 20 52 60 102 56 71 67 95 43 95-6 0-15 3-19 8-19 18-54 3-107-45zm308-658c-18-29-23-140-9-202 12-52 22-67 70-113 41-38 54-47 51-31-21 83-33 114-52 136-26 29-35 59-44 155-4 51-9 66-16 55zm3095-83c0-7 6-19 13-26 6-6 12-26 12-43 0-32 2-34 77-68 27-12 51-26 54-32 3-5 30-25 60-44 46-30 58-44 85-104 40-87 65-97 39-16-5 17-15 50-20 72-7 30-27 59-70 102-62 64-104 89-155 94-24 2-30 8-30 27 0 18-9 28-32 38-27 11-33 11-33 0zm-2913-89c-2-7-5-54-6-105-2-79 0-93 17-105 12-8 19-26 20-46 0-18 6-40 13-48 18-22 140-107 145-101 6 6-33 89-62 132-11 17-25 39-30 50-6 11-21 25-34 32-20 10-24 20-25 75-4 101-22 157-38 116zm533-448c0-5-9-10-20-10s-20-4-20-10c0-5 3-10 8-10 4 0 7-34 6-75l-1-75 81-44c92-49 174-82 183-73 7 8-49 157-59 157-11 0-17-33-13-74l4-39-41 39c-46 44-84 119-94 181-4 27-11 43-20 43-8 0-14-4-14-10zm2620-5c0-8 14-34 30-58 17-25 30-51 30-59 0-7 6-23 14-34s17-46 21-79l6-60-25 41c-30 48-110 114-140 114-12 0-30 7-40 15-11 8-26 15-33 15-24 0-13-20 26-46 22-14 44-37 50-52s36-49 67-77c58-52 84-90 84-125 0-20-1-20-22-6-62 44-63-4-3-125 25-50 45-97 45-104 0-24 34-74 59-85 22-10 23-9 17 12-15 50-36 231-42 373-6 139-8 154-34 200-15 28-31 64-35 82-7 35-75 87-75 58zm-1946-66c-12-20-32-156-29-193 2-20 0-64-5-98-8-57-7-65 12-85 14-15 33-23 54-23 30 0 33 3 39 40 4 22 11 40 16 40 12 0 0 87-16 126-8 17-13 60-13 102 1 61-1 75-18 87-23 18-31 18-40 4z" style="transform:none"/><path fill="#7D9726" d="M1960 3129c-1-38 49-105 181-242 91-96 146-161 155-185 10-27 13-31 14-14 0 12 5 22 11 22 15 0 288-274 401-403 56-63 90-110 96-135 9-34 10-35 11-8 1 26 9 19 118-93 64-67 118-119 121-116 3 2-14 25-37 50-43 47-51 69-26 79 8 3 15 10 15 15 0 17-52 60-66 54-6-2-99 83-208 192a3160 3160 0 0 1-196 189c0-5-23 16-50 45-65 70-63 87 10 84l55-2-50 13c-54 14-101 36-161 77-47 32-282 262-347 339-26 31-46 48-47 39z" style="transform:none"/><g fill="#758C55" style="transform:none"><path d="M1797 3624c-22-29-60-50-109-59-25-5-38-13-42-28-3-12-4-22-3-22 49-25 130-55 148-54 13 0 58 10 99 23 67 19 75 24 75 46 0 24-2 25-62 22-75-5-89 2-68 31 19 27 19 47 1 47-8 0-16 4-18 9-1 5-11-2-21-15zm-666-328c-6-8-26-20-44-26-36-15-117-88-117-106 0-7-13-23-29-36-15-13-36-35-46-50-16-26-16-28 0-28 9 0 30 10 47 21 39 28 101 46 185 54 65 7 69 9 86 42 9 18 17 44 17 57 0 21 3 22 55 18 61-5 109 4 100 18-3 6-19 10-34 10s-54 9-86 20c-68 23-118 26-134 6zm4-281c-10-9-35-15-55-15-48 1-109-10-116-21-3-5-15-9-28-9-22 0-138-101-134-117 1-4-12-30-30-57-36-56-42-102-14-108 9-2 49 15 87 37 39 23 102 58 141 79 60 31 74 43 87 77 8 21 21 39 29 39 7 0 36 20 63 45 28 25 56 45 63 45 6 0 12 5 12 10 0 15-83 11-105-5zm-40-330c-16-7-40-27-53-44-12-17-26-30-30-30-23 4-32-4-32-26 0-15-8-29-22-36-54-29-168-172-168-211 0-15-4-30-10-33-5-3-9-23-8-43 0-20-3-57-7-81-5-31-4-42 4-37 6 4 11 2 11-5s14 15 31 49c19 39 51 81 88 114 51 46 101 124 101 156 0 6 7 12 15 16 8 3 15 17 15 30 0 18 9 29 33 41 63 31 87 64 87 120 0 38-7 41-55 20zm2024-343c-5-13-9-36-9-52 0-27 1-28 58-28 31 1 92-3 134-7 51-5 82-4 90 3 9 7 19 6 32-4 11-8 33-14 48-14 16 0 46-9 68-20 29-15 59-20 115-20 59 0 77-3 82-16 4-12 14-14 42-9 23 3 46 0 65-10 39-21 52-19 124 19l64 32-43 13c-23 7-89 16-145 20-57 4-109 13-117 19-7 6-33 13-58 15-24 2-52 7-62 12-9 4-26 5-37 2s-23-1-26 4-17 9-32 9c-15 1-38 7-51 14s-32 11-42 9c-10-3-38 3-61 13-31 12-70 18-137 18-89 1-94 0-102-22zm-2042-53c-15-11-26-23-25-27 3-9-50-87-82-121-14-14-25-28-26-31-5-32-27-90-33-90-5 0-9-24-9-54 1-29-2-58-6-64-9-15 11-63 26-60 6 2 15-10 19-27l7-30 1 35c1 19 12 53 26 75 48 79 51 86 35 99-19 14-19 46-2 66 25 28 82 132 82 150 0 10 7 31 15 46 28 55 16 69-28 33zm324-185c-10-12-11-18-2-23 8-5 6-15-9-33-11-15-20-37-20-51 0-13-12-41-26-62s-30-62-35-93c-6-30-18-66-26-79-15-23-15-29 3-163 2-19 5-56 5-82 0-41 3-49 27-60 16-8 35-31 46-56 20-44 44-59 31-19l-20 77c-8 30-19 56-25 58-16 6-1 167 20 222 10 25 21 65 25 90s18 58 31 73c13 16 24 38 24 50s9 36 20 52c11 17 20 42 20 56 0 49-59 77-89 43zm2681 9c-18-3-36-11-39-19s-18-14-34-14c-47 0-34-15 41-49 39-17 70-35 70-40s14-11 31-15c27-5 143-85 161-111 4-5 8-19 9-30 0-12 31-46 76-84 41-36 88-88 105-115 32-55 32-54-6 71-28 90-47 132-82 179-13 17-24 34-24 38 0 11-51 79-74 98-12 10-28 18-37 18-8 0-25 13-36 29-19 25-91 55-120 49l-41-5zm-2967-145c-14-40-18-80-18-163 0-130 7-166 38-195l22-21-3 193c-1 106-7 203-11 216-8 20-11 17-28-30zm735-64c0-8-13-34-29-57-15-23-32-53-36-67s-13-35-21-47c-16-25-18-60-9-126 6-36 3-53-10-73-15-23-18-52-14-144l-6-70c-4-30-8-79-9-107-1-48 1-52 19-47 35 11 48 31 72 121 37 138 44 173 49 253 5 77 13 103 48 155 15 21 21 49 23 101 3 64 0 74-22 98-27 29-55 34-55 10zm1613-21c-24-2-43-8-43-12 0-30 27-73 57-91l35-20 53 25 52 26 37-22c21-12 45-19 57-16 19 5 62-9 114-36 11-6 56-14 100-18 97-9 161-22 198-39 21-10 27-20 27-46 0-49 23-65 85-63 39 2 61-3 89-20 20-13 36-27 36-31 0-5 11-20 24-33 15-15 26-41 30-73 6-36 18-61 48-97 26-31 48-73 63-120 20-64 23-68 24-36 2 84-22 203-56 276-27 59-43 79-76 100-23 14-51 34-62 44-24 21-115 71-115 62 0-3-7 0-15 7-9 7-12 22-9 38 7 37-31 75-92 92-27 7-58 19-69 27-11 7-31 13-45 13-14 1-43 7-65 15-24 9-43 11-50 5s-32-5-66 1c-30 6-90 14-134 19a2054 2054 0 0 0-189 28l-43-5zm-303-42c0-4 21-27 46-51 73-72 84-97 99-222l14-113-3 108c-2 59 0 107 4 107 5 0 86-81 181-180 159-165 209-205 209-166 0 7-25 38-56 67-31 30-73 80-95 111-21 31-48 63-60 72l-21 14 23 4c13 2 25 11 27 21 3 14-4 17-38 17-46 0-74 23-170 140-30 36-57 64-61 63-4-2-28 1-53 6s-46 5-46 2zm-1625-94c-20-33-24-44-28-87a365 365 0 0 1-14-176c4-4 4-18 1-30-4-16-2-24 6-24 9 0 11-11 6-39-3-23-2-42 4-46 5-3 10-17 10-31 0-13 5-24 10-24 6 0 10-6 10-13 0-8 12-24 26-38 15-13 37-41 50-61 22-35 54-51 54-28 0 5-14 37-32 71-31 60-32 65-40 238-6 145-26 302-41 317-2 2-12-11-22-29zm704-129c-6-16-9-31-6-34 9-9-14-66-40-102-16-22-22-39-17-50 4-9 8-24 8-32 1-9 9-28 19-43 9-14 17-30 17-35s7-15 15-22 13-22 11-34c-2-11 1-27 6-33 6-7 6-13 2-13-17 0-33-39-45-107-18-106-18-114-9-139 8-20 17-24 49-24 39 0 61-13 42-25-17-10 7-58 47-93l37-33-37 7c-21 3-38 4-38 1 0-7 198-72 295-96 44-11 107-29 139-41 33-11 65-20 73-20 14 0 18 36 4 44-10 6-24 120-23 188s45 148 82 148c22 0 35 31 18 41-19 12-70-25-93-66-15-29-24-35-41-31-15 4-24 0-31-17-9-20-11-16-22 31-6 29-11 61-11 71s-9 26-20 36-17 21-15 26c3 4 34 21 69 39 71 34 116 34 116-1 0-24 12-24 34 0 19 20 15 50-7 73-26 27-57 77-57 92 0 17-29 36-56 36-9 0-37-12-61-26-36-21-42-28-32-40 6-8 10-14 8-15l-39-6c-46-6-62-23-66-71-3-49-20-83-37-76-10 4-12-3-9-26 3-21 12-34 27-40 56-21 130-151 141-248 7-62 7-62-19-62-40 0-77 21-93 52-20 39-31 35-39-12-6-33-11-40-29-40-12 0-32 10-43 22-31 34-93 151-93 176 0 16-10 26-40 38-41 16-49 27-29 40 8 4 9 29 4 76-4 48-3 74 5 84 8 8 10 27 6 50-4 21-3 41 4 49s8 41 4 96c-6 69-11 87-31 107-23 23-24 27-13 73 13 53 7 86-15 86-8 0-19-13-26-29z"/><path d="M3876 1513c-27-28 53-103 137-128 27-8 55-19 61-23a566 566 0 0 0 153-83c46-32 88-59 94-59 21 0 117-102 138-148l47-97 24-50-6 60c-3 33-12 68-20 79s-14 27-14 34c0 8-13 34-30 59-16 24-30 48-30 53s-34 37-76 72-92 78-110 96c-20 18-45 32-59 32-13 0-30 6-37 13-7 8-28 16-46 20s-60 20-95 36c-64 30-120 45-131 34zm-1832-67c-7-7-17-53-23-101-7-49-14-92-16-95-2-4-7-38-11-76-3-38-10-77-15-86-6-12-2-37 15-80 14-35 27-70 28-78 2-8 28-25 58-37l110-43c30-12 49-16 43-9-7 7-13 25-13 39s-6 35-14 46c-12 15-18 17-34 8-32-20-71-5-98 38-28 44-29 51-15 123 14 73 34 125 48 125 27 0 6 126-33 202-15 28-22 33-30 24zm905-110c-29-30-57-52-62-49s-6-9-2-28c15-75 26-109 34-105 4 3 13-6 19-19 7-14 16-25 21-25 6 0 8-6 5-13-6-16 49-79 67-76 47 6 67-2 77-30 8-23 20-32 51-41 22-6 43-15 46-20 3-6 12-10 20-10s31-15 51-34c26-24 55-38 96-47 32-7 58-18 58-25 0-17 37-46 55-42 14 3 14 6-5 26-12 12-23 30-25 40-7 37-47 100-66 105-16 4-19 11-14 27 4 13 1 38-8 59l-22 51c-19 48-111 159-131 160-7 0-14 10-17 21-5 19-11 21-41 16-27-4-36-2-36 9 0 8-9 23-20 34s-20 27-20 35-3 15-7 16c-15 1-38 7-54 14-11 4-33-11-70-49zm981-121c0-10 10-15 28-15 37 0 104-33 120-59 7-12 18-21 26-21 7 0 21-9 31-20s23-20 30-20 30-12 51-27c56-39 82-53 98-53 8 0 25-19 39-43 14-23 34-51 46-61 19-17 29-46 16-46-3 0-27 11-53 24-50 26-212 48-212 29 0-15 34-43 52-43 37 0 107-40 122-69 9-16 31-42 49-58 36-30 99-117 95-130-2-5 21-33 49-63 31-32 53-49 53-39 0 8-7 24-15 35-8 10-15 27-15 36s-21 58-46 108c-53 108-55 137-6 96l32-28v42c0 55-17 85-81 143-30 27-61 62-69 77a535 535 0 0 1-166 130c-7 0-17 6-21 14-13 22-69 46-107 46-27 0-34 3-30 15 5 12-5 15-55 15-48 0-61-3-61-15zm-544-56c-7-38-3-45 31-54 41-10 80-42 87-71 10-37 52-80 104-106 59-30 118-83 126-111 3-13 34-48 68-78 35-30 65-57 66-61 2-5 8-8 14-8s25-12 44-28c18-15 58-42 88-61 34-21 56-43 58-55 3-20 13-22 188-33l215-11c27 0 26 1-15 16l-45 16 35 6 35 6-40 20c-86 43-182 104-221 141a897 897 0 0 0-176 171c-33 43-97 116-141 165-45 48-84 93-88 99-5 7-11 9-15 6-7-8 39-163 56-188 8-12 12-12 18-3 10 16 40-14 145-142 40-49 105-119 143-154 68-63 69-63 22-37-48 27-74 33-63 16 10-16-3-12-63 21a936 936 0 0 0-320 309c-35 58-69 101-86 110-16 8-43 29-60 47-17 17-44 35-59 38-15 4-30 11-33 17-3 5-19 6-34 3-19-4-37-1-53 10-24 15-25 15-31-16zm-439-201-6-20-11-38c-7-24-5-30 6-30 8 0 17 7 20 15 11 28 33 15 55-32 12-27 31-54 43-62 11-8 51-45 87-83 65-67 93-80 117-56 19 19 14 37-20 82-54 70-90 105-104 99-7-3-36 17-65 44-28 26-59 51-70 55s-22 14-25 23c-7 18-20 20-27 3z"/></g><path fill="#718864" d="M2271 3997c-5-13-26-38-47-57-21-18-48-55-61-82-12-26-28-48-36-48-13 0-71-55-78-75-3-5-15-28-29-49-21-34-25-37-31-20-4 10-8 54-8 96l-1 76-31 7c-24 6-36 2-52-14-17-17-20-31-19-86 2-61-1-70-37-125-31-46-37-61-27-69 16-13 82-17 114-7 16 5 24 3 28-8 10-27 39-18 57 17 10 17 38 57 63 87 63 77 254 363 248 372-11 17-45 7-53-15zm415-136c-13-20-121-63-147-57-20 4-32-1-49-20-13-13-37-28-54-34a664 664 0 0 1-190-79c-12-11-29-21-37-21-15 0-69-49-69-62 0-8 42 4 95 27 72 31 171 53 246 54 40 1 53 8 117 61 40 34 72 66 72 72 0 7 12 25 27 40 21 22 23 28 10 28-8 0-18-4-21-9zm-1251-591c-3-5-21-10-40-10-42 0-53-15-29-41 19-21 20-20-18-37-16-6-28-19-28-29 0-16 10-18 75-17 67 1 77 3 94 26 20 25 24 80 8 106-10 14-53 16-62 2zm986-11c-24-5-51-15-61-24-9-8-32-17-51-21-70-11-80-15-77-26 8-23 109-37 218-32 58 3 109 10 115 15 5 5-5 9-28 9-49 0-47 16 3 30 100 27-5 70-119 49zm841-21c-46-4-92-13-103-19-11-5-23-8-28-5s-16-3-26-14c-17-19-17-20 3-20 11 0 22-5 24-11 3-8 64-13 185-17 158-4 187-3 218 12 34 17 36 19 22 39-14 22-34 26-172 40-22 2-77 0-123-5zm-1947-190c-91-22-113-32-156-70-24-22-53-44-65-48-11-4-28-27-36-50-17-40-16-41 4-34 12 3 81 41 154 84 74 43 143 81 154 85 16 5 18 10 10 26-6 10-14 18-18 18l-47-11zm-5-146c-115-113-169-189-174-241-6-55-23-77-83-106-40-19-46-55-9-55 13 0 34 9 48 19 13 11 37 23 52 27 15 3 37 19 48 35 12 16 31 29 43 29 23 0 22-1 133 245 23 49 37 92 33 95s-10 10-12 15c-2 6-38-23-79-63zm1684-71c-17-4-41-18-52-29-12-12-25-22-29-23-57-5-141-35-168-60-11-10-33-24-48-32l-29-15 40-7c43-7 109 2 118 16 3 5 16 9 30 9 13 0 24 5 24 10 0 6 24 10 54 10s57 4 60 9c6 9 86 21 170 26 34 2 58-2 80-16 22-13 41-17 68-12 30 4 38 2 38-10 0-28 14-26 103 9 98 39 200 64 268 64 26 0 62 3 80 7l34 6-50 17c-36 11-63 13-94 8-48-9-211-19-336-21-44-1-83-6-87-11-6-9-45 5-108 37-29 15-120 19-166 8zm901-202c-27-5-87-7-133-6-48 2-81 0-79-6 5-16 89-39 121-33l31 6-35-30c-32-27-40-29-84-23-39 5-48 3-44-8 2-7 21-17 41-21s67-23 104-41c150-75 323-143 332-130 3 5 15 13 25 17 18 6 17 9-10 37-34 36-84 64-134 74-19 4-51 18-70 31-28 18-50 24-99 25-34 1-59 5-54 10 10 9 221 69 246 69 21 0 23 26 1 34-21 8-97 6-159-5zm-2374-247c-25-39-54-130-45-144 3-4 0-8-6-8s-9-4-5-9c3-5 1-12-5-16-10-6-50-78-50-90 0-3 8-5 17-5s25-7 35-17c17-15 18-15 18 6 0 25 50 80 68 74 6-3 12-20 12-39 0-34 12-44 26-22 7 11 7 103 1 238-1 19-8 39-15 43-7 5-10 12-7 18 4 5 0 9-7 9-7-1-24-18-37-38zm1488 14-3-13c-1-5-6-15-11-23s-10-55-11-104c-2-60-6-91-15-97-19-11 38-68 69-69 18 0 22 6 22 29 0 15 8 39 18 52 35 49 45 75 46 122 2 36 7 53 21 63 10 8 15 15 9 15l-33 4c-13 1-26 7-30 12-7 10-80 18-82 9zm-1038-316c-2-47-4-52-13-32-26 54-77 12-94-78-10-55-9-59 10-68 37-17 50-55 39-112-10-49-9-51 14-56 28-7 43-39 43-90 0-19 4-33 9-29 5 3 12-3 14-12 7-23-3 302-13 432-5 74-8 86-9 45zm1394-147c-8-7-21-13-29-13-9 0-16-7-16-17 0-9-3-14-6-10-8 7-41-26-48-50-5-14 6-35 34-71 43-53 70-60 70-17 0 15 12 31 35 46 27 18 35 30 32 47-4 20 0 22 37 23l47 1c57-7 106-15 112-19 14-9 156-9 151-1-3 5-14 8-24 8s-22 5-26 11c-4 7-21 9-46 5-34-6-46-2-73 19-19 14-40 25-48 25s-17 7-21 15c-7 19-162 18-181-2zm-1054-259c-13-13-28-24-33-24-6 0-8-11-4-23 5-22-1-56-19-98-4-11 3-26 22-43 22-21 29-37 33-83 6-66 23-79 40-29 12 37 17 40 59 36 22-2 24 1 18 37-4 21-7 54-7 73 0 25-3 31-10 20-10-16-19 2-40 79-6 22-16 41-21 41-6 0-9 7-6 15 10 25-7 25-32-1zm1202-56c1-7-8-14-20-16-13-2-23-7-23-11 0-12 73-33 101-29 14 2 49-10 86-29 58-31 163-63 208-63 14 0 20 7 21 25 1 14-1 25-5 25s-27 13-52 29c-24 16-63 32-86 36-24 4-45 11-49 16-3 5-41 9-85 9-51 0-78 4-74 10 3 6-1 10-9 10-9 0-15-6-13-12z" style="transform:none"/><path fill="#9DB11F" d="M1080 3811c0-8 217-177 317-248 25-17 57-43 72-57s31-26 35-26c11 0 132-99 164-133 16-16 27-44 32-79l8-53 1 45 1 44 64-63c36-35 68-76 71-90 6-22 8-23 14-8 6 16 17 9 79-48 40-37 72-63 72-58 0 4-16 38-35 75-20 40-29 68-22 68s-2 9-20 19c-33 21-39 25-121 94a475 475 0 0 0-122 136c0 6 8 11 18 11 9 0 86 16 171 37 130 31 150 38 127 46-19 6-36 5-59-6-18-8-62-22-98-32l-66-17-72 32c-76 33-129 35-117 5 8-22 2-19-77 33-40 26-84 54-98 61-15 7-51 33-80 57-30 24-68 51-86 59-17 9-55 36-84 60-49 41-89 58-89 36z" style="transform:none"/><path fill="#8AA077" d="M3034 3324c-46-16-122-29-147-25-16 2-55-5-227-41-66-14-63-13-122-33-28-11-48-24-51-36-5-17 1-19 51-19 70 0 271 17 372 31 66 9 170 42 268 87 35 16 42 37 15 46-30 10-118 4-159-10zm-1815-72c-1-4 0-15 1-25s-6-29-14-42c-31-47-23-55 54-55 57 0 70 3 70 16 0 9 14 21 30 27 34 13 39 36 13 59-18 16-152 33-154 20zm1846-502c-2-3-18-7-37-8-18-2-37-7-42-12-6-6-34-10-63-10-31 0-53-4-53-11 0-5-4-8-8-5-4 2-21-1-37-8l-55-23c-19-8 25-12 175-19 236-11 294-9 341 11 19 8 42 11 51 8 10-4 14-2 9 5-3 6 3 13 14 17 37 12 4 36-46 34-26-2-52 4-67 14-20 13-45 16-102 14-42-1-78-4-80-7zm340-105-49-10c-21-3-36-9-33-11 3-3 53-18 111-33 59-15 104-30 101-33-10-10 88-30 163-34 68-3 76-1 118 29 36 25 41 33 28 40-8 5-27 6-41 2-24-6-47 0-108 25-11 5-36 11-55 15-42 8-221 15-235 10zm-2187-23c-9-4-26-19-37-33a95 95 0 0 0-48-33c-14-4-38-16-51-27-14-10-31-19-38-19-15 0-54-34-54-47-1-5-9-26-20-48-18-38-25-65-16-65a2261 2261 0 0 1 252 140c8 0 43 88 47 119 2 17-12 22-35 13zm-83-278c-16-21-31-41-31-46l-4-13-4-14c0-5-4-13-8-17-5-4-8-17-8-29 0-22-54-124-83-156-19-22-18-67 2-89 15-16 19-13 68 37 29 29 54 53 57 53s7-15 9-32c3-27 4-24 5 12 1 25 11 87 22 138 15 66 18 105 12 142l-7 52-30-38zm1980-90c-14-15-25-31-25-35s-11-25-25-45c-15-21-23-45-20-55 4-13 0-19-17-21-17-3-9-7 27-17 33-8 155-14 360-17 290-5 317-7 415-31 188-46 358-119 468-201l32-24v28c0 16-4 34-8 39a573 573 0 0 1-192 126c0 5-35 25-77 45-68 31-88 36-156 36-42 0-80 4-82 9-3 4 16 20 41 35 29 17 42 30 33 32-8 3-21 10-29 17s-35 12-60 11c-28 0-49 4-56 13s-32 13-81 12c-56-1-81 4-126 25-31 14-61 23-67 19-5-3-23 2-40 12-23 13-32 15-42 5-13-13-118-17-118-4 0 4-29 9-65 10-60 2-68 0-90-24zm-1603-70c3-3-5-17-19-30-22-22-24-31-19-65 5-32 1-48-20-84-14-24-23-49-20-54 4-5-6-24-21-41-16-19-28-47-30-72-2-22-13-62-23-88-11-27-22-88-25-136s-8-91-11-96c-3-4 1-8 10-8 8 0 19-12 24-27 9-24 11-17 11 43 1 101 23 160 94 261 57 79 66 99 90 193 26 106 27 186 3 202-13 9-52 11-44 2zm1918-339c0-5-16-21-35-34-23-16-35-31-35-47 0-13-4-24-10-24-20 0-9-20 34-64 24-25 41-48 38-51s22-5 56-5c46 0 62 4 62 14 0 8-7 17-16 20-13 5-10 11 15 31 35 30 58 32 201 16 160-17 174-20 182-36 5-8 22-15 39-15 18 0 28-4 24-10-3-5-18-10-31-10-46 0-20-24 38-36a971 971 0 0 0 396-202c34-30 62-50 62-44s-4 13-9 16c-5 4-12 29-16 58-5 34-15 59-31 75-13 13-24 28-24 33s-19 20-42 34c-35 20-52 23-89 19-55-6-79 12-79 61 0 27-6 35-35 49-20 9-46 17-58 17s-39 6-61 14c-21 7-58 11-83 9-24-2-59 3-76 10-96 42-117 49-132 43-10-3-34 3-55 15-38 22-40 22-84 5-25-10-48-22-51-26-8-13-66 25-82 52-7 13-12 19-13 13zm-1512-113c-48-51-67-96-69-169a481 481 0 0 0-24-146c-2-18-13-61-23-97-31-107-34-130-16-130 25 0 38 20 68 105 16 44 51 129 79 188 45 100 49 113 45 170-2 35-11 72-19 85l-16 22-25-28zm1532-139c0-5 13-15 29-24s47-43 69-75c22-33 65-83 96-113s54-56 51-59c-2-3-11 1-20 8-8 7-15 9-15 5 0-10 112-130 122-130s62-40 142-110c41-36 77-65 80-65 13 0 4 28-19 60-14 19-25 38-25 42 0 15 33 8 87-19 59-28 93-58 160-140 42-52 43-53 18-53-39 0-30-18 13-25l63-10c15-2 50-18 78-34 29-17 54-31 57-31 14 0-12 69-37 98-16 18-36 46-44 62-9 17-22 30-30 30-17 0-42 13-99 53-21 15-44 27-51 27s-20 9-30 20-24 20-31 20c-8 0-19 9-26 21-16 26-83 59-120 59-17 0-27 4-23 10s-16 10-52 10c-50 0-65 5-101 31-57 42-55 63 6 76 58 13 184 6 220-13 15-8 33-14 40-14 15 0 138-75 172-106 14-12 52-35 85-52 59-29 158-121 184-170 7-13 15-22 17-19a425 425 0 0 1-186 267c-5 0-47 27-93 59a566 566 0 0 1-153 83c-6 4-34 15-61 23s-69 30-94 49c-32 25-62 37-113 46-39 7-101 29-143 51-52 27-83 37-99 33-13-3-42 1-64 10-44 18-60 20-60 9zm-1089-175c-12-13-22-26-21-31 0-4-6-20-14-36-9-16-12-31-9-34 3-4 0-13-7-22-8-10-10-29-6-54s2-42-5-47c-8-5-9-30-5-80 4-46 3-75-4-79-19-12-10-40 19-56 16-9 33-14 38-10 5 3 17 52 27 109 10 56 29 137 42 178 14 42 22 84 18 93s-6 34-5 56c1 29-1 36-8 26-7-12-13-12-24-3-12 10-19 8-36-10zm-249-167c-1-16-7-21-17-17s-15-1-15-15c0-11-5-30-12-42-12-23-29-103-30-147-1-14 11-44 25-67 20-31 34-42 62-47 46-9 73 8 51 33-39 45-51 87-57 206-3 66-6 109-7 96zm601-80c-83-44-88-50-61-78 12-13 23-31 25-41a926 926 0 0 1 18-95c4-9 4-29 0-44-6-26-8-25-39 32-44 83-54 97-82 118-20 15-28 16-39 7-20-17-19-97 1-135 9-17 13-42 10-57s-1-30 4-33c6-4 8-10 5-15-10-16 18-61 46-76 16-8 45-14 65-14h37l-6 67c-7 66-6 67 45 157 28 50 65 111 82 136 35 50 36 85 3 94-36 10-59 5-114-23zm688-48c-12-13-9-28 23-107 37-91 84-174 112-196 24-21 17 16-13 67l-26 45 29-15c16-8 47-35 70-58 22-24 64-63 92-87 34-28 52-51 52-65 0-13 7-33 16-45 18-27 14-27-34-4-20 10-45 17-54 15s-52 20-95 49l-98 64c-11 6-24 20-29 31-6 13-27 24-66 32-40 9-68 23-96 49-21 20-43 37-49 37-5 0-23 7-40 14l-52 22c-13 5-23 15-23 23 0 26-29 45-65 42-19-1-35 1-35 6 0 4-7 8-15 8-10 0 0-19 29-57 25-32 62-85 83-119 21-33 61-89 88-124 55-68 58-78 33-94-14-9-28 1-85 60-37 39-78 77-89 85-12 8-31 35-43 61-27 59-47 63-89 19-22-23-36-30-41-23-4 7-3 49 1 94 8 86 7 90-20 94-43 7-94-83-94-165-1-92 9-170 26-204l15-33 225-44c124-24 228-41 232-37 15 14-20 37-57 37-32 0-39 3-39 20 0 11 5 20 10 20 6 0 10-4 10-9s15-11 33-14l66-13c18-4 36-3 40 2 3 5 27 20 53 33 32 16 48 30 50 46l3 23 60-30c33-16 82-39 110-50 58-23 131-79 140-108 6-19 15-20 188-19 118 0 174 3 160 9s-21 15-17 23c3 10-16 28-58 55-35 23-77 52-94 66-18 14-36 26-42 26s-12 3-14 8c-1 4-31 31-66 61-34 30-65 65-68 78-8 28-67 81-126 111-51 26-97 71-101 103-4 23-53 69-74 69-7 0-16 6-20 14-7 12-10 12-22-1zm466-175c-9-34 47-128 128-215 57-62 93-90 169-132 53-29 100-50 104-47 3 4-41 53-100 109s-130 131-158 167c-98 125-134 154-143 118zm355-129c54-64 237-229 255-229 7 0 13 3 13 8 0 16-77 121-108 147-18 15-40 41-48 57-16 31-87 68-130 68-24 0-24-2 18-51z" style="transform:none"/><path fill="#9DB088" d="M3540 1704c-15-13-33-24-39-24-18 0-13-18 10-34 19-13 20-14 2-18-10-2 68-5 172-6l230-4c57-3 96 9 89 27-4 8-12 15-20 15s-14 5-14 11c0 8-4 8-14 0-11-10-16-9-24 4-9 17-26 21-182 37-177 17-179 17-210-8zm240-358c-41-10-45-14-42-38 2-18 17-37 43-56 37-28 44-29 186-35 82-3 181-13 222-22 41-8 76-14 77-12 12 11-170 137-198 137-7 0-26 7-43 16-37 20-182 26-245 10zm160-204c0-22 85-134 142-188l64-60 66 10 66 10-47 54c-82 96-118 128-174 155-51 26-117 36-117 19zm-460-202c0-6 12-29 26-51s28-49 32-59c10-26 150-168 183-186 15-7 37-15 48-17s24-6 27-10c4-4 12-7 17-7s-7 18-27 40c-21 23-36 50-36 64 0 18-15 38-51 68-29 24-73 64-98 90-45 47-121 89-121 68zm-54-238c5-26 1-30-43-53-26-13-51-28-55-34s-19-5-41 3c-18 7-41 12-51 12s-24 7-33 15c-21 21-42 3-35-30 4-21 10-25 40-25 21 0 44-8 56-19 26-24 189-49 377-59 108-6 129-5 129 7 0 24-86 97-137 116-27 10-83 36-125 57-43 21-80 38-83 38-2 0-2-13 1-28z" style="transform:none"/></svg>